  0
SECTION
  2
HEADER
  9
$ACADVER
  1
AC1006
  9
$EXTMIN
 10
0.000000
 20
0.000000
 30
0.000000
  9
$EXTMAX
 10
634.000000
 20
708.000000
 30
0.000000
  0
ENDSEC
  0
SECTION
  2
ENTITIES
  0
POLYLINE
  8
0
 66
1
 70
1
  0
VERTEX
  8
0
 10
317.481103
 20
703.548288
 42
0.018339
  0
VERTEX
  8
0
 10
311.841615
 20
701.944223
 42
0.110956
  0
VERTEX
  8
0
 10
309.242063
 20
700.404297
 42
0.127416
  0
VERTEX
  8
0
 10
307.728075
 20
697.997601
 42
0.027274
  0
VERTEX
  8
0
 10
306.479706
 20
693.179447
 42
-0.022374
  0
VERTEX
  8
0
 10
306.069230
 20
691.528774
 42
-0.109421
  0
VERTEX
  8
0
 10
305.605421
 20
690.692627
 42
-0.204224
  0
VERTEX
  8
0
 10
304.992823
 20
690.401625
 42
-0.109786
  0
VERTEX
  8
0
 10
304.155049
 20
690.552458
 42
0.008099
  0
VERTEX
  8
0
 10
300.432358
 20
692.042067
 42
0.036763
  0
VERTEX
  8
0
 10
298.195637
 20
692.711822
 42
0.060297
  0
VERTEX
  8
0
 10
296.469501
 20
692.879782
 42
0.055671
  0
VERTEX
  8
0
 10
294.704033
 20
692.640565
 42
0.080859
  0
VERTEX
  8
0
 10
291.823268
 20
691.397829
 42
0.098535
  0
VERTEX
  8
0
 10
289.708520
 20
689.367339
 42
0.091658
  0
VERTEX
  8
0
 10
288.431301
 20
686.556361
 42
0.060995
  0
VERTEX
  8
0
 10
288.000000
 20
683.033945
 42
-0.071821
  0
VERTEX
  8
0
 10
287.331127
 20
678.401452
 42
-0.115300
  0
VERTEX
  8
0
 10
285.369105
 20
674.945754
 42
-0.283891
  0
VERTEX
  8
0
 10
283.201169
 20
674.342014
 42
-0.250512
  0
VERTEX
  8
0
 10
281.500000
 20
676.000000
 42
0.042976
  0
VERTEX
  8
0
 10
281.182536
 20
676.765274
 42
0.052291
  0
VERTEX
  8
0
 10
280.755139
 20
677.412500
 42
0.061019
  0
VERTEX
  8
0
 10
280.288342
 20
677.856883
 42
0.161102
  0
VERTEX
  8
0
 10
279.855689
 20
678.000000
 42
0.187650
  0
VERTEX
  8
0
 10
278.052283
 20
677.298478
 42
0.037365
  0
VERTEX
  8
0
 10
275.640500
 20
674.730948
 42
0.038941
  0
VERTEX
  8
0
 10
273.603347
 20
671.763402
 42
0.131691
  0
VERTEX
  8
0
 10
273.000000
 20
669.512363
 42
-0.075442
  0
VERTEX
  8
0
 10
272.803064
 20
668.214576
 42
-0.056957
  0
VERTEX
  8
0
 10
272.220896
 20
666.893188
 42
-0.050034
  0
VERTEX
  8
0
 10
271.267520
 20
665.582197
 42
-0.035652
  0
VERTEX
  8
0
 10
269.964083
 20
664.316324
 42
0.025932
  0
VERTEX
  8
0
 10
268.693293
 20
663.129232
 42
0.018173
  0
VERTEX
  8
0
 10
267.384920
 20
661.670882
 42
0.018390
  0
VERTEX
  8
0
 10
266.230994
 20
660.178296
 42
0.036040
  0
VERTEX
  8
0
 10
265.447156
 20
658.897811
 42
-0.084932
  0
VERTEX
  8
0
 10
263.630542
 20
656.491767
 42
-0.075568
  0
VERTEX
  8
0
 10
261.047977
 20
654.710561
 42
-0.052137
  0
VERTEX
  8
0
 10
257.244477
 20
653.327550
 42
-0.017863
  0
VERTEX
  8
0
 10
251.500000
 20
652.110055
 42
0.038231
  0
VERTEX
  8
0
 10
245.410549
 20
650.558059
 42
0.069185
  0
VERTEX
  8
0
 10
240.819328
 20
648.259687
 42
0.075104
  0
VERTEX
  8
0
 10
237.277266
 20
644.945293
 42
0.053463
  0
VERTEX
  8
0
 10
234.377054
 20
640.338234
 42
0.009987
  0
VERTEX
  8
0
 10
233.398256
 20
638.232098
 42
0.015654
  0
VERTEX
  8
0
 10
232.650569
 20
636.380380
 42
0.009772
  0
VERTEX
  8
0
 10
232.119085
 20
634.843323
 42
0.281815
  0
VERTEX
  8
0
 10
232.212733
 20
634.453934
 42
0.273556
  0
VERTEX
  8
0
 10
232.606807
 20
634.352743
 42
0.009000
  0
VERTEX
  8
0
 10
234.220772
 20
634.853229
 42
0.014892
  0
VERTEX
  8
0
 10
236.162223
 20
635.558562
 42
0.009533
  0
VERTEX
  8
0
 10
238.374798
 20
636.487049
 42
-0.023207
  0
VERTEX
  8
0
 10
240.907397
 20
637.469302
 42
-0.019482
  0
VERTEX
  8
0
 10
243.671522
 20
638.277981
 42
-0.020085
  0
VERTEX
  8
0
 10
246.302831
 20
638.826446
 42
-0.041356
  0
VERTEX
  8
0
 10
248.397523
 20
639.000000
 42
-0.033705
  0
VERTEX
  8
0
 10
254.514985
 20
638.587151
 42
-0.016396
  0
VERTEX
  8
0
 10
262.239616
 20
637.280563
 42
-0.016271
  0
VERTEX
  8
0
 10
269.741396
 20
635.501198
 42
-0.040203
  0
VERTEX
  8
0
 10
275.057154
 20
633.586116
 42
-0.013827
  0
VERTEX
  8
0
 10
278.829877
 20
631.745942
 42
-0.712847
  0
VERTEX
  8
0
 10
278.745949
 20
631.187809
 42
-0.090793
  0
VERTEX
  8
0
 10
276.809888
 20
631.184207
 42
-0.003266
  0
VERTEX
  8
0
 10
269.500000
 20
632.557937
 42
0.038049
  0
VERTEX
  8
0
 10
261.599289
 20
633.480411
 42
0.029946
  0
VERTEX
  8
0
 10
252.981488
 20
633.310585
 42
0.034231
  0
VERTEX
  8
0
 10
246.405472
 20
632.330078
 42
0.592568
  0
VERTEX
  8
0
 10
245.922305
 20
630.677695
 42
0.164673
  0
VERTEX
  8
0
 10
246.920867
 20
630.184225
 42
0.010843
  0
VERTEX
  8
0
 10
250.159200
 20
629.823690
 42
0.013321
  0
VERTEX
  8
0
 10
254.412627
 20
629.557291
 42
0.006553
  0
VERTEX
  8
0
 10
259.833323
 20
629.433657
 42
-0.009978
  0
VERTEX
  8
0
 10
268.745870
 20
629.169280
 42
-0.044898
  0
VERTEX
  8
0
 10
273.903765
 20
628.445856
 42
-0.580972
  0
VERTEX
  8
0
 10
274.186528
 20
627.495151
 42
-0.154404
  0
VERTEX
  8
0
 10
272.382432
 20
626.507509
 42
-0.020806
  0
VERTEX
  8
0
 10
270.208607
 20
626.172553
 42
-0.004452
  0
VERTEX
  8
0
 10
266.409214
 20
625.782234
 42
-0.004646
  0
VERTEX
  8
0
 10
261.996059
 20
625.409866
 42
-0.004411
  0
VERTEX
  8
0
 10
257.500000
 20
625.112407
 42
0.000000
  0
VERTEX
  8
0
 10
246.500000
 20
624.482067
 42
0.000000
  0
VERTEX
  8
0
 10
252.500000
 20
622.143609
 42
0.012224
  0
VERTEX
  8
0
 10
255.213823
 20
621.161628
 42
0.007736
  0
VERTEX
  8
0
 10
258.421653
 20
620.143725
 42
0.007768
  0
VERTEX
  8
0
 10
261.605779
 20
619.240998
 42
0.014191
  0
VERTEX
  8
0
 10
264.233288
 20
618.619287
 42
-0.012336
  0
VERTEX
  8
0
 10
266.502626
 20
618.091209
 42
-0.015400
  0
VERTEX
  8
0
 10
268.579401
 20
617.484793
 42
-0.013664
  0
VERTEX
  8
0
 10
270.273137
 20
616.881414
 42
-0.104338
  0
VERTEX
  8
0
 10
270.977567
 20
616.422433
 42
-0.196370
  0
VERTEX
  8
0
 10
271.449429
 20
615.298844
 42
-0.002470
  0
VERTEX
  8
0
 10
271.487787
 20
607.388439
 42
-0.005592
  0
VERTEX
  8
0
 10
271.370084
 20
596.949284
 42
-0.001961
  0
VERTEX
  8
0
 10
270.974451
 20
581.955721
 42
-0.001862
  0
VERTEX
  8
0
 10
270.346150
 20
563.497984
 42
-0.009089
  0
VERTEX
  8
0
 10
269.761783
 20
553.060297
 42
-0.015972
  0
VERTEX
  8
0
 10
269.005091
 20
545.951585
 42
-0.026081
  0
VERTEX
  8
0
 10
267.859633
 20
540.000000
 42
-0.024251
  0
VERTEX
  8
0
 10
263.671628
 20
526.005523
 42
-0.090174
  0
VERTEX
  8
0
 10
259.125229
 20
518.049073
 42
-0.111540
  0
VERTEX
  8
0
 10
252.623642
 20
513.110228
 42
-0.047743
  0
VERTEX
  8
0
 10
242.250000
 20
509.533046
 42
0.005431
  0
VERTEX
  8
0
 10
239.470434
 20
508.830665
 42
0.008849
  0
VERTEX
  8
0
 10
237.129687
 20
508.167513
 42
0.003193
  0
VERTEX
  8
0
 10
235.159687
 20
507.557781
 42
0.327026
  0
VERTEX
  8
0
 10
235.000000
 20
507.339741
 42
0.299186
  0
VERTEX
  8
0
 10
235.656548
 20
506.340731
 42
0.004909
  0
VERTEX
  8
0
 10
242.111933
 20
503.625581
 42
0.012463
  0
VERTEX
  8
0
 10
248.443043
 20
501.217951
 42
0.037781
  0
VERTEX
  8
0
 10
252.890823
 20
500.020705
 42
0.027779
  0
VERTEX
  8
0
 10
258.514133
 20
499.274787
 42
0.023054
  0
VERTEX
  8
0
 10
264.548939
 20
499.092265
 42
0.023620
  0
VERTEX
  8
0
 10
270.087403
 20
499.442176
 42
0.058346
  0
VERTEX
  8
0
 10
274.047239
 20
500.356349
 42
0.027161
  0
VERTEX
  8
0
 10
275.729544
 20
501.063168
 42
0.011563
  0
VERTEX
  8
0
 10
277.902863
 20
502.181362
 42
0.011401
  0
VERTEX
  8
0
 10
280.171801
 20
503.483827
 42
0.014682
  0
VERTEX
  8
0
 10
282.191539
 20
504.787773
 42
-0.012314
  0
VERTEX
  8
0
 10
285.182800
 20
506.739070
 42
-0.091855
  0
VERTEX
  8
0
 10
286.757308
 20
507.350111
 42
-0.108396
  0
VERTEX
  8
0
 10
288.337228
 20
507.304356
 42
-0.020094
  0
VERTEX
  8
0
 10
291.144300
 20
506.481696
 42
0.031397
  0
VERTEX
  8
0
 10
297.678429
 20
504.726022
 42
0.037753
  0
VERTEX
  8
0
 10
303.990023
 20
503.937746
 42
0.036930
  0
VERTEX
  8
0
 10
310.462993
 20
504.099907
 42
0.027983
  0
VERTEX
  8
0
 10
317.484504
 20
505.195786
 42
-0.002925
  0
VERTEX
  8
0
 10
327.828096
 20
507.345645
 42
-0.049490
  0
VERTEX
  8
0
 10
331.291641
 20
507.693774
 42
-0.117166
  0
VERTEX
  8
0
 10
333.734113
 20
507.116749
 42
-0.040435
  0
VERTEX
  8
0
 10
336.854307
 20
505.220499
 42
0.056307
  0
VERTEX
  8
0
 10
342.020278
 20
502.300840
 42
0.044150
  0
VERTEX
  8
0
 10
348.146635
 20
500.313526
 42
0.039479
  0
VERTEX
  8
0
 10
355.203264
 20
499.272143
 42
0.028539
  0
VERTEX
  8
0
 10
363.157318
 20
499.188333
 42
0.020890
  0
VERTEX
  8
0
 10
370.263650
 20
499.817464
 42
0.066250
  0
VERTEX
  8
0
 10
374.863950
 20
501.052975
 42
0.088720
  0
VERTEX
  8
0
 10
378.217537
 20
503.210391
 42
0.060327
  0
VERTEX
  8
0
 10
381.153616
 20
506.684571
 42
0.027394
  0
VERTEX
  8
0
 10
382.991764
 20
509.848063
 42
0.022213
  0
VERTEX
  8
0
 10
384.617709
 20
513.419941
 42
0.014456
  0
VERTEX
  8
0
 10
385.837870
 20
516.723095
 42
0.284940
  0
VERTEX
  8
0
 10
385.601414
 20
517.731919
 42
0.276027
  0
VERTEX
  8
0
 10
385.280261
 20
517.812814
 42
0.013176
  0
VERTEX
  8
0
 10
384.183516
 20
517.451513
 42
0.018446
  0
VERTEX
  8
0
 10
382.850740
 20
516.916908
 42
0.011899
  0
VERTEX
  8
0
 10
381.346905
 20
516.204964
 42
-0.101467
  0
VERTEX
  8
0
 10
371.915342
 20
513.658432
 42
-0.114153
  0
VERTEX
  8
0
 10
362.665846
 20
515.206693
 42
-0.107565
  0
VERTEX
  8
0
 10
354.630757
 20
520.792473
 42
-0.081977
  0
VERTEX
  8
0
 10
348.693266
 20
529.748695
 42
-0.064717
  0
VERTEX
  8
0
 10
345.179868
 20
541.412425
 42
-0.022572
  0
VERTEX
  8
0
 10
343.108051
 20
558.860380
 42
-0.020551
  0
VERTEX
  8
0
 10
342.441127
 20
579.722818
 42
-0.015792
  0
VERTEX
  8
0
 10
343.369117
 20
602.500000
 42
0.007149
  0
VERTEX
  8
0
 10
343.776443
 20
609.514781
 42
0.025988
  0
VERTEX
  8
0
 10
343.739568
 20
613.977863
 42
0.030717
  0
VERTEX
  8
0
 10
343.244705
 20
618.025990
 42
0.013125
  0
VERTEX
  8
0
 10
342.111099
 20
623.362716
 42
0.031810
  0
VERTEX
  8
0
 10
339.456486
 20
631.970169
 42
0.031162
  0
VERTEX
  8
0
 10
335.716376
 20
640.232833
 42
0.031734
  0
VERTEX
  8
0
 10
331.058628
 20
647.816048
 42
0.036308
  0
VERTEX
  8
0
 10
325.664306
 20
654.394188
 42
0.000000
  0
VERTEX
  8
0
 10
319.500000
 20
660.887327
 42
0.000000
  0
VERTEX
  8
0
 10
325.000000
 20
661.259139
 42
-0.017640
  0
VERTEX
  8
0
 10
327.458479
 20
661.338389
 42
-0.032293
  0
VERTEX
  8
0
 10
329.458487
 20
661.202949
 42
-0.040106
  0
VERTEX
  8
0
 10
330.987069
 20
660.873386
 42
-0.110091
  0
VERTEX
  8
0
 10
331.943846
 20
660.335916
 42
0.055357
  0
VERTEX
  8
0
 10
332.772267
 20
659.743850
 42
0.156181
  0
VERTEX
  8
0
 10
333.461354
 20
659.604123
 42
0.126261
  0
VERTEX
  8
0
 10
334.196937
 20
659.881832
 42
0.030855
  0
VERTEX
  8
0
 10
335.217474
 20
660.696811
 42
-0.032612
  0
VERTEX
  8
0
 10
336.176250
 20
661.456973
 42
-0.112210
  0
VERTEX
  8
0
 10
336.908396
 20
661.750827
 42
-0.154909
  0
VERTEX
  8
0
 10
337.556867
 20
661.653363
 42
-0.082396
  0
VERTEX
  8
0
 10
338.223629
 20
661.176371
 42
0.167471
  0
VERTEX
  8
0
 10
340.168194
 20
660.228547
 42
0.036746
  0
VERTEX
  8
0
 10
343.937073
 20
660.046698
 42
0.038656
  0
VERTEX
  8
0
 10
347.948223
 20
660.459370
 42
0.074501
  0
VERTEX
  8
0
 10
350.997967
 20
661.498949
 42
0.067610
  0
VERTEX
  8
0
 10
353.567655
 20
663.303625
 42
0.039137
  0
VERTEX
  8
0
 10
356.132234
 20
666.082672
 42
0.032139
  0
VERTEX
  8
0
 10
358.718429
 20
669.840338
 42
0.018606
  0
VERTEX
  8
0
 10
361.354997
 20
674.651348
 42
-0.020838
  0
VERTEX
  8
0
 10
362.528218
 20
676.769676
 42
-0.018410
  0
VERTEX
  8
0
 10
363.920325
 20
678.874806
 42
-0.018801
  0
VERTEX
  8
0
 10
365.316524
 20
680.678678
 42
-0.052046
  0
VERTEX
  8
0
 10
366.466855
 20
681.795268
 42
0.015861
  0
VERTEX
  8
0
 10
368.521171
 20
683.519407
 42
0.241644
  0
VERTEX
  8
0
 10
368.843849
 20
684.359696
 42
0.353627
  0
VERTEX
  8
0
 10
368.315289
 20
684.886189
 42
0.025914
  0
VERTEX
  8
0
 10
366.120843
 20
685.000000
 42
-0.056801
  0
VERTEX
  8
0
 10
364.640946
 20
685.168663
 42
-0.016792
  0
VERTEX
  8
0
 10
362.433650
 20
685.757129
 42
-0.016620
  0
VERTEX
  8
0
 10
359.978455
 20
686.590858
 42
-0.017186
  0
VERTEX
  8
0
 10
357.611767
 20
687.577462
 42
0.040370
  0
VERTEX
  8
0
 10
353.152823
 20
689.198225
 42
0.088462
  0
VERTEX
  8
0
 10
349.548376
 20
689.528873
 42
0.087020
  0
VERTEX
  8
0
 10
346.014388
 20
688.594091
 42
0.038121
  0
VERTEX
  8
0
 10
341.767871
 20
686.227687
 42
-0.014318
  0
VERTEX
  8
0
 10
340.271801
 20
685.298104
 42
-0.022442
  0
VERTEX
  8
0
 10
338.930281
 20
684.595498
 42
-0.018395
  0
VERTEX
  8
0
 10
337.832038
 20
684.130139
 42
-0.295531
  0
VERTEX
  8
0
 10
337.456133
 20
684.210533
 42
-0.390887
  0
VERTEX
  8
0
 10
337.384013
 20
686.005977
 42
-0.056477
  0
VERTEX
  8
0
 10
340.308463
 20
688.746039
 42
-0.042085
  0
VERTEX
  8
0
 10
345.138539
 20
691.746762
 42
-0.026804
  0
VERTEX
  8
0
 10
351.188336
 20
694.435293
 42
0.011176
  0
VERTEX
  8
0
 10
353.814222
 20
695.505305
 42
0.093539
  0
VERTEX
  8
0
 10
354.870464
 20
696.221470
 42
0.233162
  0
VERTEX
  8
0
 10
355.131913
 20
696.984041
 42
0.108017
  0
VERTEX
  8
0
 10
354.770536
 20
697.995823
 42
0.089835
  0
VERTEX
  8
0
 10
352.765818
 20
700.202694
 42
0.061964
  0
VERTEX
  8
0
 10
349.846266
 20
701.914888
 42
0.056781
  0
VERTEX
  8
0
 10
346.316062
 20
702.980636
 42
0.051123
  0
VERTEX
  8
0
 10
342.507322
 20
703.276779
 42
0.030524
  0
VERTEX
  8
0
 10
338.121442
 20
702.900478
 42
0.058787
  0
VERTEX
  8
0
 10
334.722164
 20
701.981410
 42
0.058479
  0
VERTEX
  8
0
 10
331.618631
 20
700.292696
 42
0.029900
  0
VERTEX
  8
0
 10
328.151577
 20
697.517976
 42
0.000000
  0
VERTEX
  8
0
 10
324.198601
 20
693.946699
 42
0.000000
  0
VERTEX
  8
0
 10
325.075444
 20
697.723349
 42
0.018502
  0
VERTEX
  8
0
 10
326.061437
 20
702.819073
 42
0.274237
  0
VERTEX
  8
0
 10
325.411329
 20
704.441160
 42
0.215111
  0
VERTEX
  8
0
 10
323.534103
 20
704.881758
 42
0.011803
  0
SEQEND
  0
POLYLINE
  8
0
 66
1
 70
1
  0
VERTEX
  8
0
 10
508.399102
 20
618.928514
 42
-0.024019
  0
VERTEX
  8
0
 10
505.829434
 20
616.594541
 42
-0.069318
  0
VERTEX
  8
0
 10
503.784425
 20
615.338127
 42
-0.057282
  0
VERTEX
  8
0
 10
501.262640
 20
614.563369
 42
-0.012700
  0
VERTEX
  8
0
 10
496.795536
 20
613.850553
 42
-0.013166
  0
VERTEX
  8
0
 10
491.976876
 20
613.335384
 42
-0.058784
  0
VERTEX
  8
0
 10
489.141439
 20
613.441073
 42
-0.051097
  0
VERTEX
  8
0
 10
486.230252
 20
614.205528
 42
-0.008394
  0
VERTEX
  8
0
 10
480.810504
 20
616.343188
 42
0.007063
  0
VERTEX
  8
0
 10
477.322808
 20
617.729544
 42
0.007288
  0
VERTEX
  8
0
 10
473.833404
 20
619.001877
 42
0.007081
  0
VERTEX
  8
0
 10
470.780015
 20
620.016819
 42
0.030697
  0
VERTEX
  8
0
 10
468.928776
 20
620.480404
 42
0.077971
  0
VERTEX
  8
0
 10
465.923795
 20
620.565681
 42
0.047006
  0
VERTEX
  8
0
 10
462.438943
 20
619.782010
 42
0.047472
  0
VERTEX
  8
0
 10
459.234867
 20
618.389362
 42
0.093568
  0
VERTEX
  8
0
 10
457.104158
 20
616.625503
 42
-0.078254
  0
VERTEX
  8
0
 10
456.285802
 20
615.905020
 42
-0.133470
  0
VERTEX
  8
0
 10
455.421453
 20
615.637342
 42
-0.078700
  0
VERTEX
  8
0
 10
454.227517
 20
615.783883
 42
-0.014996
  0
VERTEX
  8
0
 10
452.136561
 20
616.451819
 42
0.120569
  0
VERTEX
  8
0
 10
444.629067
 20
617.199062
 42
0.052119
  0
VERTEX
  8
0
 10
434.817341
 20
614.746778
 42
0.049047
  0
VERTEX
  8
0
 10
424.769435
 20
609.929263
 42
0.057114
  0
VERTEX
  8
0
 10
416.401282
 20
603.445456
 42
0.016771
  0
VERTEX
  8
0
 10
413.570245
 20
600.490329
 42
0.050137
  0
VERTEX
  8
0
 10
411.922549
 20
598.231547
 42
0.055620
  0
VERTEX
  8
0
 10
410.850264
 20
595.823373
 42
0.024449
  0
VERTEX
  8
0
 10
409.955643
 20
592.445456
 42
0.027867
  0
VERTEX
  8
0
 10
408.987157
 20
586.218393
 42
0.029410
  0
VERTEX
  8
0
 10
408.741068
 20
580.033850
 42
0.031169
  0
VERTEX
  8
0
 10
409.211811
 20
574.259975
 42
0.044829
  0
VERTEX
  8
0
 10
410.396737
 20
569.272724
 42
0.035721
  0
VERTEX
  8
0
 10
411.562414
 20
566.471040
 42
0.007937
  0
VERTEX
  8
0
 10
413.967860
 20
561.868161
 42
0.008206
  0
VERTEX
  8
0
 10
416.925216
 20
556.628498
 42
0.007833
  0
VERTEX
  8
0
 10
420.097849
 20
551.406131
 42
-0.006121
  0
VERTEX
  8
0
 10
423.042503
 20
546.596229
 42
-0.011691
  0
VERTEX
  8
0
 10
425.268956
 20
542.650429
 42
-0.009171
  0
VERTEX
  8
0
 10
426.804392
 20
539.642650
 42
-0.680789
  0
VERTEX
  8
0
 10
426.534683
 20
539.348317
 42
0.013928
  0
VERTEX
  8
0
 10
425.540595
 20
539.698346
 42
0.001116
  0
VERTEX
  8
0
 10
422.891300
 20
540.542509
 42
0.001508
  0
VERTEX
  8
0
 10
419.725111
 20
541.533097
 42
0.001157
  0
VERTEX
  8
0
 10
416.259653
 20
542.597069
 42
-0.000911
  0
VERTEX
  8
0
 10
412.813248
 20
543.653339
 42
-0.001237
  0
VERTEX
  8
0
 10
409.705961
 20
544.620294
 42
-0.000819
  0
VERTEX
  8
0
 10
407.100252
 20
545.442932
 42
-0.013898
  0
VERTEX
  8
0
 10
406.250000
 20
545.739147
 42
0.504535
  0
VERTEX
  8
0
 10
405.225418
 20
545.080237
 42
0.124769
  0
VERTEX
  8
0
 10
405.658414
 20
542.747239
 42
0.037297
  0
VERTEX
  8
0
 10
408.264776
 20
538.047201
 42
0.011472
  0
VERTEX
  8
0
 10
412.871123
 20
531.369074
 42
0.014108
  0
VERTEX
  8
0
 10
419.412110
 20
522.853234
 42
0.028280
  0
VERTEX
  8
0
 10
425.128188
 20
516.589851
 42
0.029639
  0
VERTEX
  8
0
 10
431.334224
 20
511.198714
 42
0.017202
  0
VERTEX
  8
0
 10
439.364361
 20
505.446690
 42
0.000000
  0
VERTEX
  8
0
 10
448.074062
 20
499.650499
 42
0.000000
  0
VERTEX
  8
0
 10
444.870696
 20
498.303585
 42
0.000000
  0
VERTEX
  8
0
 10
441.667330
 20
496.956671
 42
0.000000
  0
VERTEX
  8
0
 10
444.211479
 20
494.228335
 42
-0.014486
  0
VERTEX
  8
0
 10
445.259408
 20
493.037155
 42
-0.012074
  0
VERTEX
  8
0
 10
446.304261
 20
491.713948
 42
-0.012252
  0
VERTEX
  8
0
 10
447.201922
 20
490.455868
 42
-0.032151
  0
VERTEX
  8
0
 10
447.763210
 20
489.500000
 42
-0.073708
  0
VERTEX
  8
0
 10
448.571155
 20
487.058066
 42
-0.008971
  0
VERTEX
  8
0
 10
449.441789
 20
481.465367
 42
-0.003799
  0
VERTEX
  8
0
 10
450.212744
 20
475.517224
 42
-0.450203
  0
VERTEX
  8
0
 10
449.754737
 20
475.000000
 42
-0.076521
  0
VERTEX
  8
0
 10
449.433562
 20
475.049443
 42
-0.001270
  0
VERTEX
  8
0
 10
447.707782
 20
475.598507
 42
-0.003250
  0
VERTEX
  8
0
 10
445.702094
 20
476.256652
 42
-0.002150
  0
VERTEX
  8
0
 10
443.406550
 20
477.037472
 42
0.012950
  0
VERTEX
  8
0
 10
435.933628
 20
479.400567
 42
0.013635
  0
VERTEX
  8
0
 10
428.474990
 20
481.329754
 42
0.012931
  0
VERTEX
  8
0
 10
421.989373
 20
482.644297
 42
0.065589
  0
VERTEX
  8
0
 10
418.312519
 20
482.802969
 42
0.000000
  0
VERTEX
  8
0
 10
414.873179
 20
482.500000
 42
0.000000
  0
VERTEX
  8
0
 10
421.125047
 20
474.653304
 42
0.016626
  0
VERTEX
  8
0
 10
424.327484
 20
470.897251
 42
0.018966
  0
VERTEX
  8
0
 10
427.640014
 20
467.529834
 42
0.019636
  0
VERTEX
  8
0
 10
431.086008
 20
464.529228
 42
0.020889
  0
VERTEX
  8
0
 10
434.688458
 20
461.872830
 42
-0.007075
  0
VERTEX
  8
0
 10
437.490683
 20
459.923641
 42
-0.010901
  0
VERTEX
  8
0
 10
439.852235
 20
458.151712
 42
-0.005518
  0
VERTEX
  8
0
 10
441.776237
 20
456.606804
 42
-0.224463
  0
VERTEX
  8
0
 10
442.000000
 20
456.133477
 42
-0.337674
  0
VERTEX
  8
0
 10
441.031797
 20
454.863309
 42
-0.015073
  0
VERTEX
  8
0
 10
435.325718
 20
453.478755
 42
-0.023537
  0
VERTEX
  8
0
 10
429.380661
 20
452.514255
 42
-0.063737
  0
VERTEX
  8
0
 10
425.116642
 20
452.571961
 42
0.000000
  0
VERTEX
  8
0
 10
420.500000
 20
453.226472
 42
0.000000
  0
VERTEX
  8
0
 10
425.500000
 20
448.035234
 42
0.014785
  0
VERTEX
  8
0
 10
427.707312
 20
445.875114
 42
0.011823
  0
VERTEX
  8
0
 10
430.206250
 20
443.677269
 42
0.011999
  0
VERTEX
  8
0
 10
432.617098
 20
441.752552
 42
0.029438
  0
VERTEX
  8
0
 10
434.500000
 20
440.489434
 42
0.042744
  0
VERTEX
  8
0
 10
439.435407
 20
438.126093
 42
0.005470
  0
VERTEX
  8
0
 10
450.484364
 20
434.090249
 42
0.006792
  0
VERTEX
  8
0
 10
461.834438
 20
430.257155
 42
0.019860
  0
VERTEX
  8
0
 10
469.790301
 20
428.034815
 42
-0.022210
  0
VERTEX
  8
0
 10
472.186356
 20
427.353366
 42
-0.012480
  0
VERTEX
  8
0
 10
475.032847
 20
426.325727
 42
-0.012435
  0
VERTEX
  8
0
 10
477.860851
 20
425.142430
 42
-0.019820
  0
VERTEX
  8
0
 10
480.208335
 20
423.977062
 42
0.000000
  0
VERTEX
  8
0
 10
485.336069
 20
421.172942
 42
0.000000
  0
VERTEX
  8
0
 10
480.418035
 20
420.425000
 42
-0.059545
  0
VERTEX
  8
0
 10
473.798677
 20
420.213271
 42
-0.016367
  0
VERTEX
  8
0
 10
463.428769
 20
421.460575
 42
-0.017090
  0
VERTEX
  8
0
 10
452.374323
 20
423.547786
 42
-0.025706
  0
VERTEX
  8
0
 10
442.926996
 20
426.184730
 42
-0.042980
  0
VERTEX
  8
0
 10
431.876294
 20
430.981168
 42
-0.033147
  0
VERTEX
  8
0
 10
420.751101
 20
437.982170
 42
-0.023141
  0
VERTEX
  8
0
 10
407.431014
 20
448.626954
 42
-0.007689
  0
VERTEX
  8
0
 10
388.903156
 20
465.404976
 42
-0.027279
  0
VERTEX
  8
0
 10
383.717737
 20
470.806422
 42
-0.056070
  0
VERTEX
  8
0
 10
380.419202
 20
475.644184
 42
-0.066203
  0
VERTEX
  8
0
 10
378.612277
 20
480.530593
 42
-0.055552
  0
VERTEX
  8
0
 10
378.000000
 20
486.024470
 42
0.051915
  0
VERTEX
  8
0
 10
377.764676
 20
488.284820
 42
0.141619
  0
VERTEX
  8
0
 10
377.016915
 20
489.690653
 42
0.073925
  0
VERTEX
  8
0
 10
375.332653
 20
490.979046
 42
0.007580
  0
VERTEX
  8
0
 10
370.897277
 20
493.346331
 42
0.024728
  0
VERTEX
  8
0
 10
365.831317
 20
495.643114
 42
0.055778
  0
VERTEX
  8
0
 10
361.769097
 20
496.744529
 42
0.067548
  0
VERTEX
  8
0
 10
358.076665
 20
496.812621
 42
0.054799
  0
VERTEX
  8
0
 10
354.213742
 20
495.924666
 42
-0.045990
  0
VERTEX
  8
0
 10
352.404730
 20
495.475227
 42
-0.071464
  0
VERTEX
  8
0
 10
350.799842
 20
495.460920
 42
-0.054427
  0
VERTEX
  8
0
 10
348.964997
 20
495.914834
 42
-0.016680
  0
VERTEX
  8
0
 10
346.314518
 20
496.987695
 42
0.028545
  0
VERTEX
  8
0
 10
343.802060
 20
497.935985
 42
0.029023
  0
VERTEX
  8
0
 10
341.211758
 20
498.585822
 42
0.027888
  0
VERTEX
  8
0
 10
338.469215
 20
498.949979
 42
0.022545
  0
VERTEX
  8
0
 10
335.500000
 20
499.042542
 42
-0.000100
  0
VERTEX
  8
0
 10
332.982847
 20
499.008006
 42
-0.000090
  0
VERTEX
  8
0
 10
330.381250
 20
498.973298
 42
-0.000090
  0
VERTEX
  8
0
 10
328.052152
 20
498.943066
 42
-0.000289
  0
VERTEX
  8
0
 10
326.500000
 20
498.924096
 42
-0.015550
  0
VERTEX
  8
0
 10
324.935983
 20
498.954527
 42
-0.004647
  0
VERTEX
  8
0
 10
322.554468
 20
499.097224
 42
-0.004655
  0
VERTEX
  8
0
 10
319.882114
 20
499.307307
 42
-0.005023
  0
VERTEX
  8
0
 10
317.281169
 20
499.562519
 42
0.013611
  0
VERTEX
  8
0
 10
313.841953
 20
499.840447
 42
0.048187
  0
VERTEX
  8
0
 10
311.631877
 20
499.745614
 42
0.064971
  0
VERTEX
  8
0
 10
309.843872
 20
499.252807
 42
0.041459
  0
VERTEX
  8
0
 10
307.929837
 20
498.252513
 42
-0.024872
  0
VERTEX
  8
0
 10
305.883235
 20
497.095044
 42
-0.113288
  0
VERTEX
  8
0
 10
304.562797
 20
496.772804
 42
-0.084145
  0
VERTEX
  8
0
 10
303.047150
 20
497.008303
 42
-0.010270
  0
VERTEX
  8
0
 10
299.869229
 20
498.141687
 42
0.051522
  0
VERTEX
  8
0
 10
295.688274
 20
499.254660
 42
0.057684
  0
VERTEX
  8
0
 10
291.526924
 20
499.429427
 42
0.062931
  0
VERTEX
  8
0
 10
287.773534
 20
498.672623
 42
0.089235
  0
VERTEX
  8
0
 10
284.795222
 20
497.035264
 42
-0.062232
  0
VERTEX
  8
0
 10
283.489472
 20
496.223240
 42
-0.077867
  0
VERTEX
  8
0
 10
282.118648
 20
495.834047
 42
-0.054198
  0
VERTEX
  8
0
 10
280.335852
 20
495.811007
 42
-0.015717
  0
VERTEX
  8
0
 10
277.603852
 20
496.159288
 42
0.043179
  0
VERTEX
  8
0
 10
273.517123
 20
496.453740
 42
0.051536
  0
VERTEX
  8
0
 10
269.682978
 20
496.001695
 42
0.055729
  0
VERTEX
  8
0
 10
266.287743
 20
494.832365
 42
0.069294
  0
VERTEX
  8
0
 10
263.500000
 20
493.000383
 42
-0.081879
  0
VERTEX
  8
0
 10
262.275060
 20
492.238599
 42
-0.027573
  0
VERTEX
  8
0
 10
260.283884
 20
491.539086
 42
-0.024942
  0
VERTEX
  8
0
 10
257.825348
 20
490.956082
 42
-0.018882
  0
VERTEX
  8
0
 10
255.081041
 20
490.554782
 42
0.024227
  0
VERTEX
  8
0
 10
252.197086
 20
490.101536
 42
0.017888
  0
VERTEX
  8
0
 10
249.058242
 20
489.333059
 42
0.018132
  0
VERTEX
  8
0
 10
246.064130
 20
488.366899
 42
0.030166
  0
VERTEX
  8
0
 10
243.632337
 20
487.313691
 42
0.000000
  0
VERTEX
  8
0
 10
238.602591
 20
484.764926
 42
0.000000
  0
VERTEX
  8
0
 10
241.533397
 20
482.632463
 42
-0.005808
  0
VERTEX
  8
0
 10
242.833868
 20
481.662934
 42
-0.003713
  0
VERTEX
  8
0
 10
244.323474
 20
480.507627
 42
-0.003730
  0
VERTEX
  8
0
 10
245.766626
 20
479.353541
 42
-0.006947
  0
VERTEX
  8
0
 10
246.915930
 20
478.393502
 42
0.000000
  0
VERTEX
  8
0
 10
249.367657
 20
476.287004
 42
0.000000
  0
VERTEX
  8
0
 10
246.433828
 20
474.415579
 42
0.012978
  0
VERTEX
  8
0
 10
244.687930
 20
473.237068
 42
0.001702
  0
VERTEX
  8
0
 10
241.052130
 20
470.624277
 42
0.001977
  0
VERTEX
  8
0
 10
236.761913
 20
467.493078
 42
0.001654
  0
VERTEX
  8
0
 10
232.232998
 20
464.136979
 42
0.009732
  0
VERTEX
  8
0
 10
225.863770
 20
459.188546
 42
0.025804
  0
VERTEX
  8
0
 10
221.574483
 20
455.337810
 42
0.026740
  0
VERTEX
  8
0
 10
217.790990
 20
451.145274
 42
0.011135
  0
VERTEX
  8
0
 10
213.126002
 20
445.114903
 42
-0.013972
  0
VERTEX
  8
0
 10
209.356322
 20
440.298582
 42
-0.009724
  0
VERTEX
  8
0
 10
204.846985
 20
435.068011
 42
-0.009758
  0
VERTEX
  8
0
 10
200.169982
 20
430.052084
 42
-0.014790
  0
VERTEX
  8
0
 10
195.893003
 20
425.894394
 42
-0.025760
  0
VERTEX
  8
0
 10
183.010501
 20
415.258330
 42
-0.050076
  0
VERTEX
  8
0
 10
171.571538
 20
408.423335
 42
-0.059930
  0
VERTEX
  8
0
 10
160.501223
 20
404.769373
 42
-0.059099
  0
VERTEX
  8
0
 10
148.826873
 20
403.821294
 42
0.000000
  0
VERTEX
  8
0
 10
140.153745
 20
404.142588
 42
0.000000
  0
VERTEX
  8
0
 10
141.212196
 20
407.178862
 42
-0.128698
  0
VERTEX
  8
0
 10
142.924243
 20
409.728029
 42
-0.078252
  0
VERTEX
  8
0
 10
146.004090
 20
411.689989
 42
-0.036150
  0
VERTEX
  8
0
 10
151.547737
 20
413.643188
 42
-0.005696
  0
VERTEX
  8
0
 10
162.741264
 20
416.562128
 42
0.009586
  0
VERTEX
  8
0
 10
169.212593
 20
418.303535
 42
0.015109
  0
VERTEX
  8
0
 10
174.686054
 20
420.070458
 42
0.017211
  0
VERTEX
  8
0
 10
179.450989
 20
421.956461
 42
0.020983
  0
VERTEX
  8
0
 10
183.762821
 20
424.056709
 42
0.013210
  0
VERTEX
  8
0
 10
188.278679
 20
426.652193
 42
0.048892
  0
VERTEX
  8
0
 10
190.900509
 20
428.627879
 42
0.054326
  0
VERTEX
  8
0
 10
192.947609
 20
430.967687
 42
0.019020
  0
VERTEX
  8
0
 10
195.370894
 20
434.730165
 42
0.019124
  0
VERTEX
  8
0
 10
198.319375
 20
440.180148
 42
0.295180
  0
VERTEX
  8
0
 10
198.083155
 20
442.200571
 42
0.250518
  0
VERTEX
  8
0
 10
196.057971
 20
443.031656
 42
0.014797
  0
VERTEX
  8
0
 10
189.254279
 20
442.134505
 42
0.001153
  0
VERTEX
  8
0
 10
186.138786
 20
441.622119
 42
0.001357
  0
VERTEX
  8
0
 10
183.190320
 20
441.121987
 42
0.001189
  0
VERTEX
  8
0
 10
180.701690
 20
440.686807
 42
0.008458
  0
VERTEX
  8
0
 10
179.500000
 20
440.452694
 42
-0.701603
  0
VERTEX
  8
0
 10
179.404357
 20
440.606432
 42
-0.087649
  0
VERTEX
  8
0
 10
179.850000
 20
441.004335
 42
-0.019248
  0
VERTEX
  8
0
 10
181.321990
 20
441.838409
 42
-0.006720
  0
VERTEX
  8
0
 10
183.500000
 20
442.927256
 42
0.042563
  0
VERTEX
  8
0
 10
188.935668
 20
446.150368
 42
0.054981
  0
VERTEX
  8
0
 10
193.255144
 20
450.017117
 42
0.052216
  0
VERTEX
  8
0
 10
196.787051
 20
454.897461
 42
0.033553
  0
VERTEX
  8
0
 10
199.861228
 20
461.180482
 42
0.004860
  0
VERTEX
  8
0
 10
201.063604
 20
464.206311
 42
0.006742
  0
VERTEX
  8
0
 10
202.077986
 20
466.942375
 42
0.004376
  0
VERTEX
  8
0
 10
202.875876
 20
469.250711
 42
0.081190
  0
VERTEX
  8
0
 10
203.000000
 20
470.010076
 42
0.327889
  0
VERTEX
  8
0
 10
202.634624
 20
470.507340
 42
0.057636
  0
VERTEX
  8
0
 10
201.423879
 20
470.738033
 42
0.033206
  0
VERTEX
  8
0
 10
199.404343
 20
470.751662
 42
0.009257
  0
VERTEX
  8
0
 10
196.250000
 20
470.504633
 42
0.020248
  0
VERTEX
  8
0
 10
189.236952
 20
469.536648
 42
0.032291
  0
VERTEX
  8
0
 10
183.363601
 20
468.085575
 42
0.038572
  0
VERTEX
  8
0
 10
178.708149
 20
466.205176
 42
0.075860
  0
VERTEX
  8
0
 10
175.448797
 20
463.915438
 42
0.000000
  0
VERTEX
  8
0
 10
172.397595
 20
460.993031
 42
0.000000
  0
VERTEX
  8
0
 10
170.570292
 20
466.074589
 42
-0.023782
  0
VERTEX
  8
0
 10
169.737216
 20
468.790359
 42
-0.034783
  0
VERTEX
  8
0
 10
169.288298
 20
471.249678
 42
-0.034410
  0
VERTEX
  8
0
 10
169.181947
 20
473.767306
 42
-0.022608
  0
VERTEX
  8
0
 10
169.390107
 20
476.662113
 42
0.000000
  0
VERTEX
  8
0
 10
170.037226
 20
482.168080
 42
0.000000
  0
VERTEX
  8
0
 10
164.268613
 20
478.937906
 42
0.001446
  0
VERTEX
  8
0
 10
161.806222
 20
477.549707
 42
0.001177
  0
VERTEX
  8
0
 10
159.176992
 20
476.049221
 42
0.001189
  0
VERTEX
  8
0
 10
156.762241
 20
474.655946
 42
0.003110
  0
VERTEX
  8
0
 10
155.036040
 20
473.640072
 42
0.000000
  0
VERTEX
  8
0
 10
151.572080
 20
471.572412
 42
0.000000
  0
VERTEX
  8
0
 10
154.477152
 20
475.381158
 42
-0.049536
  0
VERTEX
  8
0
 10
158.221544
 20
479.395707
 42
-0.012152
  0
VERTEX
  8
0
 10
165.155217
 20
485.199317
 42
-0.012117
  0
VERTEX
  8
0
 10
173.596681
 20
491.594912
 42
-0.010779
  0
VERTEX
  8
0
 10
182.669236
 20
497.836249
 42
0.024406
  0
VERTEX
  8
0
 10
190.569395
 20
503.594283
 42
0.053438
  0
VERTEX
  8
0
 10
195.856140
 20
508.881096
 42
0.062045
  0
VERTEX
  8
0
 10
199.417026
 20
514.628444
 42
0.045224
  0
VERTEX
  8
0
 10
201.928512
 20
521.720009
 42
0.001568
  0
VERTEX
  8
0
 10
202.722376
 20
524.870445
 42
0.002374
  0
VERTEX
  8
0
 10
203.391500
 20
527.617052
 42
0.000895
  0
VERTEX
  8
0
 10
203.951398
 20
529.982432
 42
0.057723
  0
VERTEX
  8
0
 10
204.000000
 20
530.402021
 42
0.486378
  0
VERTEX
  8
0
 10
203.808401
 20
530.552392
 42
0.010024
  0
VERTEX
  8
0
 10
202.457812
 20
530.193089
 42
0.015442
  0
VERTEX
  8
0
 10
200.763713
 20
529.648666
 42
0.008799
  0
VERTEX
  8
0
 10
198.750000
 20
528.892031
 42
-0.001503
  0
VERTEX
  8
0
 10
196.275666
 20
527.920888
 42
-0.000746
  0
VERTEX
  8
0
 10
193.132812
 20
526.703642
 42
-0.000740
  0
VERTEX
  8
0
 10
189.871481
 20
525.451648
 42
-0.001087
  0
VERTEX
  8
0
 10
187.000000
 20
524.361339
 42
0.000000
  0
VERTEX
  8
0
 10
180.500000
 20
521.909432
 42
0.000000
  0
VERTEX
  8
0
 10
185.257295
 20
526.746472
 42
0.059339
  0
VERTEX
  8
0
 10
189.477437
 20
532.200409
 42
0.040363
  0
VERTEX
  8
0
 10
192.959913
 20
539.241277
 42
0.035546
  0
VERTEX
  8
0
 10
195.650960
 20
547.712651
 42
0.025497
  0
VERTEX
  8
0
 10
197.484139
 20
557.479444
 42
0.000000
  0
VERTEX
  8
0
 10
198.840628
 20
567.500000
 42
0.000000
  0
VERTEX
  8
0
 10
195.755772
 20
577.769099
 42
0.007894
  0
VERTEX
  8
0
 10
193.730241
 20
584.144756
 42
0.049466
  0
VERTEX
  8
0
 10
192.330732
 20
587.259786
 42
0.065781
  0
VERTEX
  8
0
 10
190.505938
 20
589.647892
 42
0.019990
  0
VERTEX
  8
0
 10
187.156929
 20
592.748944
 42
0.062583
  0
VERTEX
  8
0
 10
179.610311
 20
597.714816
 42
0.056481
  0
VERTEX
  8
0
 10
170.806569
 20
600.870206
 42
0.058808
  0
VERTEX
  8
0
 10
161.910449
 20
601.887230
 42
0.084080
  0
VERTEX
  8
0
 10
154.098977
 20
600.534921
 42
-0.023093
  0
VERTEX
  8
0
 10
152.040134
 20
599.913786
 42
-0.043087
  0
VERTEX
  8
0
 10
150.322063
 20
599.635272
 42
-0.051774
  0
VERTEX
  8
0
 10
148.815753
 20
599.678765
 42
-0.057814
  0
VERTEX
  8
0
 10
147.408151
 20
600.034921
 42
0.067536
  0
VERTEX
  8
0
 10
143.931907
 20
600.843193
 42
0.051090
  0
VERTEX
  8
0
 10
140.009824
 20
600.809832
 42
0.040230
  0
VERTEX
  8
0
 10
135.346721
 20
599.908122
 42
0.019619
  0
VERTEX
  8
0
 10
129.572488
 20
598.054253
 42
-0.013924
  0
VERTEX
  8
0
 10
122.635837
 20
595.739728
 42
-0.013372
  0
VERTEX
  8
0
 10
115.487317
 20
593.780846
 42
-0.013393
  0
VERTEX
  8
0
 10
109.101159
 20
592.393392
 42
-0.046822
  0
VERTEX
  8
0
 10
104.909430
 20
592.000000
 42
-0.063527
  0
VERTEX
  8
0
 10
103.376089
 20
592.195605
 42
-0.017880
  0
VERTEX
  8
0
 10
101.060242
 20
592.885479
 42
-0.017721
  0
VERTEX
  8
0
 10
98.475343
 20
593.860560
 42
-0.017833
  0
VERTEX
  8
0
 10
95.971483
 20
595.014395
 42
0.000000
  0
VERTEX
  8
0
 10
90.000000
 20
598.028790
 42
0.000000
  0
VERTEX
  8
0
 10
90.059444
 20
591.264395
 42
0.021224
  0
VERTEX
  8
0
 10
90.227136
 20
587.993924
 42
0.020275
  0
VERTEX
  8
0
 10
90.672091
 20
584.698670
 42
0.020539
  0
VERTEX
  8
0
 10
91.374332
 20
581.495749
 42
0.023444
  0
VERTEX
  8
0
 10
92.312793
 20
578.502148
 42
0.018664
  0
VERTEX
  8
0
 10
93.716239
 20
575.068268
 42
0.065472
  0
VERTEX
  8
0
 10
94.974783
 20
573.043218
 42
0.070528
  0
VERTEX
  8
0
 10
96.663663
 20
571.491345
 42
0.024001
  0
VERTEX
  8
0
 10
99.503350
 20
569.733350
 42
0.018722
  0
VERTEX
  8
0
 10
102.285936
 20
568.323747
 42
0.050735
  0
VERTEX
  8
0
 10
104.376209
 20
567.607600
 42
0.058685
  0
VERTEX
  8
0
 10
106.386204
 20
567.382640
 42
0.032556
  0
VERTEX
  8
0
 10
108.850804
 20
567.557591
 42
0.000000
  0
VERTEX
  8
0
 10
113.201607
 20
568.152779
 42
0.000000
  0
VERTEX
  8
0
 10
112.370358
 20
563.826389
 42
0.030957
  0
VERTEX
  8
0
 10
111.773026
 20
559.182614
 42
0.044945
  0
VERTEX
  8
0
 10
111.871286
 20
555.054000
 42
0.039448
  0
VERTEX
  8
0
 10
112.733340
 20
550.630789
 42
0.017861
  0
VERTEX
  8
0
 10
114.518759
 20
545.000000
 42
-0.017662
  0
VERTEX
  8
0
 10
116.000286
 20
540.334039
 42
-0.037540
  0
VERTEX
  8
0
 10
116.741648
 20
536.621216
 42
-0.027682
  0
VERTEX
  8
0
 10
117.037407
 20
532.192943
 42
-0.005953
  0
VERTEX
  8
0
 10
117.033059
 20
524.500000
 42
0.008555
  0
VERTEX
  8
0
 10
117.060712
 20
518.539796
 42
0.011022
  0
VERTEX
  8
0
 10
117.300466
 20
513.068690
 42
0.012242
  0
VERTEX
  8
0
 10
117.732673
 20
508.296446
 42
0.023420
  0
VERTEX
  8
0
 10
118.351715
 20
504.500000
 42
-0.015677
  0
VERTEX
  8
0
 10
118.969351
 20
501.049378
 42
-0.006370
  0
VERTEX
  8
0
 10
119.602477
 20
496.318089
 42
-0.006295
  0
VERTEX
  8
0
 10
120.154774
 20
491.209650
 42
-0.007974
  0
VERTEX
  8
0
 10
120.530226
 20
486.476473
 42
-0.007755
  0
VERTEX
  8
0
 10
120.872171
 20
479.313312
 42
-0.043619
  0
VERTEX
  8
0
 10
120.661719
 20
475.490252
 42
-0.042626
  0
VERTEX
  8
0
 10
119.790629
 20
471.725455
 42
-0.007202
  0
VERTEX
  8
0
 10
117.416895
 20
464.726473
 42
-0.004441
  0
VERTEX
  8
0
 10
115.915933
 20
460.617956
 42
-0.007267
  0
VERTEX
  8
0
 10
114.562917
 20
457.167297
 42
-0.002169
  0
VERTEX
  8
0
 10
113.347090
 20
454.230811
 42
-0.329866
  0
VERTEX
  8
0
 10
113.052920
 20
454.055813
 42
-0.185606
  0
VERTEX
  8
0
 10
112.712977
 20
454.227483
 42
-0.003551
  0
VERTEX
  8
0
 10
111.374313
 20
455.726282
 42
-0.008095
  0
VERTEX
  8
0
 10
109.835552
 20
457.532059
 42
-0.005272
  0
VERTEX
  8
0
 10
108.114953
 20
459.664139
 42
-0.042349
  0
VERTEX
  8
0
 10
104.979781
 20
464.409929
 42
-0.080153
  0
VERTEX
  8
0
 10
103.458481
 20
468.721635
 42
-0.070750
  0
VERTEX
  8
0
 10
103.271366
 20
473.647816
 42
-0.026972
  0
VERTEX
  8
0
 10
104.349452
 20
480.447994
 42
0.052591
  0
VERTEX
  8
0
 10
105.181632
 20
488.263867
 42
0.041874
  0
VERTEX
  8
0
 10
104.480507
 20
496.721273
 42
0.036041
  0
VERTEX
  8
0
 10
102.198781
 20
506.107719
 42
0.022378
  0
VERTEX
  8
0
 10
98.253308
 20
516.742349
 42
0.003822
  0
VERTEX
  8
0
 10
96.391779
 20
521.052996
 42
0.006199
  0
VERTEX
  8
0
 10
94.736410
 20
524.684505
 42
0.001677
  0
VERTEX
  8
0
 10
93.256588
 20
527.799931
 42
0.284833
  0
VERTEX
  8
0
 10
92.955746
 20
527.992349
 42
0.235967
  0
VERTEX
  8
0
 10
92.438007
 20
527.742636
 42
0.000466
  0
VERTEX
  8
0
 10
86.681915
 20
520.280004
 42
0.003230
  0
VERTEX
  8
0
 10
81.559006
 20
513.535760
 42
0.015520
  0
VERTEX
  8
0
 10
78.787114
 20
509.587611
 42
-0.354991
  0
VERTEX
  8
0
 10
78.202828
 20
509.402064
 42
-0.049576
  0
VERTEX
  8
0
 10
76.989985
 20
510.023973
 42
-0.034749
  0
VERTEX
  8
0
 10
75.344149
 20
511.255399
 42
-0.014312
  0
VERTEX
  8
0
 10
73.287114
 20
513.135338
 42
0.025402
  0
VERTEX
  8
0
 10
70.879367
 20
515.239758
 42
0.011323
  0
VERTEX
  8
0
 10
67.512104
 20
517.772238
 42
0.011175
  0
VERTEX
  8
0
 10
63.820710
 20
520.296801
 42
0.014856
  0
VERTEX
  8
0
 10
60.349834
 20
522.414239
 42
-0.006825
  0
VERTEX
  8
0
 10
56.954220
 20
524.411646
 42
-0.006138
  0
VERTEX
  8
0
 10
53.491163
 20
526.571468
 42
-0.006162
  0
VERTEX
  8
0
 10
50.432844
 20
528.585013
 42
-0.019235
  0
VERTEX
  8
0
 10
48.446080
 20
530.042850
 42
0.009502
  0
VERTEX
  8
0
 10
45.615671
 20
532.205716
 42
0.175636
  0
VERTEX
  8
0
 10
44.550621
 20
532.518639
 42
0.491190
  0
VERTEX
  8
0
 10
44.189282
 20
531.985556
 42
0.027524
  0
VERTEX
  8
0
 10
45.031141
 20
529.830998
 42
-0.091161
  0
VERTEX
  8
0
 10
45.459858
 20
528.121427
 42
-0.044754
  0
VERTEX
  8
0
 10
45.402312
 20
525.870513
 42
-0.026676
  0
VERTEX
  8
0
 10
44.848611
 20
522.612576
 42
-0.006643
  0
VERTEX
  8
0
 10
43.589912
 20
517.354700
 42
0.000000
  0
VERTEX
  8
0
 10
41.042661
 20
507.305855
 42
0.000000
  0
VERTEX
  8
0
 10
43.064038
 20
499.902927
 42
0.000489
  0
VERTEX
  8
0
 10
43.874155
 20
496.947398
 42
0.000601
  0
VERTEX
  8
0
 10
44.636535
 20
494.189611
 42
0.000497
  0
VERTEX
  8
0
 10
45.282454
 20
491.872922
 42
0.004356
  0
VERTEX
  8
0
 10
45.578692
 20
490.848940
 42
-0.431760
  0
VERTEX
  8
0
 10
44.635136
 20
489.219337
 42
-0.055924
  0
VERTEX
  8
0
 10
40.167871
 20
488.684950
 42
-0.038019
  0
VERTEX
  8
0
 10
33.403354
 20
489.150234
 42
-0.019941
  0
VERTEX
  8
0
 10
25.107116
 20
490.698957
 42
0.004120
  0
VERTEX
  8
0
 10
21.062146
 20
491.587331
 42
0.006170
  0
VERTEX
  8
0
 10
17.514489
 20
492.290285
 42
0.002835
  0
VERTEX
  8
0
 10
14.492833
 20
492.832647
 42
0.124051
  0
VERTEX
  8
0
 10
13.854135
 20
492.784712
 42
0.510486
  0
VERTEX
  8
0
 10
13.728941
 20
492.387108
 42
0.001083
  0
VERTEX
  8
0
 10
18.188924
 20
486.410912
 42
0.005028
  0
VERTEX
  8
0
 10
23.428274
 20
479.566523
 42
0.002963
  0
VERTEX
  8
0
 10
29.818661
 20
471.489270
 42
0.003253
  0
VERTEX
  8
0
 10
39.446933
 20
459.625562
 42
0.015672
  0
VERTEX
  8
0
 10
45.176494
 20
453.087730
 42
0.025762
  0
VERTEX
  8
0
 10
49.824942
 20
448.595254
 42
0.023993
  0
VERTEX
  8
0
 10
55.018629
 20
444.490264
 42
-0.010184
  0
VERTEX
  8
0
 10
60.372099
 20
440.494058
 42
-0.058830
  0
VERTEX
  8
0
 10
62.880301
 20
438.017112
 42
-0.056950
  0
VERTEX
  8
0
 10
64.778129
 20
434.992487
 42
-0.009191
  0
VERTEX
  8
0
 10
67.670269
 20
428.656344
 42
-0.010349
  0
VERTEX
  8
0
 10
69.572641
 20
424.016793
 42
-0.005322
  0
VERTEX
  8
0
 10
71.772327
 20
418.133335
 42
-0.005286
  0
VERTEX
  8
0
 10
73.908497
 20
412.027919
 42
-0.007952
  0
VERTEX
  8
0
 10
75.629712
 20
406.656344
 42
0.020960
  0
VERTEX
  8
0
 10
81.173287
 20
390.788480
 42
0.043894
  0
VERTEX
  8
0
 10
87.040437
 20
379.115551
 42
0.053546
  0
VERTEX
  8
0
 10
93.968051
 20
370.198092
 42
0.052413
  0
VERTEX
  8
0
 10
102.677370
 20
362.883090
 42
0.047271
  0
VERTEX
  8
0
 10
110.594914
 20
358.563873
 42
0.050299
  0
VERTEX
  8
0
 10
119.021633
 20
355.916366
 42
0.036252
  0
VERTEX
  8
0
 10
129.900394
 20
354.478295
 42
0.011837
  0
VERTEX
  8
0
 10
146.087791
 20
353.906919
 42
0.000000
  0
VERTEX
  8
0
 10
164.675582
 20
353.691116
 42
0.000000
  0
VERTEX
  8
0
 10
179.682382
 20
363.595558
 42
0.015445
  0
VERTEX
  8
0
 10
189.886891
 20
370.792568
 42
0.024226
  0
VERTEX
  8
0
 10
198.140420
 20
377.654459
 42
0.028313
  0
VERTEX
  8
0
 10
204.572457
 20
384.259165
 42
0.044512
  0
VERTEX
  8
0
 10
209.213331
 20
390.670194
 42
-0.076098
  0
VERTEX
  8
0
 10
210.739613
 20
392.521294
 42
-0.042344
  0
VERTEX
  8
0
 10
213.081838
 20
394.282496
 42
-0.042568
  0
VERTEX
  8
0
 10
215.616573
 20
395.586092
 42
-0.097793
  0
VERTEX
  8
0
 10
217.712582
 20
396.000000
 42
-0.387712
  0
VERTEX
  8
0
 10
217.863057
 20
395.862676
 42
-0.015066
  0
VERTEX
  8
0
 10
217.913016
 20
395.047260
 42
-0.019963
  0
VERTEX
  8
0
 10
217.903740
 20
394.000262
 42
-0.011885
  0
VERTEX
  8
0
 10
217.813358
 20
392.756630
 42
-0.059961
  0
VERTEX
  8
0
 10
217.424601
 20
390.985710
 42
-0.082749
  0
VERTEX
  8
0
 10
216.644180
 20
389.560537
 42
-0.061590
  0
VERTEX
  8
0
 10
215.259235
 20
388.185926
 42
-0.019903
  0
VERTEX
  8
0
 10
212.901135
 20
386.506630
 42
0.037386
  0
VERTEX
  8
0
 10
206.900880
 20
381.909486
 42
0.009693
  0
VERTEX
  8
0
 10
197.971836
 20
373.626446
 42
0.006256
  0
VERTEX
  8
0
 10
189.216057
 20
364.968490
 42
0.104170
  0
VERTEX
  8
0
 10
187.016833
 20
361.544275
 42
0.056280
  0
VERTEX
  8
0
 10
186.306906
 20
358.774153
 42
0.031970
  0
VERTEX
  8
0
 10
186.048967
 20
355.319264
 42
0.030861
  0
VERTEX
  8
0
 10
186.215373
 20
352.065618
 42
0.113460
  0
VERTEX
  8
0
 10
186.895862
 20
350.134258
 42
0.232809
  0
VERTEX
  8
0
 10
187.676109
 20
349.657367
 42
0.099129
  0
VERTEX
  8
0
 10
188.925826
 20
349.790921
 42
0.043289
  0
VERTEX
  8
0
 10
190.936425
 20
350.618798
 42
0.008195
  0
VERTEX
  8
0
 10
194.432242
 20
352.499232
 42
-0.008245
  0
VERTEX
  8
0
 10
197.025208
 20
353.893679
 42
-0.013179
  0
VERTEX
  8
0
 10
199.288994
 20
354.988793
 42
-0.006971
  0
VERTEX
  8
0
 10
201.190290
 20
355.815762
 42
-0.304337
  0
VERTEX
  8
0
 10
201.597877
 20
355.735457
 42
-0.283629
  0
VERTEX
  8
0
 10
201.701949
 20
355.296233
 42
-0.002590
  0
VERTEX
  8
0
 10
200.581107
 20
351.972705
 42
-0.007745
  0
VERTEX
  8
0
 10
199.189226
 20
348.110989
 42
-0.004808
  0
VERTEX
  8
0
 10
197.442140
 20
343.620483
 42
0.000000
  0
VERTEX
  8
0
 10
192.791913
 20
332.000000
 42
0.000000
  0
VERTEX
  8
0
 10
181.921349
 20
332.000000
 42
0.000000
  0
VERTEX
  8
0
 10
171.050786
 20
332.000000
 42
0.000000
  0
VERTEX
  8
0
 10
170.775393
 20
316.250000
 42
0.000000
  0
VERTEX
  8
0
 10
170.500000
 20
300.500000
 42
0.000000
  0
VERTEX
  8
0
 10
166.005950
 20
299.900345
 42
-0.018303
  0
VERTEX
  8
0
 10
163.977565
 20
299.704922
 42
-0.011367
  0
VERTEX
  8
0
 10
161.587352
 20
299.617132
 42
-0.011401
  0
VERTEX
  8
0
 10
159.221562
 20
299.638002
 42
-0.020158
  0
VERTEX
  8
0
 10
157.274709
 20
299.778283
 42
0.000000
  0
VERTEX
  8
0
 10
153.037518
 20
300.255876
 42
0.000000
  0
VERTEX
  8
0
 10
155.670297
 20
303.377938
 42
0.063699
  0
VERTEX
  8
0
 10
159.063324
 20
308.632646
 42
0.076250
  0
VERTEX
  8
0
 10
160.768196
 20
314.265043
 42
0.076855
  0
VERTEX
  8
0
 10
160.699825
 20
320.113054
 42
0.066064
  0
VERTEX
  8
0
 10
158.897887
 20
326.000000
 42
-0.016565
  0
VERTEX
  8
0
 10
158.060607
 20
328.003534
 42
-0.011653
  0
VERTEX
  8
0
 10
157.247223
 20
330.307258
 42
-0.011775
  0
VERTEX
  8
0
 10
156.571532
 20
332.550586
 42
-0.024059
  0
VERTEX
  8
0
 10
156.168829
 20
334.343856
 42
0.000000
  0
VERTEX
  8
0
 10
155.497960
 20
338.187712
 42
0.000000
  0
VERTEX
  8
0
 10
143.164559
 20
325.093856
 42
-0.006135
  0
VERTEX
  8
0
 10
137.976397
 20
319.719484
 42
-0.011870
  0
VERTEX
  8
0
 10
133.675101
 20
315.573481
 42
-0.008260
  0
VERTEX
  8
0
 10
130.183539
 20
312.469143
 42
-0.179450
  0
VERTEX
  8
0
 10
128.918460
 20
312.000000
 42
-0.159441
  0
VERTEX
  8
0
 10
126.413995
 20
312.819462
 42
-0.034318
  0
VERTEX
  8
0
 10
122.879642
 20
315.802763
 42
-0.036435
  0
VERTEX
  8
0
 10
119.656959
 20
319.416219
 42
-0.084371
  0
VERTEX
  8
0
 10
117.961138
 20
322.617753
 42
0.022411
  0
VERTEX
  8
0
 10
117.461063
 20
323.931993
 42
0.036355
  0
VERTEX
  8
0
 10
116.908296
 20
324.990963
 42
0.041876
  0
VERTEX
  8
0
 10
116.380627
 20
325.703444
 42
0.310152
  0
VERTEX
  8
0
 10
115.992483
 20
325.801786
 42
0.134372
  0
VERTEX
  8
0
 10
115.500940
 20
325.450504
 42
0.003712
  0
VERTEX
  8
0
 10
113.845587
 20
323.385525
 42
0.007389
  0
VERTEX
  8
0
 10
111.938987
 20
320.895818
 42
0.004975
  0
VERTEX
  8
0
 10
109.832906
 20
318.000000
 42
-0.026969
  0
VERTEX
  8
0
 10
105.303920
 20
312.315927
 42
-0.077900
  0
VERTEX
  8
0
 10
101.427646
 20
309.125760
 42
-0.089642
  0
VERTEX
  8
0
 10
97.089137
 20
307.520835
 42
-0.043843
  0
VERTEX
  8
0
 10
91.195187
 20
307.001554
 42
-0.023875
  0
VERTEX
  8
0
 10
87.774222
 20
307.164156
 42
-0.031699
  0
VERTEX
  8
0
 10
84.698858
 20
307.656081
 42
-0.028960
  0
VERTEX
  8
0
 10
81.504517
 20
308.574260
 42
-0.015745
  0
VERTEX
  8
0
 10
77.695187
 20
310.048627
 42
-0.016119
  0
VERTEX
  8
0
 10
70.161853
 20
313.531021
 42
-0.055342
  0
VERTEX
  8
0
 10
65.648371
 20
316.461174
 42
-0.070966
  0
VERTEX
  8
0
 10
62.496268
 20
319.894517
 42
-0.039668
  0
VERTEX
  8
0
 10
59.664273
 20
324.820920
 42
-0.016577
  0
VERTEX
  8
0
 10
57.964956
 20
328.738388
 42
-0.040977
  0
VERTEX
  8
0
 10
57.057605
 20
331.732771
 42
-0.039123
  0
VERTEX
  8
0
 10
56.628170
 20
334.915699
 42
-0.013976
  0
VERTEX
  8
0
 10
56.500000
 20
339.500000
 42
-0.012380
  0
VERTEX
  8
0
 10
56.620620
 20
344.370979
 42
-0.052144
  0
VERTEX
  8
0
 10
57.067708
 20
347.256686
 42
-0.054969
  0
VERTEX
  8
0
 10
58.091512
 20
349.914149
 42
-0.014758
  0
VERTEX
  8
0
 10
60.291789
 20
353.874878
 42
0.008381
  0
VERTEX
  8
0
 10
61.710419
 20
356.353566
 42
0.013437
  0
VERTEX
  8
0
 10
62.827502
 20
358.519373
 42
0.007192
  0
VERTEX
  8
0
 10
63.672423
 20
360.337928
 42
0.310968
  0
VERTEX
  8
0
 10
63.599364
 20
360.733969
 42
0.397453
  0
VERTEX
  8
0
 10
61.616603
 20
360.791049
 42
0.019220
  0
VERTEX
  8
0
 10
56.418809
 20
355.788358
 42
0.027219
  0
VERTEX
  8
0
 10
51.322234
 20
349.878753
 42
0.051645
  0
VERTEX
  8
0
 10
48.019665
 20
344.540623
 42
0.050712
  0
VERTEX
  8
0
 10
45.398808
 20
337.349640
 42
0.066171
  0
VERTEX
  8
0
 10
44.589058
 20
330.401246
 42
0.043611
  0
VERTEX
  8
0
 10
45.511920
 20
321.499393
 42
0.010527
  0
VERTEX
  8
0
 10
48.625439
 20
307.000000
 42
-0.021135
  0
VERTEX
  8
0
 10
50.408393
 20
297.744798
 42
-0.025953
  0
VERTEX
  8
0
 10
51.253212
 20
288.985710
 42
-0.028750
  0
VERTEX
  8
0
 10
51.151735
 20
281.313563
 42
-0.059711
  0
VERTEX
  8
0
 10
50.022968
 20
275.444027
 42
-0.072049
  0
VERTEX
  8
0
 10
48.132911
 20
271.562276
 42
-0.042416
  0
VERTEX
  8
0
 10
44.874760
 20
267.547607
 42
-0.019966
  0
VERTEX
  8
0
 10
38.952738
 20
261.869929
 42
-0.002828
  0
VERTEX
  8
0
 10
26.250000
 20
250.756736
 42
0.002093
  0
VERTEX
  8
0
 10
20.020083
 20
245.322535
 42
0.003390
  0
VERTEX
  8
0
 10
14.773438
 20
240.643718
 42
0.000611
  0
VERTEX
  8
0
 10
10.185779
 20
236.486188
 42
0.211398
  0
VERTEX
  8
0
 10
10.000000
 20
236.066417
 42
0.211679
  0
VERTEX
  8
0
 10
10.151419
 20
235.724781
 42
0.015378
  0
VERTEX
  8
0
 10
10.954688
 20
235.040408
 42
0.019391
  0
VERTEX
  8
0
 10
12.004851
 20
234.264837
 42
0.013350
  0
VERTEX
  8
0
 10
13.250000
 20
233.465608
 42
0.053664
  0
VERTEX
  8
0
 10
15.386218
 20
232.468472
 42
0.045586
  0
VERTEX
  8
0
 10
17.806280
 20
231.880390
 42
0.029128
  0
VERTEX
  8
0
 10
21.143514
 20
231.582478
 42
0.007698
  0
VERTEX
  8
0
 10
26.500000
 20
231.500000
 42
0.007204
  0
VERTEX
  8
0
 10
30.537224
 20
231.558175
 42
0.008211
  0
VERTEX
  8
0
 10
34.398478
 20
231.732978
 42
0.007547
  0
VERTEX
  8
0
 10
37.666094
 20
231.984284
 42
0.045016
  0
VERTEX
  8
0
 10
39.345882
 20
232.293117
 42
0.000000
  0
VERTEX
  8
0
 10
42.191765
 20
233.086234
 42
0.000000
  0
VERTEX
  8
0
 10
38.132232
 20
228.271868
 42
0.021845
  0
VERTEX
  8
0
 10
36.465322
 20
226.110086
 42
0.016303
  0
VERTEX
  8
0
 10
34.813884
 20
223.592595
 42
0.016553
  0
VERTEX
  8
0
 10
33.411286
 20
221.113475
 42
0.035659
  0
VERTEX
  8
0
 10
32.536349
 20
219.103025
 42
0.060771
  0
VERTEX
  8
0
 10
31.579523
 20
214.779417
 42
0.016954
  0
VERTEX
  8
0
 10
31.145807
 20
207.848367
 42
0.017586
  0
VERTEX
  8
0
 10
31.192331
 20
200.776973
 42
0.045897
  0
VERTEX
  8
0
 10
31.868315
 20
195.742683
 42
0.000000
  0
VERTEX
  8
0
 10
32.500000
 20
192.985367
 42
0.000000
  0
VERTEX
  8
0
 10
40.227803
 20
197.944171
 42
0.020734
  0
VERTEX
  8
0
 10
47.051123
 20
202.733142
 42
0.035598
  0
VERTEX
  8
0
 10
52.251568
 20
207.336749
 42
0.042851
  0
VERTEX
  8
0
 10
56.000626
 20
211.884904
 42
0.061977
  0
VERTEX
  8
0
 10
58.402946
 20
216.500000
 42
-0.005858
  0
VERTEX
  8
0
 10
59.160811
 20
218.466412
 42
-0.007744
  0
VERTEX
  8
0
 10
59.899633
 20
220.238221
 42
-0.005787
  0
VERTEX
  8
0
 10
60.555867
 20
221.699362
 42
-0.072726
  0
VERTEX
  8
0
 10
60.886076
 20
222.204582
 42
-0.446151
  0
VERTEX
  8
0
 10
61.326200
 20
222.207842
 42
-0.009325
  0
VERTEX
  8
0
 10
62.940411
 20
220.368333
 42
-0.015247
  0
VERTEX
  8
0
 10
64.852362
 20
217.960564
 42
-0.008877
  0
VERTEX
  8
0
 10
67.004582
 20
214.964108
 42
0.005332
  0
VERTEX
  8
0
 10
69.159838
 20
211.918079
 42
0.008354
  0
VERTEX
  8
0
 10
71.084429
 20
209.350114
 42
0.003364
  0
VERTEX
  8
0
 10
72.768497
 20
207.209506
 42
0.224510
  0
VERTEX
  8
0
 10
73.176451
 20
207.009526
 42
0.254091
  0
VERTEX
  8
0
 10
73.541001
 20
207.200971
 42
0.009165
  0
VERTEX
  8
0
 10
74.421074
 20
208.570243
 42
0.014846
  0
VERTEX
  8
0
 10
75.414074
 20
210.291639
 42
0.009632
  0
VERTEX
  8
0
 10
76.463554
 20
212.335981
 42
0.057595
  0
VERTEX
  8
0
 10
78.728665
 20
218.740349
 42
0.041360
  0
VERTEX
  8
0
 10
79.805304
 20
226.259704
 42
0.041788
  0
VERTEX
  8
0
 10
79.625951
 20
233.736361
 42
0.064860
  0
VERTEX
  8
0
 10
78.112704
 20
240.000000
 42
-0.022877
  0
VERTEX
  8
0
 10
76.728731
 20
244.164521
 42
-0.047694
  0
VERTEX
  8
0
 10
76.117925
 20
247.525373
 42
-0.057770
  0
VERTEX
  8
0
 10
76.209923
 20
250.497041
 42
-0.054294
  0
VERTEX
  8
0
 10
76.975249
 20
253.434900
 42
-0.071101
  0
VERTEX
  8
0
 10
78.013444
 20
255.311667
 42
-0.276459
  0
VERTEX
  8
0
 10
79.194543
 20
255.789047
 42
-0.131097
  0
VERTEX
  8
0
 10
80.860926
 20
255.052778
 42
-0.014491
  0
VERTEX
  8
0
 10
84.061857
 20
252.325151
 42
-0.041803
  0
VERTEX
  8
0
 10
87.578014
 20
248.569881
 42
-0.064838
  0
VERTEX
  8
0
 10
89.855494
 20
244.765925
 42
-0.033273
  0
VERTEX
  8
0
 10
91.931043
 20
238.962325
 42
-0.004124
  0
VERTEX
  8
0
 10
95.495383
 20
226.017327
 42
0.004840
  0
VERTEX
  8
0
 10
97.412131
 20
219.094782
 42
0.005776
  0
VERTEX
  8
0
 10
99.357115
 20
212.608980
 42
0.005030
  0
VERTEX
  8
0
 10
101.112998
 20
207.182822
 42
0.037198
  0
VERTEX
  8
0
 10
102.164426
 20
204.677698
 42
0.048927
  0
VERTEX
  8
0
 10
104.507260
 20
201.018685
 42
0.013826
  0
VERTEX
  8
0
 10
108.846296
 20
195.814038
 42
0.007405
  0
VERTEX
  8
0
 10
113.491589
 20
190.700019
 42
0.207550
  0
VERTEX
  8
0
 10
115.105327
 20
190.000000
 42
0.406853
  0
VERTEX
  8
0
 10
115.422102
 20
190.308893
 42
0.002906
  0
VERTEX
  8
0
 10
115.501103
 20
194.384218
 42
0.008538
  0
VERTEX
  8
0
 10
115.484220
 20
199.202029
 42
0.005112
  0
VERTEX
  8
0
 10
115.307882
 20
204.924996
 42
-0.010036
  0
VERTEX
  8
0
 10
115.095715
 20
215.048162
 42
-0.039517
  0
VERTEX
  8
0
 10
115.582109
 20
221.262709
 42
-0.077153
  0
VERTEX
  8
0
 10
116.723957
 20
224.813868
 42
-0.283686
  0
VERTEX
  8
0
 10
118.646284
 20
226.000000
 42
-0.092634
  0
VERTEX
  8
0
 10
119.527140
 20
225.835393
 42
-0.007197
  0
VERTEX
  8
0
 10
121.759962
 20
224.933530
 42
-0.009635
  0
VERTEX
  8
0
 10
124.405304
 20
223.760000
 42
-0.007209
  0
VERTEX
  8
0
 10
127.274964
 20
222.369463
 42
-0.009879
  0
VERTEX
  8
0
 10
140.876253
 20
215.194914
 42
-0.027781
  0
VERTEX
  8
0
 10
149.984243
 20
209.475751
 42
-0.040118
  0
VERTEX
  8
0
 10
155.918883
 20
204.513034
 42
-0.100703
  0
VERTEX
  8
0
 10
159.058760
 20
199.858141
 42
0.161071
  0
VERTEX
  8
0
 10
160.639602
 20
198.026733
 42
0.494625
  0
VERTEX
  8
0
 10
161.928989
 20
198.540803
 42
0.046430
  0
VERTEX
  8
0
 10
162.891922
 20
203.834108
 42
0.004098
  0
VERTEX
  8
0
 10
163.965234
 20
217.399367
 42
0.023843
  0
VERTEX
  8
0
 10
164.332401
 20
233.302092
 42
0.061086
  0
VERTEX
  8
0
 10
162.653224
 20
244.673105
 42
0.074285
  0
VERTEX
  8
0
 10
158.545335
 20
253.948202
 42
0.050688
  0
VERTEX
  8
0
 10
151.404941
 20
263.025757
 42
0.000000
  0
VERTEX
  8
0
 10
144.765486
 20
269.903037
 42
0.000000
  0
VERTEX
  8
0
 10
147.632743
 20
270.593418
 42
0.056564
  0
VERTEX
  8
0
 10
153.489947
 20
272.726756
 42
0.071631
  0
VERTEX
  8
0
 10
158.222035
 20
276.001216
 42
0.059480
  0
VERTEX
  8
0
 10
162.445049
 20
280.978058
 42
0.026468
  0
VERTEX
  8
0
 10
166.814920
 20
288.403879
 42
0.000000
  0
VERTEX
  8
0
 10
170.500000
 20
295.500000
 42
0.000000
  0
VERTEX
  8
0
 10
171.000000
 20
188.000000
 42
0.000000
  0
VERTEX
  8
0
 10
171.500000
 20
80.500000
 42
0.000000
  0
VERTEX
  8
0
 10
175.114461
 20
75.000000
 42
0.053931
  0
VERTEX
  8
0
 10
183.763880
 20
64.502190
 42
0.047128
  0
VERTEX
  8
0
 10
194.834071
 20
55.555811
 42
0.039357
  0
VERTEX
  8
0
 10
209.201220
 20
47.579097
 42
0.021380
  0
VERTEX
  8
0
 10
227.925769
 20
39.982714
 42
0.011530
  0
VERTEX
  8
0
 10
240.230549
 20
35.910638
 42
0.016493
  0
VERTEX
  8
0
 10
251.329497
 20
32.915863
 42
0.014863
  0
VERTEX
  8
0
 10
263.432361
 20
30.451859
 42
0.007250
  0
VERTEX
  8
0
 10
279.000000
 20
27.993498
 42
-0.003705
  0
VERTEX
  8
0
 10
292.332366
 20
25.984902
 42
-0.020756
  0
VERTEX
  8
0
 10
299.406364
 20
24.562373
 42
-0.026834
  0
VERTEX
  8
0
 10
305.538241
 20
22.708433
 42
-0.008881
  0
VERTEX
  8
0
 10
314.324257
 20
19.350876
 42
0.000000
  0
VERTEX
  8
0
 10
328.148514
 20
13.784620
 42
0.000000
  0
VERTEX
  8
0
 10
332.097971
 20
16.958491
 42
-0.044092
  0
VERTEX
  8
0
 10
337.086458
 20
20.290030
 42
-0.029223
  0
VERTEX
  8
0
 10
343.313699
 20
23.238913
 42
-0.017606
  0
VERTEX
  8
0
 10
352.478706
 20
26.570097
 42
-0.004166
  0
VERTEX
  8
0
 10
368.000000
 20
31.457945
 42
0.006153
  0
VERTEX
  8
0
 10
390.866920
 20
38.759024
 42
0.011028
  0
VERTEX
  8
0
 10
409.429012
 20
45.396547
 42
0.013121
  0
VERTEX
  8
0
 10
423.915476
 20
51.380289
 42
0.036544
  0
VERTEX
  8
0
 10
433.614151
 20
56.566013
 42
0.047435
  0
VERTEX
  8
0
 10
438.073920
 20
60.019142
 42
0.025859
  0
VERTEX
  8
0
 10
442.874758
 20
65.015647
 42
0.025483
  0
VERTEX
  8
0
 10
447.285385
 20
70.666318
 42
0.035712
  0
VERTEX
  8
0
 10
450.578338
 20
76.154593
 42
0.000000
  0
VERTEX
  8
0
 10
453.000000
 20
80.933513
 42
0.000000
  0
VERTEX
  8
0
 10
453.000000
 20
206.466756
 42
0.000000
  0
VERTEX
  8
0
 10
453.000000
 20
332.000000
 42
0.000000
  0
VERTEX
  8
0
 10
425.202079
 20
332.000000
 42
0.000000
  0
VERTEX
  8
0
 10
397.404157
 20
332.000000
 42
0.000000
  0
VERTEX
  8
0
 10
396.275845
 20
340.939026
 42
0.026000
  0
VERTEX
  8
0
 10
394.904090
 20
348.583774
 42
0.050384
  0
VERTEX
  8
0
 10
392.893100
 20
354.450622
 42
0.037167
  0
VERTEX
  8
0
 10
389.353124
 20
360.851121
 42
0.008688
  0
VERTEX
  8
0
 10
382.456322
 20
371.000000
 42
-0.012665
  0
VERTEX
  8
0
 10
376.817709
 20
379.441057
 42
-0.015204
  0
VERTEX
  8
0
 10
371.963522
 20
387.665595
 42
-0.015395
  0
VERTEX
  8
0
 10
368.309409
 20
394.823824
 42
-0.065422
  0
VERTEX
  8
0
 10
366.843804
 20
399.390533
 42
-0.151431
  0
VERTEX
  8
0
 10
366.970745
 20
400.437237
 42
-0.080735
  0
VERTEX
  8
0
 10
367.694826
 20
401.536687
 42
-0.050754
  0
VERTEX
  8
0
 10
369.091007
 20
402.775804
 42
-0.017420
  0
VERTEX
  8
0
 10
371.340560
 20
404.280742
 42
0.000000
  0
VERTEX
  8
0
 10
376.181120
 20
407.280418
 42
0.000000
  0
VERTEX
  8
0
 10
379.046186
 20
404.390209
 42
-0.034955
  0
VERTEX
  8
0
 10
380.748487
 20
402.414297
 42
-0.113559
  0
VERTEX
  8
0
 10
381.441491
 20
400.841889
 42
-0.065242
  0
VERTEX
  8
0
 10
381.568270
 20
398.683400
 42
-0.006462
  0
VERTEX
  8
0
 10
381.128933
 20
393.500000
 42
0.010185
  0
VERTEX
  8
0
 10
380.785356
 20
389.053138
 42
0.036113
  0
VERTEX
  8
0
 10
380.829546
 20
386.194222
 42
0.048986
  0
VERTEX
  8
0
 10
381.269286
 20
383.851484
 42
0.032948
  0
VERTEX
  8
0
 10
382.201779
 20
381.291420
 42
0.012469
  0
VERTEX
  8
0
 10
382.980626
 20
379.637556
 42
0.015698
  0
VERTEX
  8
0
 10
383.786853
 20
378.149236
 42
0.013853
  0
VERTEX
  8
0
 10
384.527544
 20
376.956046
 42
0.108920
  0
VERTEX
  8
0
 10
384.992648
 20
376.504543
 42
0.386933
  0
VERTEX
  8
0
 10
386.258137
 20
376.741114
 42
0.027219
  0
VERTEX
  8
0
 10
388.450528
 20
379.993077
 42
0.033174
  0
VERTEX
  8
0
 10
390.413982
 20
383.835215
 42
0.066335
  0
VERTEX
  8
0
 10
391.334158
 20
387.113653
 42
-0.853377
  0
VERTEX
  8
0
 10
391.486750
 20
387.116207
 42
-0.036839
  0
VERTEX
  8
0
 10
391.601854
 20
385.980261
 42
-0.008796
  0
VERTEX
  8
0
 10
391.631934
 20
382.894956
 42
-0.003156
  0
VERTEX
  8
0
 10
391.569717
 20
378.500000
 42
0.000000
  0
VERTEX
  8
0
 10
391.324062
 20
366.500000
 42
0.000000
  0
VERTEX
  8
0
 10
395.251673
 20
360.250000
 42
0.010410
  0
VERTEX
  8
0
 10
396.827165
 20
357.855081
 42
0.015547
  0
VERTEX
  8
0
 10
398.311081
 20
355.835938
 42
0.010487
  0
VERTEX
  8
0
 10
399.608935
 20
354.250052
 42
0.219417
  0
VERTEX
  8
0
 10
400.151313
 20
354.000000
 42
0.246553
  0
VERTEX
  8
0
 10
400.655513
 20
354.264716
 42
0.013649
  0
VERTEX
  8
0
 10
401.657238
 20
355.805166
 42
0.018529
  0
VERTEX
  8
0
 10
402.773481
 20
357.790375
 42
0.012262
  0
VERTEX
  8
0
 10
403.912887
 20
360.145247
 42
-0.011733
  0
VERTEX
  8
0
 10
405.020210
 20
362.440000
 42
-0.022271
  0
VERTEX
  8
0
 10
406.035014
 20
364.222349
 42
-0.023449
  0
VERTEX
  8
0
 10
406.869195
 20
365.418391
 42
-0.533894
  0
VERTEX
  8
0
 10
407.219919
 20
365.395247
 42
-0.067741
  0
VERTEX
  8
0
 10
407.478525
 20
364.764039
 42
-0.004362
  0
VERTEX
  8
0
 10
407.961501
 20
362.830999
 42
-0.006308
  0
VERTEX
  8
0
 10
408.489626
 20
360.507509
 42
-0.004654
  0
VERTEX
  8
0
 10
409.017766
 20
357.923048
 42
0.000000
  0
VERTEX
  8
0
 10
410.298124
 20
351.346095
 42
0.000000
  0
VERTEX
  8
0
 10
418.541764
 20
348.041628
 42
0.010033
  0
VERTEX
  8
0
 10
422.836644
 20
346.419266
 42
0.030736
  0
VERTEX
  8
0
 10
425.826374
 20
345.560674
 42
0.044606
  0
VERTEX
  8
0
 10
428.193166
 20
345.253537
 42
0.056395
  0
VERTEX
  8
0
 10
430.392702
 20
345.413893
 42
0.024714
  0
VERTEX
  8
0
 10
432.503295
 20
345.918915
 42
0.145831
  0
VERTEX
  8
0
 10
433.447740
 20
346.529489
 42
0.150905
  0
VERTEX
  8
0
 10
433.886985
 20
347.546437
 42
0.027049
  0
VERTEX
  8
0
 10
434.000000
 20
349.633961
 42
0.058587
  0
VERTEX
  8
0
 10
433.764069
 20
351.640568
 42
0.061039
  0
VERTEX
  8
0
 10
433.069555
 20
353.508295
 42
0.044605
  0
VERTEX
  8
0
 10
431.747343
 20
355.584441
 42
0.015619
  0
VERTEX
  8
0
 10
429.500000
 20
358.321473
 42
-0.015687
  0
VERTEX
  8
0
 10
427.776934
 20
360.420575
 42
-0.019705
  0
VERTEX
  8
0
 10
426.321875
 20
362.473655
 42
-0.018214
  0
VERTEX
  8
0
 10
425.251621
 20
364.256169
 42
-0.126748
  0
VERTEX
  8
0
 10
425.000000
 20
365.232824
 42
-0.067712
  0
VERTEX
  8
0
 10
425.167639
 20
366.465029
 42
-0.372319
  0
VERTEX
  8
0
 10
425.682715
 20
366.808057
 42
-0.073962
  0
VERTEX
  8
0
 10
426.821980
 20
366.489113
 42
-0.002178
  0
VERTEX
  8
0
 10
431.371521
 20
364.430189
 42
0.032405
  0
VERTEX
  8
0
 10
435.255439
 20
362.948076
 42
0.076339
  0
VERTEX
  8
0
 10
438.315208
 20
362.493846
 42
0.143581
  0
VERTEX
  8
0
 10
440.232966
 20
363.066589
 42
0.254108
  0
VERTEX
  8
0
 10
441.000000
 20
364.478404
 42
0.064350
  0
VERTEX
  8
0
 10
440.893852
 20
365.299757
 42
0.006996
  0
VERTEX
  8
0
 10
440.381785
 20
367.142543
 42
0.008481
  0
VERTEX
  8
0
 10
439.701349
 20
369.326800
 42
0.006747
  0
VERTEX
  8
0
 10
438.895440
 20
371.661016
 42
0.036739
  0
VERTEX
  8
0
 10
437.333090
 20
375.165345
 42
0.043295
  0
VERTEX
  8
0
 10
435.345019
 20
378.203989
 42
0.028131
  0
VERTEX
  8
0
 10
432.233239
 20
381.736588
 42
0.006667
  0
VERTEX
  8
0
 10
426.645440
 20
387.254087
 42
0.007303
  0
VERTEX
  8
0
 10
420.960982
 20
392.561707
 42
0.026456
  0
VERTEX
  8
0
 10
417.126141
 20
395.685841
 42
0.037336
  0
VERTEX
  8
0
 10
413.724553
 20
397.799957
 42
0.028990
  0
VERTEX
  8
0
 10
409.750000
 20
399.591512
 42
-0.011942
  0
VERTEX
  8
0
 10
406.452096
 20
400.944828
 42
-0.043602
  0
VERTEX
  8
0
 10
404.469996
 20
402.028773
 42
-0.076657
  0
VERTEX
  8
0
 10
403.371234
 20
403.033244
 42
-0.170933
  0
VERTEX
  8
0
 10
403.000000
 20
404.087425
 42
-0.078500
  0
VERTEX
  8
0
 10
403.118054
 20
404.834727
 42
-0.096370
  0
VERTEX
  8
0
 10
403.459571
 20
405.451771
 42
-0.105693
  0
VERTEX
  8
0
 10
403.978021
 20
405.856257
 42
-0.113467
  0
VERTEX
  8
0
 10
404.603278
 20
406.000000
 42
-0.140689
  0
VERTEX
  8
0
 10
405.666188
 20
405.694881
 42
-0.003910
  0
VERTEX
  8
0
 10
409.744317
 20
403.098688
 42
-0.007738
  0
VERTEX
  8
0
 10
414.507706
 20
399.907928
 42
-0.005202
  0
VERTEX
  8
0
 10
419.853278
 20
396.123193
 42
0.005323
  0
VERTEX
  8
0
 10
433.477700
 20
386.481871
 42
0.013233
  0
VERTEX
  8
0
 10
443.701918
 20
379.801820
 42
0.017679
  0
VERTEX
  8
0
 10
452.135935
 20
375.007355
 42
0.025215
  0
VERTEX
  8
0
 10
459.960211
 20
371.408214
 42
0.000000
  0
VERTEX
  8
0
 10
468.946001
 20
367.811715
 42
0.000000
  0
VERTEX
  8
0
 10
479.223001
 20
369.526423
 42
0.007306
  0
VERTEX
  8
0
 10
483.450912
 20
370.295500
 42
0.007298
  0
VERTEX
  8
0
 10
487.656131
 20
371.188045
 42
0.007174
  0
VERTEX
  8
0
 10
491.303998
 20
372.073338
 42
0.028450
  0
VERTEX
  8
0
 10
493.500000
 20
372.775121
 42
0.056405
  0
VERTEX
  8
0
 10
499.863764
 20
376.079202
 42
0.016271
  0
VERTEX
  8
0
 10
508.870967
 20
382.565741
 42
0.016395
  0
VERTEX
  8
0
 10
518.456151
 20
390.467861
 42
0.018611
  0
VERTEX
  8
0
 10
527.091815
 20
398.666660
 42
0.006210
  0
VERTEX
  8
0
 10
533.407722
 20
405.289169
 42
0.031774
  0
VERTEX
  8
0
 10
536.624876
 20
409.221013
 42
0.042561
  0
VERTEX
  8
0
 10
538.874847
 20
412.998824
 42
0.017077
  0
VERTEX
  8
0
 10
541.317927
 20
418.500000
 42
0.015264
  0
VERTEX
  8
0
 10
542.978571
 20
423.003701
 42
0.016339
  0
VERTEX
  8
0
 10
544.320614
 20
427.500000
 42
0.016633
  0
VERTEX
  8
0
 10
545.345547
 20
431.996300
 42
0.017211
  0
VERTEX
  8
0
 10
546.055914
 20
436.500000
 42
-0.027150
  0
VERTEX
  8
0
 10
547.726333
 20
445.875926
 42
-0.051192
  0
VERTEX
  8
0
 10
550.235151
 20
453.131866
 42
-0.052628
  0
VERTEX
  8
0
 10
554.112748
 20
459.595590
 42
-0.030421
  0
VERTEX
  8
0
 10
560.003368
 20
466.500000
 42
0.009429
  0
VERTEX
  8
0
 10
567.752038
 20
474.846089
 42
0.017701
  0
VERTEX
  8
0
 10
573.638922
 20
481.920383
 42
0.020541
  0
VERTEX
  8
0
 10
578.389330
 20
488.608826
 42
0.020045
  0
VERTEX
  8
0
 10
582.616157
 20
495.718077
 42
-0.017775
  0
VERTEX
  8
0
 10
585.097132
 20
499.934361
 42
-0.016153
  0
VERTEX
  8
0
 10
587.947881
 20
504.103827
 42
-0.016125
  0
VERTEX
  8
0
 10
591.067579
 20
508.088302
 42
-0.017535
  0
VERTEX
  8
0
 10
594.354928
 20
511.750000
 42
0.009498
  0
VERTEX
  8
0
 10
596.934756
 20
514.532337
 42
0.018394
  0
VERTEX
  8
0
 10
598.869891
 20
516.868093
 42
0.018642
  0
VERTEX
  8
0
 10
600.118540
 20
518.625268
 42
0.598290
  0
VERTEX
  8
0
 10
599.918999
 20
518.992446
 42
0.040443
  0
VERTEX
  8
0
 10
596.181466
 20
518.669598
 42
0.008213
  0
VERTEX
  8
0
 10
589.636898
 20
517.455447
 42
0.008805
  0
VERTEX
  8
0
 10
582.220212
 20
515.816620
 42
0.009298
  0
VERTEX
  8
0
 10
575.000000
 20
513.944714
 42
-0.001889
  0
VERTEX
  8
0
 10
570.915086
 20
512.820819
 42
-0.002824
  0
VERTEX
  8
0
 10
567.336150
 20
511.872334
 42
-0.001188
  0
VERTEX
  8
0
 10
564.268477
 20
511.085634
 42
-0.060302
  0
VERTEX
  8
0
 10
563.654978
 20
511.006547
 42
-0.499517
  0
VERTEX
  8
0
 10
563.469170
 20
511.249942
 42
-0.026353
  0
VERTEX
  8
0
 10
563.834699
 20
512.326950
 42
-0.024483
  0
VERTEX
  8
0
 10
564.499212
 20
513.780322
 42
-0.013074
  0
VERTEX
  8
0
 10
565.453421
 20
515.510731
 42
0.022387
  0
VERTEX
  8
0
 10
566.904528
 20
518.262176
 42
0.065499
  0
VERTEX
  8
0
 10
567.556951
 20
520.300678
 42
0.057925
  0
VERTEX
  8
0
 10
567.700893
 20
522.574615
 42
0.014770
  0
VERTEX
  8
0
 10
567.397793
 20
526.260731
 42
0.019496
  0
VERTEX
  8
0
 10
566.985472
 20
528.978420
 42
0.013841
  0
VERTEX
  8
0
 10
566.320954
 20
531.989090
 42
0.014002
  0
VERTEX
  8
0
 10
565.525201
 20
534.832029
 42
0.028638
  0
VERTEX
  8
0
 10
564.713662
 20
537.000000
 42
-0.031006
  0
VERTEX
  8
0
 10
563.907459
 20
539.185155
 42
-0.014672
  0
VERTEX
  8
0
 10
563.128788
 20
542.087500
 42
-0.014478
  0
VERTEX
  8
0
 10
562.489135
 20
545.182219
 42
-0.019840
  0
VERTEX
  8
0
 10
562.105851
 20
548.000000
 42
0.000000
  0
VERTEX
  8
0
 10
561.483081
 20
554.500000
 42
0.000000
  0
VERTEX
  8
0
 10
558.568048
 20
550.188641
 42
-0.045885
  0
VERTEX
  8
0
 10
556.714280
 20
547.925236
 42
-0.021447
  0
VERTEX
  8
0
 10
553.939030
 20
545.339965
 42
-0.018308
  0
VERTEX
  8
0
 10
550.362974
 20
542.504063
 42
-0.011628
  0
VERTEX
  8
0
 10
546.007458
 20
539.455973
 42
0.006594
  0
VERTEX
  8
0
 10
540.321408
 20
535.561423
 42
0.042308
  0
VERTEX
  8
0
 10
537.652090
 20
533.320855
 42
0.074498
  0
VERTEX
  8
0
 10
536.101540
 20
531.234882
 42
0.047248
  0
VERTEX
  8
0
 10
534.930950
 20
528.435524
 42
0.000000
  0
VERTEX
  8
0
 10
533.500000
 20
523.836382
 42
0.000000
  0
VERTEX
  8
0
 10
529.579708
 20
531.662759
 42
-0.015946
  0
VERTEX
  8
0
 10
527.986435
 20
535.114164
 42
-0.016449
  0
VERTEX
  8
0
 10
526.634012
 20
538.624964
 42
-0.017363
  0
VERTEX
  8
0
 10
525.644733
 20
541.822112
 42
-0.042417
  0
VERTEX
  8
0
 10
525.202478
 20
544.244568
 42
0.008251
  0
VERTEX
  8
0
 10
524.996876
 20
546.067766
 42
0.013515
  0
VERTEX
  8
0
 10
524.755678
 20
547.603092
 42
0.007129
  0
VERTEX
  8
0
 10
524.506271
 20
548.851972
 42
0.353576
  0
VERTEX
  8
0
 10
524.323111
 20
549.000000
 42
0.102373
  0
VERTEX
  8
0
 10
524.043119
 20
548.942066
 42
0.004533
  0
VERTEX
  8
0
 10
523.131744
 20
548.538199
 42
0.007493
  0
VERTEX
  8
0
 10
522.055998
 20
548.030198
 42
0.005269
  0
VERTEX
  8
0
 10
520.860595
 20
547.427911
 42
0.070112
  0
VERTEX
  8
0
 10
519.252917
 20
546.286852
 42
0.047562
  0
VERTEX
  8
0
 10
517.772734
 20
544.594108
 42
0.035049
  0
VERTEX
  8
0
 10
516.269050
 20
542.160060
 42
0.014471
  0
VERTEX
  8
0
 10
514.568155
 20
538.677911
 42
0.049135
  0
VERTEX
  8
0
 10
511.988410
 20
531.078060
 42
0.028021
  0
VERTEX
  8
0
 10
510.317147
 20
521.515518
 42
0.026104
  0
VERTEX
  8
0
 10
509.627224
 20
510.883579
 42
0.024444
  0
VERTEX
  8
0
 10
510.022192
 20
500.000000
 42
-0.024699
  0
VERTEX
  8
0
 10
510.299020
 20
492.262964
 42
-0.014428
  0
VERTEX
  8
0
 10
509.904906
 20
482.990371
 42
-0.008541
  0
VERTEX
  8
0
 10
509.124155
 20
474.182511
 42
-0.159467
  0
VERTEX
  8
0
 10
507.998176
 20
471.673025
 42
-0.415042
  0
VERTEX
  8
0
 10
506.350323
 20
471.597252
 42
-0.026506
  0
VERTEX
  8
0
 10
502.615810
 20
475.395515
 42
-0.031440
  0
VERTEX
  8
0
 10
498.786508
 20
480.318566
 42
-0.040154
  0
VERTEX
  8
0
 10
495.941886
 20
485.310492
 42
0.000000
  0
VERTEX
  8
0
 10
492.811978
 20
491.998952
 42
0.000000
  0
VERTEX
  8
0
 10
493.812648
 20
515.098757
 42
0.001780
  0
VERTEX
  8
0
 10
494.414885
 20
530.248116
 42
0.020686
  0
VERTEX
  8
0
 10
494.384077
 20
536.179931
 42
0.045167
  0
VERTEX
  8
0
 10
493.810481
 20
540.345698
 42
0.025191
  0
VERTEX
  8
0
 10
492.406659
 20
545.274433
 42
-0.020510
  0
VERTEX
  8
0
 10
490.600308
 20
551.398307
 42
-0.070621
  0
VERTEX
  8
0
 10
490.168085
 20
555.506964
 42
-0.095154
  0
VERTEX
  8
0
 10
490.945086
 20
558.887323
 42
-0.058082
  0
VERTEX
  8
0
 10
493.027820
 20
562.428139
 42
0.027540
  0
VERTEX
  8
0
 10
494.570740
 20
564.719281
 42
0.058754
  0
VERTEX
  8
0
 10
495.440355
 20
566.665394
 42
0.054749
  0
VERTEX
  8
0
 10
495.867677
 20
568.846547
 42
0.021190
  0
VERTEX
  8
0
 10
495.996262
 20
571.928139
 42
0.022476
  0
VERTEX
  8
0
 10
495.873904
 20
574.608629
 42
0.032960
  0
VERTEX
  8
0
 10
495.506257
 20
576.939258
 42
0.036988
  0
VERTEX
  8
0
 10
494.884193
 20
578.976934
 42
0.044350
  0
VERTEX
  8
0
 10
493.996262
 20
580.774170
 42
-0.006006
  0
VERTEX
  8
0
 10
493.231457
 20
582.063148
 42
-0.008579
  0
VERTEX
  8
0
 10
492.586402
 20
583.226327
 42
-0.005239
  0
VERTEX
  8
0
 10
492.074087
 20
584.213515
 42
-0.117594
  0
VERTEX
  8
0
 10
492.000000
 20
584.524170
 42
-0.363207
  0
VERTEX
  8
0
 10
492.157681
 20
584.712602
 42
-0.013684
  0
VERTEX
  8
0
 10
493.135352
 20
584.860225
 42
-0.019070
  0
VERTEX
  8
0
 10
494.383190
 20
584.965744
 42
-0.011557
  0
VERTEX
  8
0
 10
495.865029
 20
585.000000
 42
0.051241
  0
VERTEX
  8
0
 10
498.000352
 20
585.219410
 42
0.045022
  0
VERTEX
  8
0
 10
500.145641
 20
585.870751
 42
0.035967
  0
VERTEX
  8
0
 10
502.535360
 20
587.044796
 42
0.016934
  0
VERTEX
  8
0
 10
505.446908
 20
588.880032
 42
0.067732
  0
VERTEX
  8
0
 10
511.142186
 20
593.992703
 42
0.093644
  0
VERTEX
  8
0
 10
514.529990
 20
599.947521
 42
0.078180
  0
VERTEX
  8
0
 10
515.868565
 20
607.541905
 42
0.034505
  0
VERTEX
  8
0
 10
515.352017
 20
617.750000
 42
0.019868
  0
VERTEX
  8
0
 10
515.028840
 20
619.761890
 42
0.030954
  0
VERTEX
  8
0
 10
514.576066
 20
621.457813
 42
0.031670
  0
VERTEX
  8
0
 10
514.070198
 20
622.702248
 42
0.287927
  0
VERTEX
  8
0
 10
513.596003
 20
623.000000
 42
0.152922
  0
VERTEX
  8
0
 10
512.952865
 20
622.798590
 42
0.014396
  0
VERTEX
  8
0
 10
511.605180
 20
621.804001
 42
0.017391
  0
VERTEX
  8
0
 10
510.040626
 20
620.487952
 42
0.012820
  0
SEQEND
  0
POLYLINE
  8
0
 66
1
 70
1
  0
VERTEX
  8
0
 10
263.709126
 20
381.382884
 42
0.000000
  0
VERTEX
  8
0
 10
267.290784
 20
375.988517
 42
0.000000
  0
VERTEX
  8
0
 10
264.197398
 20
369.244259
 42
0.022801
  0
VERTEX
  8
0
 10
261.600985
 20
362.826655
 42
0.016847
  0
VERTEX
  8
0
 10
259.299143
 20
355.519221
 42
0.016937
  0
VERTEX
  8
0
 10
257.511462
 20
348.137451
 42
0.024419
  0
VERTEX
  8
0
 10
256.475006
 20
341.500000
 42
-0.027186
  0
VERTEX
  8
0
 10
255.415863
 20
334.954872
 42
-0.247805
  0
VERTEX
  8
0
 10
253.614194
 20
332.818511
 42
-0.093939
  0
VERTEX
  8
0
 10
249.925673
 20
332.082197
 42
-0.002426
  0
VERTEX
  8
0
 10
232.987936
 20
332.000000
 42
0.000000
  0
VERTEX
  8
0
 10
211.110647
 20
332.000000
 42
0.000000
  0
VERTEX
  8
0
 10
213.696624
 20
337.648517
 42
0.026543
  0
VERTEX
  8
0
 10
214.928965
 20
340.767714
 42
0.026128
  0
VERTEX
  8
0
 10
215.831323
 20
344.016254
 42
0.023139
  0
VERTEX
  8
0
 10
216.469600
 20
347.681144
 42
0.013892
  0
VERTEX
  8
0
 10
216.903499
 20
352.077382
 42
-0.006189
  0
VERTEX
  8
0
 10
217.187116
 20
355.487637
 42
-0.009206
  0
VERTEX
  8
0
 10
217.527148
 20
358.463643
 42
-0.004920
  0
VERTEX
  8
0
 10
217.882778
 20
360.950932
 42
-0.159723
  0
VERTEX
  8
0
 10
218.154659
 20
361.487992
 42
-0.406068
  0
VERTEX
  8
0
 10
218.532997
 20
361.493269
 42
-0.031511
  0
VERTEX
  8
0
 10
219.292308
 20
360.678676
 42
-0.029173
  0
VERTEX
  8
0
 10
220.193105
 20
359.440506
 42
-0.016553
  0
VERTEX
  8
0
 10
221.142460
 20
357.847828
 42
0.052927
  0
VERTEX
  8
0
 10
223.154094
 20
354.970730
 42
0.031868
  0
VERTEX
  8
0
 10
226.084416
 20
352.006538
 42
0.029203
  0
VERTEX
  8
0
 10
229.095631
 20
349.625591
 42
0.153860
  0
VERTEX
  8
0
 10
231.080496
 20
349.000000
 42
0.332835
  0
VERTEX
  8
0
 10
232.217793
 20
349.851379
 42
0.041133
  0
VERTEX
  8
0
 10
232.883394
 20
353.079005
 42
0.027643
  0
VERTEX
  8
0
 10
233.225776
 20
358.268766
 42
0.008134
  0
VERTEX
  8
0
 10
233.180594
 20
366.250000
 42
-0.005876
  0
VERTEX
  8
0
 10
233.130844
 20
371.138761
 42
-0.009796
  0
VERTEX
  8
0
 10
233.217968
 20
375.254162
 42
-0.003807
  0
VERTEX
  8
0
 10
233.384802
 20
378.700393
 42
-0.398557
  0
VERTEX
  8
0
 10
233.700486
 20
378.998212
 42
-0.212361
  0
VERTEX
  8
0
 10
234.140015
 20
378.801540
 42
-0.012819
  0
VERTEX
  8
0
 10
235.100231
 20
377.675121
 42
-0.017377
  0
VERTEX
  8
0
 10
236.195569
 20
376.220825
 42
-0.011833
  0
VERTEX
  8
0
 10
237.342855
 20
374.496582
 42
0.019161
  0
VERTEX
  8
0
 10
238.499078
 20
372.812930
 42
0.030944
  0
VERTEX
  8
0
 10
239.621293
 20
371.485854
 42
0.032099
  0
VERTEX
  8
0
 10
240.587371
 20
370.598761
 42
0.318179
  0
VERTEX
  8
0
 10
241.107145
 20
370.566219
 42
0.097255
  0
VERTEX
  8
0
 10
241.574637
 20
370.999532
 42
0.012988
  0
VERTEX
  8
0
 10
242.341211
 20
372.111780
 42
0.014619
  0
VERTEX
  8
0
 10
243.186494
 20
373.495937
 42
0.011815
  0
VERTEX
  8
0
 10
244.014290
 20
375.028011
 42
0.068348
  0
VERTEX
  8
0
 10
245.360651
 20
378.892289
 42
0.043563
  0
VERTEX
  8
0
 10
245.892113
 20
383.630237
 42
0.033897
  0
VERTEX
  8
0
 10
245.637556
 20
389.528095
 42
0.016448
  0
VERTEX
  8
0
 10
244.555664
 20
397.000000
 42
0.000000
  0
VERTEX
  8
0
 10
243.216541
 20
404.500000
 42
0.000000
  0
VERTEX
  8
0
 10
251.672004
 20
395.638626
 42
-0.008057
  0
VERTEX
  8
0
 10
255.171877
 20
391.850367
 42
-0.007130
  0
VERTEX
  8
0
 10
258.695787
 20
387.795685
 42
-0.007178
  0
VERTEX
  8
0
 10
261.765355
 20
384.052645
 42
-0.021598
  0
SEQEND
  0
POLYLINE
  8
0
 66
1
 70
1
  0
VERTEX
  8
0
 10
347.500000
 20
353.119269
 42
-0.040111
  0
VERTEX
  8
0
 10
351.031393
 20
351.140899
 42
-0.080897
  0
VERTEX
  8
0
 10
353.354647
 20
348.966649
 42
-0.072960
  0
VERTEX
  8
0
 10
355.010705
 20
346.015802
 42
-0.027743
  0
VERTEX
  8
0
 10
356.455210
 20
341.510653
 42
-0.026303
  0
VERTEX
  8
0
 10
357.797993
 20
334.960941
 42
-0.330186
  0
VERTEX
  8
0
 10
356.681820
 20
332.859293
 42
-0.109210
  0
VERTEX
  8
0
 10
353.315510
 20
332.081044
 42
-0.002410
  0
VERTEX
  8
0
 10
336.500000
 20
332.000000
 42
0.000000
  0
VERTEX
  8
0
 10
315.000000
 20
332.000000
 42
0.000000
  0
VERTEX
  8
0
 10
315.000000
 20
336.532119
 42
-0.042445
  0
VERTEX
  8
0
 10
315.323534
 20
340.336458
 42
-0.046642
  0
VERTEX
  8
0
 10
316.284851
 20
343.908485
 42
-0.050251
  0
VERTEX
  8
0
 10
317.794796
 20
346.982895
 42
-0.071736
  0
VERTEX
  8
0
 10
319.750938
 20
349.304492
 42
-0.095598
  0
VERTEX
  8
0
 10
325.312667
 20
352.614071
 42
-0.052435
  0
VERTEX
  8
0
 10
333.037327
 20
354.515822
 42
-0.052213
  0
VERTEX
  8
0
 10
341.051031
 20
354.774640
 42
-0.089849
  0
SEQEND
  0
POLYLINE
  8
0
 66
1
 70
1
  0
VERTEX
  8
0
 10
355.937109
 20
321.000000
 42
-0.120878
  0
VERTEX
  8
0
 10
358.744707
 20
320.311180
 42
-0.140299
  0
VERTEX
  8
0
 10
360.732700
 20
318.421850
 42
-0.110388
  0
VERTEX
  8
0
 10
361.720017
 20
315.362547
 42
-0.057188
  0
VERTEX
  8
0
 10
361.631369
 20
311.327195
 42
0.020625
  0
VERTEX
  8
0
 10
361.429535
 20
309.208401
 42
0.038589
  0
VERTEX
  8
0
 10
361.469827
 20
307.487673
 42
0.049106
  0
VERTEX
  8
0
 10
361.739769
 20
306.146942
 42
0.099705
  0
VERTEX
  8
0
 10
362.249063
 20
305.204784
 42
-0.116950
  0
VERTEX
  8
0
 10
362.772840
 20
304.151524
 42
-0.012633
  0
VERTEX
  8
0
 10
363.325781
 20
301.470238
 42
-0.014961
  0
VERTEX
  8
0
 10
363.814509
 20
298.196363
 42
-0.011528
  0
VERTEX
  8
0
 10
364.157851
 20
294.601192
 42
0.001445
  0
VERTEX
  8
0
 10
364.458278
 20
290.605528
 42
0.001020
  0
VERTEX
  8
0
 10
364.818009
 20
286.117225
 42
0.001029
  0
VERTEX
  8
0
 10
365.179537
 20
281.827356
 42
0.002170
  0
VERTEX
  8
0
 10
365.481404
 20
278.500000
 42
-0.020469
  0
VERTEX
  8
0
 10
365.699853
 20
274.449770
 42
-0.030912
  0
VERTEX
  8
0
 10
365.527403
 20
270.922695
 42
-0.025519
  0
VERTEX
  8
0
 10
364.885568
 20
266.987690
 42
-0.009351
  0
VERTEX
  8
0
 10
363.592484
 20
261.500000
 42
-0.004506
  0
VERTEX
  8
0
 10
362.628255
 20
257.862566
 42
-0.013491
  0
VERTEX
  8
0
 10
361.880076
 20
255.401417
 42
-0.077118
  0
VERTEX
  8
0
 10
361.526066
 20
254.714786
 42
-0.762801
  0
VERTEX
  8
0
 10
361.350350
 20
254.781418
 42
0.053493
  0
VERTEX
  8
0
 10
361.325922
 20
256.826859
 42
0.623421
  0
VERTEX
  8
0
 10
360.752575
 20
257.027768
 42
0.092435
  0
VERTEX
  8
0
 10
359.682466
 20
255.492000
 42
0.009530
  0
VERTEX
  8
0
 10
357.934554
 20
251.416593
 42
-0.013285
  0
VERTEX
  8
0
 10
356.682137
 20
248.555969
 42
-0.768219
  0
VERTEX
  8
0
 10
356.327166
 20
248.620036
 42
-0.065869
  0
VERTEX
  8
0
 10
356.407771
 20
250.249195
 42
-0.002492
  0
VERTEX
  8
0
 10
357.536779
 20
256.250000
 42
0.041861
  0
VERTEX
  8
0
 10
357.883950
 20
259.473680
 42
0.659472
  0
VERTEX
  8
0
 10
357.148997
 20
259.809319
 42
0.111157
  0
VERTEX
  8
0
 10
355.726850
 20
257.782213
 42
0.015559
  0
VERTEX
  8
0
 10
353.915613
 20
252.959356
 42
-0.002696
  0
VERTEX
  8
0
 10
352.320758
 20
248.356277
 42
-0.085026
  0
VERTEX
  8
0
 10
351.739108
 20
247.312920
 42
-0.567268
  0
VERTEX
  8
0
 10
351.268637
 20
247.378944
 42
-0.036469
  0
VERTEX
  8
0
 10
350.721491
 20
248.994995
 42
0.060086
  0
VERTEX
  8
0
 10
349.872472
 20
251.160945
 42
0.474859
  0
VERTEX
  8
0
 10
348.952258
 20
251.338420
 42
0.189476
  0
VERTEX
  8
0
 10
348.181966
 20
249.928883
 42
0.029302
  0
VERTEX
  8
0
 10
347.964565
 20
246.690983
 42
-0.002739
  0
VERTEX
  8
0
 10
347.924921
 20
243.845852
 42
-0.171623
  0
VERTEX
  8
0
 10
347.750884
 20
243.382560
 42
-0.514482
  0
VERTEX
  8
0
 10
347.464067
 20
243.405212
 42
-0.008800
  0
VERTEX
  8
0
 10
346.542354
 20
245.000000
 42
0.008637
  0
VERTEX
  8
0
 10
345.600591
 20
246.630702
 42
0.467287
  0
VERTEX
  8
0
 10
345.289253
 20
246.679517
 42
0.191789
  0
VERTEX
  8
0
 10
345.070393
 20
246.251919
 42
0.003083
  0
VERTEX
  8
0
 10
344.827790
 20
243.500000
 42
-0.019853
  0
VERTEX
  8
0
 10
344.575523
 20
241.433380
 42
-0.090588
  0
VERTEX
  8
0
 10
344.171375
 20
240.297563
 42
-0.159036
  0
VERTEX
  8
0
 10
343.519448
 20
239.710807
 42
-0.104731
  0
VERTEX
  8
0
 10
342.524066
 20
239.500000
 42
0.161845
  0
VERTEX
  8
0
 10
341.446780
 20
239.141914
 42
0.114219
  0
VERTEX
  8
0
 10
340.617077
 20
238.159907
 42
0.052286
  0
VERTEX
  8
0
 10
339.867750
 20
236.225675
 42
0.009567
  0
VERTEX
  8
0
 10
338.932330
 20
232.500000
 42
-0.003997
  0
VERTEX
  8
0
 10
338.029791
 20
228.727864
 42
-0.057145
  0
VERTEX
  8
0
 10
337.547520
 20
227.434883
 42
-0.632922
  0
VERTEX
  8
0
 10
337.193930
 20
227.445114
 42
-0.068500
  0
VERTEX
  8
0
 10
336.894555
 20
228.500000
 42
0.000000
  0
VERTEX
  8
0
 10
336.472582
 20
231.500000
 42
0.000000
  0
VERTEX
  8
0
 10
334.736452
 20
228.299971
 42
0.075177
  0
VERTEX
  8
0
 10
332.080201
 20
220.955322
 42
0.063831
  0
VERTEX
  8
0
 10
331.507200
 20
212.719472
 42
0.061405
  0
VERTEX
  8
0
 10
333.045052
 20
204.300969
 42
0.059739
  0
VERTEX
  8
0
 10
336.588219
 20
196.423515
 42
0.023470
  0
VERTEX
  8
0
 10
341.445357
 20
189.152662
 42
0.009938
  0
VERTEX
  8
0
 10
348.600053
 20
179.852634
 42
0.006120
  0
VERTEX
  8
0
 10
355.920933
 20
170.943782
 42
0.098679
  0
VERTEX
  8
0
 10
358.944659
 20
168.528618
 42
-0.053862
  0
VERTEX
  8
0
 10
361.745571
 20
166.673992
 42
-0.077236
  0
VERTEX
  8
0
 10
363.714604
 20
164.447637
 42
-0.068607
  0
VERTEX
  8
0
 10
365.064891
 20
161.526375
 42
-0.033672
  0
VERTEX
  8
0
 10
365.995485
 20
157.527738
 42
0.042896
  0
VERTEX
  8
0
 10
367.057544
 20
153.317099
 42
0.049643
  0
VERTEX
  8
0
 10
368.788701
 20
149.562444
 42
0.039585
  0
VERTEX
  8
0
 10
371.556463
 20
145.605364
 42
0.016099
  0
VERTEX
  8
0
 10
375.901909
 20
140.667579
 42
0.042049
  0
VERTEX
  8
0
 10
380.514591
 20
136.515662
 42
0.092260
  0
VERTEX
  8
0
 10
384.743742
 20
134.394841
 42
0.128450
  0
VERTEX
  8
0
 10
388.526035
 20
134.299022
 42
0.130699
  0
VERTEX
  8
0
 10
391.843789
 20
136.069095
 42
0.043985
  0
VERTEX
  8
0
 10
392.955517
 20
137.304241
 42
0.095683
  0
VERTEX
  8
0
 10
393.512834
 20
138.445827
 42
0.083401
  0
VERTEX
  8
0
 10
393.645855
 20
139.813472
 42
0.027687
  0
VERTEX
  8
0
 10
393.394209
 20
141.819095
 42
0.032342
  0
VERTEX
  8
0
 10
392.202428
 20
146.589020
 42
0.007285
  0
VERTEX
  8
0
 10
389.537800
 20
154.521472
 42
0.006546
  0
VERTEX
  8
0
 10
385.823032
 20
164.643588
 42
0.003546
  0
VERTEX
  8
0
 10
381.003137
 20
177.000000
 42
-0.014623
  0
VERTEX
  8
0
 10
372.628661
 20
199.958516
 42
-0.046617
  0
VERTEX
  8
0
 10
368.953942
 20
215.841721
 42
-0.063587
  0
VERTEX
  8
0
 10
368.857502
 20
229.255254
 42
-0.049548
  0
VERTEX
  8
0
 10
372.025382
 20
243.500000
 42
-0.049769
  0
VERTEX
  8
0
 10
374.506420
 20
249.096280
 42
-0.033371
  0
VERTEX
  8
0
 10
378.365519
 20
254.942132
 42
-0.033753
  0
VERTEX
  8
0
 10
382.738828
 20
259.951907
 42
-0.079309
  0
VERTEX
  8
0
 10
386.747784
 20
262.858709
 42
-0.076037
  0
VERTEX
  8
0
 10
394.653993
 20
265.454980
 42
-0.104939
  0
VERTEX
  8
0
 10
402.096014
 20
265.130261
 42
-0.112721
  0
VERTEX
  8
0
 10
408.383922
 20
261.878965
 42
-0.098526
  0
VERTEX
  8
0
 10
413.005010
 20
256.078072
 42
-0.071012
  0
VERTEX
  8
0
 10
413.536120
 20
254.549828
 42
-0.009674
  0
VERTEX
  8
0
 10
414.121150
 20
251.208670
 42
-0.010970
  0
VERTEX
  8
0
 10
414.653973
 20
247.197294
 42
-0.009062
  0
VERTEX
  8
0
 10
415.050183
 20
242.902389
 42
0.013922
  0
VERTEX
  8
0
 10
415.547937
 20
238.025391
 42
0.009225
  0
VERTEX
  8
0
 10
416.377901
 20
232.458592
 42
0.009271
  0
VERTEX
  8
0
 10
417.399416
 20
226.999828
 42
0.015611
  0
VERTEX
  8
0
 10
418.483284
 20
222.467947
 42
-0.005350
  0
VERTEX
  8
0
 10
419.460503
 20
218.723364
 42
-0.008480
  0
VERTEX
  8
0
 10
420.208595
 20
215.493673
 42
-0.003264
  0
VERTEX
  8
0
 10
420.779346
 20
212.736590
 42
-0.250820
  0
VERTEX
  8
0
 10
420.653227
 20
212.319894
 42
-0.258898
  0
VERTEX
  8
0
 10
420.307137
 20
212.220851
 42
-0.021603
  0
VERTEX
  8
0
 10
419.375620
 20
212.479803
 42
-0.024491
  0
VERTEX
  8
0
 10
418.230118
 20
212.915313
 42
-0.016242
  0
VERTEX
  8
0
 10
416.960229
 20
213.520566
 42
0.015845
  0
VERTEX
  8
0
 10
415.213181
 20
214.354945
 42
0.083858
  0
VERTEX
  8
0
 10
414.188245
 20
214.612892
 42
0.162046
  0
VERTEX
  8
0
 10
413.476315
 20
214.437107
 42
0.111089
  0
VERTEX
  8
0
 10
412.882612
 20
213.844302
 42
0.109023
  0
VERTEX
  8
0
 10
412.143191
 20
211.804076
 42
0.147147
  0
VERTEX
  8
0
 10
412.457419
 20
209.877623
 42
0.095181
  0
VERTEX
  8
0
 10
413.981466
 20
207.846297
 42
0.028594
  0
VERTEX
  8
0
 10
417.000000
 20
205.404532
 42
-0.007236
  0
VERTEX
  8
0
 10
420.414581
 20
202.875691
 42
-0.084315
  0
VERTEX
  8
0
 10
421.543278
 20
201.665661
 42
-0.209415
  0
VERTEX
  8
0
 10
421.728286
 20
200.584903
 42
-0.080561
  0
VERTEX
  8
0
 10
421.116493
 20
199.154250
 42
-0.172642
  0
VERTEX
  8
0
 10
420.465504
 20
198.644818
 42
-0.145198
  0
VERTEX
  8
0
 10
419.585649
 20
198.615142
 42
-0.064636
  0
VERTEX
  8
0
 10
418.259032
 20
199.150796
 42
-0.012563
  0
VERTEX
  8
0
 10
416.037326
 20
200.476437
 42
0.012517
  0
VERTEX
  8
0
 10
414.382478
 20
201.464053
 42
0.019717
  0
VERTEX
  8
0
 10
412.910365
 20
202.218521
 42
0.014629
  0
VERTEX
  8
0
 10
411.698965
 20
202.737730
 42
0.298701
  0
VERTEX
  8
0
 10
411.327137
 20
202.660470
 42
0.263351
  0
VERTEX
  8
0
 10
411.212631
 20
202.247359
 42
0.005994
  0
VERTEX
  8
0
 10
411.750354
 20
200.198025
 42
0.011851
  0
VERTEX
  8
0
 10
412.484182
 20
197.759330
 42
0.007550
  0
VERTEX
  8
0
 10
413.447401
 20
194.957204
 42
-0.021558
  0
VERTEX
  8
0
 10
414.850897
 20
190.469142
 42
-0.050604
  0
VERTEX
  8
0
 10
415.405927
 20
187.004544
 42
-0.088384
  0
VERTEX
  8
0
 10
415.141681
 20
184.786611
 42
-0.330253
  0
VERTEX
  8
0
 10
414.080651
 20
184.000000
 42
-0.288037
  0
VERTEX
  8
0
 10
413.089860
 20
184.622408
 42
-0.004639
  0
VERTEX
  8
0
 10
410.155873
 20
190.858872
 42
-0.011462
  0
VERTEX
  8
0
 10
407.551692
 20
196.891207
 42
-0.046838
  0
VERTEX
  8
0
 10
406.408124
 20
200.709380
 42
-0.059351
  0
VERTEX
  8
0
 10
406.267709
 20
202.486868
 42
-0.011543
  0
VERTEX
  8
0
 10
406.469991
 20
205.702923
 42
-0.012118
  0
VERTEX
  8
0
 10
406.885755
 20
209.462727
 42
-0.010945
  0
VERTEX
  8
0
 10
407.494771
 20
213.328486
 42
0.029944
  0
VERTEX
  8
0
 10
408.750934
 20
223.899503
 42
0.021776
  0
VERTEX
  8
0
 10
408.926980
 20
235.743487
 42
0.020994
  0
VERTEX
  8
0
 10
408.162247
 20
246.547558
 42
0.078967
  0
VERTEX
  8
0
 10
406.354514
 20
253.072948
 42
0.109737
  0
VERTEX
  8
0
 10
402.703957
 20
257.910489
 42
0.161462
  0
VERTEX
  8
0
 10
397.810433
 20
259.896750
 42
0.139286
  0
VERTEX
  8
0
 10
392.140096
 20
258.680021
 42
0.074446
  0
VERTEX
  8
0
 10
386.332013
 20
254.384644
 42
0.044948
  0
VERTEX
  8
0
 10
382.477939
 20
249.767505
 42
0.044719
  0
VERTEX
  8
0
 10
379.503538
 20
244.528343
 42
0.041669
  0
VERTEX
  8
0
 10
377.348892
 20
238.507822
 42
0.030557
  0
VERTEX
  8
0
 10
375.943892
 20
231.551581
 42
0.024911
  0
VERTEX
  8
0
 10
375.456179
 20
226.048187
 42
0.020261
  0
VERTEX
  8
0
 10
375.467650
 20
220.127982
 42
0.011679
  0
VERTEX
  8
0
 10
375.819052
 20
214.796069
 42
0.388332
  0
VERTEX
  8
0
 10
376.689467
 20
214.000000
 42
0.128640
  0
VERTEX
  8
0
 10
377.003308
 20
214.082103
 42
0.007675
  0
VERTEX
  8
0
 10
377.856737
 20
214.578821
 42
0.011126
  0
VERTEX
  8
0
 10
378.861915
 20
215.215617
 42
0.007957
  0
VERTEX
  8
0
 10
379.958508
 20
215.970455
 42
-0.024609
  0
VERTEX
  8
0
 10
381.064973
 20
216.678990
 42
-0.036784
  0
VERTEX
  8
0
 10
382.100032
 20
217.174934
 42
-0.041021
  0
VERTEX
  8
0
 10
382.943871
 20
217.427936
 42
-0.253930
  0
VERTEX
  8
0
 10
383.362878
 20
217.303788
 42
-0.170672
  0
VERTEX
  8
0
 10
383.616048
 20
216.776069
 42
-0.007365
  0
VERTEX
  8
0
 10
383.812846
 20
214.699654
 42
-0.011846
  0
VERTEX
  8
0
 10
383.953753
 20
212.189394
 42
-0.008096
  0
VERTEX
  8
0
 10
384.000000
 20
209.333333
 42
0.008439
  0
VERTEX
  8
0
 10
384.061868
 20
205.667777
 42
0.038812
  0
VERTEX
  8
0
 10
384.297801
 20
203.557493
 42
0.081684
  0
VERTEX
  8
0
 10
384.724661
 20
202.395084
 42
0.270271
  0
VERTEX
  8
0
 10
385.402175
 20
202.000000
 42
-0.263798
  0
VERTEX
  8
0
 10
386.724469
 20
201.250183
 42
-0.053738
  0
VERTEX
  8
0
 10
387.894204
 20
198.711265
 42
-0.045833
  0
VERTEX
  8
0
 10
388.723292
 20
195.213823
 42
-0.035304
  0
VERTEX
  8
0
 10
389.000000
 20
191.299750
 42
0.020233
  0
VERTEX
  8
0
 10
389.105929
 20
188.683128
 42
0.113037
  0
VERTEX
  8
0
 10
389.525978
 20
187.353727
 42
0.130909
  0
VERTEX
  8
0
 10
390.453642
 20
186.437313
 42
0.030805
  0
VERTEX
  8
0
 10
392.427220
 20
185.465963
 42
-0.068397
  0
VERTEX
  8
0
 10
395.069337
 20
183.909511
 42
-0.159889
  0
VERTEX
  8
0
 10
396.320788
 20
182.019080
 42
-0.132599
  0
VERTEX
  8
0
 10
396.330875
 20
179.500393
 42
-0.041168
  0
VERTEX
  8
0
 10
395.050105
 20
175.901979
 42
0.000000
  0
VERTEX
  8
0
 10
393.061908
 20
171.500000
 42
0.000000
  0
VERTEX
  8
0
 10
396.030954
 20
170.247132
 42
-0.042429
  0
VERTEX
  8
0
 10
397.342826
 20
169.557282
 42
-0.071901
  0
VERTEX
  8
0
 10
398.280200
 20
168.747535
 42
-0.084723
  0
VERTEX
  8
0
 10
398.848770
 20
167.811206
 42
-0.086778
  0
VERTEX
  8
0
 10
399.068410
 20
166.747132
 42
-0.008046
  0
VERTEX
  8
0
 10
399.090155
 20
165.231186
 42
-0.000469
  0
VERTEX
  8
0
 10
399.077734
 20
160.606970
 42
-0.000711
  0
VERTEX
  8
0
 10
399.049944
 20
155.100919
 42
-0.000523
  0
VERTEX
  8
0
 10
399.004086
 20
149.000000
 42
-0.009155
  0
VERTEX
  8
0
 10
398.690488
 20
137.333109
 42
-0.091765
  0
VERTEX
  8
0
 10
397.591916
 20
132.602868
 42
-0.158897
  0
VERTEX
  8
0
 10
395.031696
 20
129.721065
 42
-0.042836
  0
VERTEX
  8
0
 10
389.437668
 20
127.062563
 42
-0.049349
  0
VERTEX
  8
0
 10
385.327169
 20
125.971700
 42
-0.067859
  0
VERTEX
  8
0
 10
381.510124
 20
125.875195
 42
-0.079637
  0
VERTEX
  8
0
 10
378.299104
 20
126.761010
 42
-0.112967
  0
VERTEX
  8
0
 10
375.954434
 20
128.554904
 42
0.029788
  0
VERTEX
  8
0
 10
375.224845
 20
129.334488
 42
0.007347
  0
VERTEX
  8
0
 10
373.934921
 20
130.522423
 42
0.007493
  0
VERTEX
  8
0
 10
372.414658
 20
131.841293
 42
0.007436
  0
VERTEX
  8
0
 10
370.851727
 20
133.117434
 42
0.000000
  0
VERTEX
  8
0
 10
367.011063
 20
136.159297
 42
0.000000
  0
VERTEX
  8
0
 10
366.099664
 20
133.829648
 42
-0.058734
  0
VERTEX
  8
0
 10
365.482919
 20
132.674055
 42
-0.016292
  0
VERTEX
  8
0
 10
364.253337
 20
131.023156
 42
-0.016213
  0
VERTEX
  8
0
 10
362.728291
 20
129.231430
 42
-0.016339
  0
VERTEX
  8
0
 10
361.094132
 20
127.547052
 42
0.043575
  0
VERTEX
  8
0
 10
358.032279
 20
124.026658
 42
0.145020
  0
VERTEX
  8
0
 10
357.018603
 20
121.167592
 42
0.184958
  0
VERTEX
  8
0
 10
357.833274
 20
118.651171
 42
0.079450
  0
VERTEX
  8
0
 10
360.498354
 20
116.250000
 42
0.077971
  0
VERTEX
  8
0
 10
364.017676
 20
114.681915
 42
0.053453
  0
VERTEX
  8
0
 10
368.344314
 20
113.998206
 42
0.055454
  0
VERTEX
  8
0
 10
372.404265
 20
114.245647
 42
0.141916
  0
VERTEX
  8
0
 10
375.026642
 20
115.524110
 42
-0.117423
  0
VERTEX
  8
0
 10
376.424203
 20
116.290850
 42
-0.096020
  0
VERTEX
  8
0
 10
378.128496
 20
116.421585
 42
-0.120364
  0
VERTEX
  8
0
 10
379.484966
 20
115.919551
 42
-0.249160
  0
VERTEX
  8
0
 10
380.000000
 20
114.950171
 42
-0.100280
  0
VERTEX
  8
0
 10
379.898876
 20
114.451034
 42
-0.010616
  0
VERTEX
  8
0
 10
379.411096
 20
113.361734
 42
-0.012773
  0
VERTEX
  8
0
 10
378.762959
 20
112.078782
 42
-0.009927
  0
VERTEX
  8
0
 10
377.995221
 20
110.716473
 42
0.000000
  0
VERTEX
  8
0
 10
375.990442
 20
107.318625
 42
0.000000
  0
VERTEX
  8
0
 10
377.995221
 20
105.504325
 42
-0.043878
  0
VERTEX
  8
0
 10
379.451901
 20
103.932929
 42
-0.170866
  0
VERTEX
  8
0
 10
379.864425
 20
102.693779
 42
-0.129840
  0
VERTEX
  8
0
 10
379.460489
 20
101.263934
 42
-0.021306
  0
VERTEX
  8
0
 10
377.881171
 20
98.833120
 42
0.000000
  0
VERTEX
  8
0
 10
375.762342
 20
95.857499
 42
0.000000
  0
VERTEX
  8
0
 10
378.381171
 20
93.124031
 42
-0.044954
  0
VERTEX
  8
0
 10
380.154355
 20
90.904794
 42
-0.112052
  0
VERTEX
  8
0
 10
380.883817
 20
88.973334
 42
-0.166184
  0
VERTEX
  8
0
 10
380.577409
 20
87.392209
 42
-0.135779
  0
VERTEX
  8
0
 10
379.346014
 20
86.173763
 42
0.117747
  0
VERTEX
  8
0
 10
378.546736
 20
85.437152
 42
0.107873
  0
VERTEX
  8
0
 10
378.134370
 20
84.395198
 42
0.057698
  0
VERTEX
  8
0
 10
378.057872
 20
82.757106
 42
0.012322
  0
VERTEX
  8
0
 10
378.323620
 20
79.915347
 42
-0.043302
  0
VERTEX
  8
0
 10
378.487178
 20
74.697423
 42
-0.071639
  0
VERTEX
  8
0
 10
377.620741
 20
70.384391
 42
-0.077093
  0
VERTEX
  8
0
 10
375.637045
 20
66.711157
 42
-0.058887
  0
VERTEX
  8
0
 10
372.463601
 20
63.416661
 42
0.016021
  0
VERTEX
  8
0
 10
369.916894
 20
61.189715
 42
0.101294
  0
VERTEX
  8
0
 10
368.923533
 20
59.793391
 42
0.108745
  0
VERTEX
  8
0
 10
368.593285
 20
58.162601
 42
0.019743
  0
VERTEX
  8
0
 10
368.768089
 20
55.061740
 42
-0.007337
  0
VERTEX
  8
0
 10
369.016912
 20
52.001094
 42
-0.106951
  0
VERTEX
  8
0
 10
368.859336
 20
50.934287
 42
-0.305048
  0
VERTEX
  8
0
 10
368.308795
 20
50.542171
 42
-0.070744
  0
VERTEX
  8
0
 10
367.119691
 20
50.678951
 42
0.066403
  0
VERTEX
  8
0
 10
365.996785
 20
50.817960
 42
0.189402
  0
VERTEX
  8
0
 10
365.279493
 20
50.528288
 42
0.129372
  0
VERTEX
  8
0
 10
364.783565
 20
49.728946
 42
0.025153
  0
VERTEX
  8
0
 10
364.363832
 20
48.069162
 42
0.000000
  0
VERTEX
  8
0
 10
363.730846
 20
44.904229
 42
0.000000
  0
VERTEX
  8
0
 10
361.365423
 20
47.126429
 42
-0.031360
  0
VERTEX
  8
0
 10
360.457860
 20
48.093027
 42
-0.032062
  0
VERTEX
  8
0
 10
359.685560
 20
49.158715
 42
-0.033843
  0
VERTEX
  8
0
 10
359.140844
 20
50.166933
 42
-0.102263
  0
VERTEX
  8
0
 10
358.968399
 20
50.924314
 42
0.593576
  0
VERTEX
  8
0
 10
358.224365
 20
51.311078
 42
0.071510
  0
VERTEX
  8
0
 10
356.466479
 20
49.722769
 42
0.040231
  0
VERTEX
  8
0
 10
354.566027
 20
47.020009
 42
0.133897
  0
VERTEX
  8
0
 10
354.000000
 20
44.944236
 42
-0.071269
  0
VERTEX
  8
0
 10
353.893554
 20
44.201231
 42
-0.086621
  0
VERTEX
  8
0
 10
353.583400
 20
43.571119
 42
-0.100321
  0
VERTEX
  8
0
 10
353.122609
 20
43.149862
 42
-0.135988
  0
VERTEX
  8
0
 10
352.581787
 20
43.000000
 42
-0.056879
  0
VERTEX
  8
0
 10
350.729302
 20
43.211420
 42
-0.090127
  0
VERTEX
  8
0
 10
349.266418
 20
43.842094
 42
-0.112675
  0
VERTEX
  8
0
 10
348.335717
 20
44.822127
 42
-0.134600
  0
VERTEX
  8
0
 10
348.000000
 20
46.046624
 42
0.119003
  0
VERTEX
  8
0
 10
347.785157
 20
46.936521
 42
0.145472
  0
VERTEX
  8
0
 10
347.196106
 20
47.552936
 42
0.086240
  0
VERTEX
  8
0
 10
346.097787
 20
47.950275
 42
0.023127
  0
VERTEX
  8
0
 10
344.250000
 20
48.189635
 42
-0.023332
  0
VERTEX
  8
0
 10
342.145458
 20
48.463130
 42
-0.121652
  0
VERTEX
  8
0
 10
341.084568
 20
48.934351
 42
-0.155014
  0
VERTEX
  8
0
 10
340.499555
 20
49.783796
 42
-0.045439
  0
VERTEX
  8
0
 10
340.173528
 20
51.354148
 42
-0.055979
  0
VERTEX
  8
0
 10
340.170684
 20
52.742536
 42
-0.058640
  0
VERTEX
  8
0
 10
340.478216
 20
54.074316
 42
-0.056511
  0
VERTEX
  8
0
 10
341.100247
 20
55.339365
 42
-0.046107
  0
VERTEX
  8
0
 10
342.028296
 20
56.530120
 42
0.030504
  0
VERTEX
  8
0
 10
342.822284
 20
57.485890
 42
0.042091
  0
VERTEX
  8
0
 10
343.403313
 20
58.437668
 42
0.048558
  0
VERTEX
  8
0
 10
343.718427
 20
59.257613
 42
0.208819
  0
VERTEX
  8
0
 10
343.646185
 20
59.763467
 42
-0.272224
  0
VERTEX
  8
0
 10
343.633876
 20
60.322704
 42
-0.026232
  0
VERTEX
  8
0
 10
344.387848
 20
61.519951
 42
-0.027624
  0
VERTEX
  8
0
 10
345.516443
 20
62.945370
 42
-0.018094
  0
VERTEX
  8
0
 10
346.962084
 20
64.462976
 42
-0.012612
  0
VERTEX
  8
0
 10
349.396073
 20
66.722633
 42
-0.092520
  0
VERTEX
  8
0
 10
350.753892
 20
67.533849
 42
-0.135134
  0
VERTEX
  8
0
 10
352.085630
 20
67.647828
 42
-0.038060
  0
VERTEX
  8
0
 10
354.119353
 20
67.108238
 42
0.026329
  0
VERTEX
  8
0
 10
356.092642
 20
66.534860
 42
0.129520
  0
VERTEX
  8
0
 10
357.241737
 20
66.566432
 42
0.126151
  0
VERTEX
  8
0
 10
358.241878
 20
67.160590
 42
0.024447
  0
VERTEX
  8
0
 10
359.662723
 20
68.732757
 42
0.060515
  0
VERTEX
  8
0
 10
361.238911
 20
71.218469
 42
0.105066
  0
VERTEX
  8
0
 10
361.805300
 20
73.585485
 42
0.060083
  0
VERTEX
  8
0
 10
361.498922
 20
76.817281
 42
0.009615
  0
VERTEX
  8
0
 10
360.026665
 20
83.000000
 42
0.043581
  0
VERTEX
  8
0
 10
357.592802
 20
89.878087
 42
0.115106
  0
VERTEX
  8
0
 10
354.425212
 20
93.989815
 42
0.092148
  0
VERTEX
  8
0
 10
349.316823
 20
96.789822
 42
0.021826
  0
VERTEX
  8
0
 10
339.923009
 20
99.429876
 42
-0.011015
  0
VERTEX
  8
0
 10
335.032976
 20
100.690792
 42
-0.013658
  0
VERTEX
  8
0
 10
330.545398
 20
102.087325
 42
-0.014659
  0
VERTEX
  8
0
 10
326.807157
 20
103.487285
 42
-0.044137
  0
VERTEX
  8
0
 10
324.388776
 20
104.733630
 42
-0.023727
  0
VERTEX
  8
0
 10
321.941239
 20
106.449822
 42
-0.097189
  0
VERTEX
  8
0
 10
320.753692
 20
107.809137
 42
-0.088147
  0
VERTEX
  8
0
 10
320.109231
 20
109.583190
 42
-0.017565
  0
VERTEX
  8
0
 10
319.645284
 20
112.936534
 42
-0.001279
  0
VERTEX
  8
0
 10
318.845579
 20
120.923283
 42
-0.003366
  0
VERTEX
  8
0
 10
318.325573
 20
126.653039
 42
-0.004496
  0
VERTEX
  8
0
 10
318.010239
 20
130.861798
 42
-0.013395
  0
VERTEX
  8
0
 10
317.897529
 20
133.750000
 42
0.028025
  0
VERTEX
  8
0
 10
317.792350
 20
135.288648
 42
0.091164
  0
VERTEX
  8
0
 10
317.485584
 20
136.259279
 42
0.147923
  0
VERTEX
  8
0
 10
316.953789
 20
136.795071
 42
0.126289
  0
VERTEX
  8
0
 10
316.178911
 20
136.988131
 42
0.056341
  0
VERTEX
  8
0
 10
313.502275
 20
136.666382
 42
0.011388
  0
VERTEX
  8
0
 10
308.861139
 20
135.456697
 42
0.008183
  0
VERTEX
  8
0
 10
304.215853
 20
134.049653
 42
0.119291
  0
VERTEX
  8
0
 10
302.763046
 20
133.163046
 42
0.154121
  0
VERTEX
  8
0
 10
302.394028
 20
132.453471
 42
0.013910
  0
VERTEX
  8
0
 10
302.099512
 20
130.449333
 42
0.017034
  0
VERTEX
  8
0
 10
301.892035
 20
127.985949
 42
0.012491
  0
VERTEX
  8
0
 10
301.823529
 20
125.244195
 42
0.000000
  0
VERTEX
  8
0
 10
301.823529
 20
118.264860
 42
0.000000
  0
VERTEX
  8
0
 10
296.661765
 20
116.523405
 42
-0.020607
  0
VERTEX
  8
0
 10
293.701279
 20
115.658703
 42
-0.045821
  0
VERTEX
  8
0
 10
291.381397
 20
115.304789
 42
-0.043803
  0
VERTEX
  8
0
 10
288.972290
 20
115.371630
 42
-0.017384
  0
VERTEX
  8
0
 10
285.697107
 20
115.866801
 42
0.016766
  0
VERTEX
  8
0
 10
282.360756
 20
116.375435
 42
0.048581
  0
VERTEX
  8
0
 10
280.028522
 20
116.423655
 42
0.051304
  0
VERTEX
  8
0
 10
277.801980
 20
116.020952
 42
0.020421
  0
VERTEX
  8
0
 10
274.854395
 20
115.036673
 42
0.000000
  0
VERTEX
  8
0
 10
269.814577
 20
113.121692
 42
0.000000
  0
VERTEX
  8
0
 10
261.182110
 20
116.168574
 42
0.010460
  0
VERTEX
  8
0
 10
255.663650
 20
117.987457
 42
0.046072
  0
VERTEX
  8
0
 10
252.312948
 20
118.685493
 42
0.041881
  0
VERTEX
  8
0
 10
248.748379
 20
118.791016
 42
0.007659
  0
VERTEX
  8
0
 10
242.162206
 20
118.332954
 42
0.000000
  0
VERTEX
  8
0
 10
231.774768
 20
117.450452
 42
0.000000
  0
VERTEX
  8
0
 10
232.319484
 20
122.049728
 42
0.016436
  0
VERTEX
  8
0
 10
232.555716
 20
124.821707
 42
0.103552
  0
VERTEX
  8
0
 10
232.338985
 20
126.215873
 42
0.134814
  0
VERTEX
  8
0
 10
231.602827
 20
127.228505
 42
0.035169
  0
VERTEX
  8
0
 10
229.932100
 20
128.381038
 42
-0.076799
  0
VERTEX
  8
0
 10
227.641663
 20
130.259362
 42
-0.232131
  0
VERTEX
  8
0
 10
227.109733
 20
132.148578
 42
-0.186435
  0
VERTEX
  8
0
 10
228.268472
 20
134.036983
 42
-0.050281
  0
VERTEX
  8
0
 10
231.315724
 20
135.910794
 42
-0.009392
  0
VERTEX
  8
0
 10
233.050631
 20
136.710783
 42
-0.011665
  0
VERTEX
  8
0
 10
234.694249
 20
137.386296
 42
-0.010043
  0
VERTEX
  8
0
 10
236.089469
 20
137.890114
 42
-0.081793
  0
VERTEX
  8
0
 10
236.756707
 20
138.000000
 42
0.143614
  0
VERTEX
  8
0
 10
237.854722
 20
138.322021
 42
0.164805
  0
VERTEX
  8
0
 10
238.533817
 20
139.172932
 42
0.148576
  0
VERTEX
  8
0
 10
238.594233
 20
140.335949
 42
0.112884
  0
VERTEX
  8
0
 10
238.015327
 20
141.481532
 42
-0.351725
  0
VERTEX
  8
0
 10
237.991207
 20
142.960946
 42
-0.107562
  0
VERTEX
  8
0
 10
239.832083
 20
144.500130
 42
-0.076345
  0
VERTEX
  8
0
 10
242.757740
 20
145.501203
 42
-0.106195
  0
VERTEX
  8
0
 10
245.516435
 20
145.406519
 42
-0.144137
  0
VERTEX
  8
0
 10
247.662773
 20
144.142573
 42
-0.036153
  0
VERTEX
  8
0
 10
250.244590
 20
140.949956
 42
-0.037023
  0
VERTEX
  8
0
 10
252.364800
 20
137.362059
 42
-0.115437
  0
VERTEX
  8
0
 10
253.000000
 20
134.647444
 42
0.212925
  0
VERTEX
  8
0
 10
253.818450
 20
132.812662
 42
0.057254
  0
VERTEX
  8
0
 10
256.482005
 20
130.922190
 42
0.053903
  0
VERTEX
  8
0
 10
259.917311
 20
129.489337
 42
0.071738
  0
VERTEX
  8
0
 10
263.260898
 20
129.003738
 42
0.066840
  0
VERTEX
  8
0
 10
267.410778
 20
129.556781
 42
0.052437
  0
VERTEX
  8
0
 10
271.646482
 20
131.203292
 42
0.055100
  0
VERTEX
  8
0
 10
275.150002
 20
133.526899
 42
0.121187
  0
VERTEX
  8
0
 10
277.041332
 20
136.099784
 42
0.052476
  0
VERTEX
  8
0
 10
277.586436
 20
137.940940
 42
0.059490
  0
VERTEX
  8
0
 10
277.704433
 20
139.777811
 42
0.039779
  0
VERTEX
  8
0
 10
277.388071
 20
142.120912
 42
0.010625
  0
VERTEX
  8
0
 10
276.511183
 20
145.783846
 42
-0.003414
  0
VERTEX
  8
0
 10
274.017673
 20
155.573949
 42
-0.032582
  0
VERTEX
  8
0
 10
273.256746
 20
159.817544
 42
-0.075043
  0
VERTEX
  8
0
 10
273.362995
 20
162.648070
 42
-0.064501
  0
VERTEX
  8
0
 10
274.290027
 20
165.482004
 42
-0.070975
  0
VERTEX
  8
0
 10
275.853689
 20
167.834215
 42
-0.156964
  0
VERTEX
  8
0
 10
277.691592
 20
168.913577
 42
-0.050877
  0
VERTEX
  8
0
 10
281.011173
 20
169.306978
 42
-0.002544
  0
VERTEX
  8
0
 10
291.975242
 20
169.429822
 42
0.003761
  0
VERTEX
  8
0
 10
298.758389
 20
169.522333
 42
0.035271
  0
VERTEX
  8
0
 10
301.663237
 20
169.789376
 42
0.102853
  0
VERTEX
  8
0
 10
303.131630
 20
170.354139
 42
0.203408
  0
VERTEX
  8
0
 10
303.821313
 20
171.368113
 42
0.251510
  0
VERTEX
  8
0
 10
302.659238
 20
175.167245
 42
0.013159
  0
VERTEX
  8
0
 10
293.061160
 20
184.195929
 42
0.020935
  0
VERTEX
  8
0
 10
282.655799
 20
192.725551
 42
0.053524
  0
VERTEX
  8
0
 10
274.296498
 20
197.711931
 42
0.000000
  0
VERTEX
  8
0
 10
269.092997
 20
200.104039
 42
0.000000
  0
VERTEX
  8
0
 10
261.299292
 20
196.983288
 42
0.013089
  0
VERTEX
  8
0
 10
254.780722
 20
194.172991
 42
0.084286
  0
VERTEX
  8
0
 10
251.833696
 20
192.150779
 42
0.140735
  0
VERTEX
  8
0
 10
250.450832
 20
189.744452
 42
0.060564
  0
VERTEX
  8
0
 10
250.000000
 20
186.036142
 42
-0.040247
  0
VERTEX
  8
0
 10
249.696924
 20
182.277008
 42
-0.101727
  0
VERTEX
  8
0
 10
248.725854
 20
179.725481
 42
-0.166440
  0
VERTEX
  8
0
 10
247.171431
 20
178.482491
 42
-0.164459
  0
VERTEX
  8
0
 10
245.172743
 20
178.445173
 42
-0.059064
  0
VERTEX
  8
0
 10
244.260007
 20
178.858617
 42
-0.038295
  0
VERTEX
  8
0
 10
243.315685
 20
179.532585
 42
-0.038223
  0
VERTEX
  8
0
 10
242.482430
 20
180.345147
 42
-0.057605
  0
VERTEX
  8
0
 10
241.904911
 20
181.177675
 42
0.029873
  0
VERTEX
  8
0
 10
241.186495
 20
182.346488
 42
0.337933
  0
VERTEX
  8
0
 10
240.700579
 20
182.501162
 42
0.163643
  0
VERTEX
  8
0
 10
240.157915
 20
182.072992
 42
0.008000
  0
VERTEX
  8
0
 10
238.920671
 20
180.109951
 42
-0.097195
  0
VERTEX
  8
0
 10
236.751229
 20
177.734786
 42
-0.219764
  0
VERTEX
  8
0
 10
234.420237
 20
177.252062
 42
-0.233795
  0
VERTEX
  8
0
 10
232.647418
 20
178.708653
 42
-0.106315
  0
VERTEX
  8
0
 10
232.000000
 20
181.719052
 42
0.039712
  0
VERTEX
  8
0
 10
231.899811
 20
182.978509
 42
0.223862
  0
VERTEX
  8
0
 10
231.529402
 20
183.520833
 42
0.174201
  0
VERTEX
  8
0
 10
230.805295
 20
183.657217
 42
0.022938
  0
VERTEX
  8
0
 10
229.250000
 20
183.334419
 42
-0.029774
  0
VERTEX
  8
0
 10
224.709350
 20
182.456544
 42
-0.228675
  0
VERTEX
  8
0
 10
222.705753
 20
183.116443
 42
-0.338340
  0
VERTEX
  8
0
 10
222.448727
 20
184.811225
 42
-0.049419
  0
VERTEX
  8
0
 10
224.547524
 20
187.874109
 42
0.012798
  0
VERTEX
  8
0
 10
225.776790
 20
189.413307
 42
0.077616
  0
VERTEX
  8
0
 10
226.258660
 20
190.309376
 42
0.282625
  0
VERTEX
  8
0
 10
226.156587
 20
190.782681
 42
0.204665
  0
VERTEX
  8
0
 10
225.647911
 20
191.000000
 42
0.058574
  0
VERTEX
  8
0
 10
225.016868
 20
190.925820
 42
0.050467
  0
VERTEX
  8
0
 10
224.385888
 20
190.706250
 42
0.053011
  0
VERTEX
  8
0
 10
223.848537
 20
190.382940
 42
0.092676
  0
VERTEX
  8
0
 10
223.500000
 20
190.000000
 42
-0.173269
  0
VERTEX
  8
0
 10
222.388752
 20
189.112186
 42
-0.133593
  0
VERTEX
  8
0
 10
220.829366
 20
189.010142
 42
-0.143531
  0
VERTEX
  8
0
 10
219.510880
 20
189.705608
 42
-0.202787
  0
VERTEX
  8
0
 10
219.000000
 20
190.913452
 42
-0.202616
  0
VERTEX
  8
0
 10
219.979758
 20
193.231972
 42
-0.015951
  0
VERTEX
  8
0
 10
225.034634
 20
197.840677
 42
-0.017476
  0
VERTEX
  8
0
 10
230.366280
 20
202.085676
 42
-0.160729
  0
VERTEX
  8
0
 10
233.137106
 20
203.000000
 42
-0.055724
  0
VERTEX
  8
0
 10
234.100818
 20
202.892263
 42
-0.020627
  0
VERTEX
  8
0
 10
235.421220
 20
202.535471
 42
-0.020141
  0
VERTEX
  8
0
 10
236.842580
 20
202.023971
 42
-0.022888
  0
VERTEX
  8
0
 10
238.157364
 20
201.418624
 42
0.081102
  0
VERTEX
  8
0
 10
241.053536
 20
200.473624
 42
0.110994
  0
VERTEX
  8
0
 10
243.781241
 20
200.658107
 42
0.061425
  0
VERTEX
  8
0
 10
247.253450
 20
202.172644
 42
0.011086
  0
VERTEX
  8
0
 10
253.248031
 20
205.899082
 42
0.021617
  0
VERTEX
  8
0
 10
262.790262
 20
212.734047
 42
0.062322
  0
VERTEX
  8
0
 10
268.511081
 20
218.499477
 42
0.080006
  0
VERTEX
  8
0
 10
271.827185
 20
224.607838
 42
0.055230
  0
VERTEX
  8
0
 10
273.604147
 20
232.289001
 42
0.000000
  0
VERTEX
  8
0
 10
274.265951
 20
237.919918
 42
0.000000
  0
VERTEX
  8
0
 10
269.632975
 20
242.422655
 42
-0.019904
  0
VERTEX
  8
0
 10
267.859225
 20
244.289432
 42
-0.024314
  0
VERTEX
  8
0
 10
266.360937
 20
246.175058
 42
-0.023925
  0
VERTEX
  8
0
 10
265.276764
 20
247.848151
 42
-0.132551
  0
VERTEX
  8
0
 10
265.000000
 20
248.873802
 42
0.110059
  0
VERTEX
  8
0
 10
264.794397
 20
249.796543
 42
0.038103
  0
VERTEX
  8
0
 10
264.118750
 20
250.991390
 42
0.035658
  0
VERTEX
  8
0
 10
263.148006
 20
252.236784
 42
0.034491
  0
VERTEX
  8
0
 10
262.000000
 20
253.346546
 42
-0.037148
  0
VERTEX
  8
0
 10
260.852054
 20
254.468095
 42
-0.037019
  0
VERTEX
  8
0
 10
259.881250
 20
255.748406
 42
-0.039544
  0
VERTEX
  8
0
 10
259.208321
 20
256.992846
 42
-0.104545
  0
VERTEX
  8
0
 10
259.000000
 20
257.978281
 42
0.164630
  0
VERTEX
  8
0
 10
258.188763
 20
260.375329
 42
0.019180
  0
VERTEX
  8
0
 10
254.530519
 20
264.798568
 42
0.024108
  0
VERTEX
  8
0
 10
250.263082
 20
269.133255
 42
0.047895
  0
VERTEX
  8
0
 10
246.427429
 20
272.044851
 42
-0.052217
  0
VERTEX
  8
0
 10
245.004443
 20
273.144488
 42
-0.027458
  0
VERTEX
  8
0
 10
243.473291
 20
274.776115
 42
-0.026851
  0
VERTEX
  8
0
 10
242.061978
 20
276.651807
 42
-0.035145
  0
VERTEX
  8
0
 10
240.994235
 20
278.511908
 42
0.081781
  0
VERTEX
  8
0
 10
238.510116
 20
282.035742
 42
0.041862
  0
VERTEX
  8
0
 10
234.396472
 20
285.570695
 42
0.039137
  0
VERTEX
  8
0
 10
229.306397
 20
288.677262
 42
0.039984
  0
VERTEX
  8
0
 10
223.829992
 20
290.927161
 42
-0.031489
  0
VERTEX
  8
0
 10
220.463722
 20
292.243839
 42
-0.155632
  0
VERTEX
  8
0
 10
218.985423
 20
293.606151
 42
-0.227521
  0
VERTEX
  8
0
 10
218.870212
 20
295.249447
 42
-0.072398
  0
VERTEX
  8
0
 10
220.126708
 20
297.433954
 42
-0.055390
  0
VERTEX
  8
0
 10
221.684158
 20
299.017201
 42
-0.144252
  0
VERTEX
  8
0
 10
223.143729
 20
299.628142
 42
-0.094471
  0
VERTEX
  8
0
 10
225.087611
 20
299.475246
 42
-0.016042
  0
VERTEX
  8
0
 10
228.657099
 20
298.375146
 42
0.099464
  0
VERTEX
  8
0
 10
229.262445
 20
298.294302
 42
0.526256
  0
VERTEX
  8
0
 10
229.404158
 20
298.532644
 42
0.082678
  0
VERTEX
  8
0
 10
228.955861
 20
299.191557
 42
0.009572
  0
VERTEX
  8
0
 10
227.692713
 20
300.464470
 42
-0.069888
  0
VERTEX
  8
0
 10
225.908450
 20
302.758051
 42
-0.119146
  0
VERTEX
  8
0
 10
225.230719
 20
305.076300
 42
-0.175785
  0
VERTEX
  8
0
 10
225.785267
 20
306.864136
 42
-0.185479
  0
VERTEX
  8
0
 10
227.344399
 20
307.831288
 42
-0.132202
  0
VERTEX
  8
0
 10
228.317452
 20
307.758714
 42
-0.030468
  0
VERTEX
  8
0
 10
229.847397
 20
307.115029
 42
-0.029415
  0
VERTEX
  8
0
 10
231.575437
 20
306.130263
 42
-0.025045
  0
VERTEX
  8
0
 10
233.275237
 20
304.899055
 42
0.007586
  0
VERTEX
  8
0
 10
235.287868
 20
303.331316
 42
0.064255
  0
VERTEX
  8
0
 10
236.282522
 20
302.764101
 42
0.471815
  0
VERTEX
  8
0
 10
236.602780
 20
302.935647
 42
0.150570
  0
VERTEX
  8
0
 10
236.539409
 20
303.557551
 42
-0.035350
  0
VERTEX
  8
0
 10
235.661671
 20
306.122007
 42
-0.046571
  0
VERTEX
  8
0
 10
235.253358
 20
308.558668
 42
-0.054732
  0
VERTEX
  8
0
 10
235.324327
 20
310.507530
 42
-0.221381
  0
VERTEX
  8
0
 10
235.960717
 20
311.475722
 42
-0.155112
  0
VERTEX
  8
0
 10
237.715043
 20
311.915840
 42
-0.085406
  0
VERTEX
  8
0
 10
239.888754
 20
311.401452
 42
-0.081794
  0
VERTEX
  8
0
 10
241.855157
 20
310.152150
 42
-0.120139
  0
VERTEX
  8
0
 10
243.010619
 20
308.472071
 42
0.046909
  0
VERTEX
  8
0
 10
243.845199
 20
306.775098
 42
0.197762
  0
VERTEX
  8
0
 10
244.743625
 20
306.120742
 42
0.223331
  0
VERTEX
  8
0
 10
245.764567
 20
306.328169
 42
0.059615
  0
VERTEX
  8
0
 10
247.000000
 20
307.500000
 42
-0.090399
  0
VERTEX
  8
0
 10
248.358297
 20
308.638895
 42
-0.169207
  0
VERTEX
  8
0
 10
249.752096
 20
308.895718
 42
-0.147136
  0
VERTEX
  8
0
 10
251.143714
 20
308.231713
 42
-0.063430
  0
VERTEX
  8
0
 10
252.491685
 20
306.653035
 42
-0.059262
  0
VERTEX
  8
0
 10
253.253157
 20
305.122466
 42
-0.119613
  0
VERTEX
  8
0
 10
253.393728
 20
303.790830
 42
-0.065356
  0
VERTEX
  8
0
 10
252.925687
 20
302.055527
 42
-0.008840
  0
VERTEX
  8
0
 10
251.413991
 20
298.593099
 42
0.006814
  0
VERTEX
  8
0
 10
249.791203
 20
294.916918
 42
0.076107
  0
VERTEX
  8
0
 10
249.396138
 20
293.370746
 42
0.155766
  0
VERTEX
  8
0
 10
249.641850
 20
292.222505
 42
0.053892
  0
VERTEX
  8
0
 10
250.649254
 20
290.833655
 42
0.036373
  0
VERTEX
  8
0
 10
251.604644
 20
289.920380
 42
0.016168
  0
VERTEX
  8
0
 10
252.984468
 20
288.854310
 42
0.015904
  0
VERTEX
  8
0
 10
254.524384
 20
287.815026
 42
0.020707
  0
VERTEX
  8
0
 10
256.000000
 20
286.969232
 42
-0.066902
  0
VERTEX
  8
0
 10
260.253258
 20
283.979664
 42
-0.014603
  0
VERTEX
  8
0
 10
266.662444
 20
277.696484
 42
-0.015628
  0
VERTEX
  8
0
 10
272.780746
 20
270.926375
 42
-0.046947
  0
VERTEX
  8
0
 10
276.345153
 20
265.824200
 42
0.076814
  0
VERTEX
  8
0
 10
279.595869
 20
261.715093
 42
0.063629
  0
VERTEX
  8
0
 10
284.137970
 20
258.464942
 42
0.066188
  0
VERTEX
  8
0
 10
289.141137
 20
256.571304
 42
0.102615
  0
VERTEX
  8
0
 10
293.741048
 20
256.455693
 42
0.041249
  0
VERTEX
  8
0
 10
298.120082
 20
257.629233
 42
0.026479
  0
VERTEX
  8
0
 10
302.974161
 20
259.665693
 42
0.024453
  0
VERTEX
  8
0
 10
307.227360
 20
261.984121
 42
0.116669
  0
VERTEX
  8
0
 10
309.180296
 20
263.917093
 42
-0.048862
  0
VERTEX
  8
0
 10
309.793471
 20
264.713893
 42
-0.046994
  0
VERTEX
  8
0
 10
310.557074
 20
265.388146
 42
-0.050702
  0
VERTEX
  8
0
 10
311.349046
 20
265.850158
 42
-0.107103
  0
VERTEX
  8
0
 10
312.040547
 20
266.000000
 42
0.108978
  0
VERTEX
  8
0
 10
313.430234
 20
266.306532
 42
0.080702
  0
VERTEX
  8
0
 10
314.737069
 20
267.191509
 42
0.082285
  0
VERTEX
  8
0
 10
315.674926
 20
268.424462
 42
0.122123
  0
VERTEX
  8
0
 10
316.000000
 20
269.735537
 42
0.202800
  0
VERTEX
  8
0
 10
315.732363
 20
270.368253
 42
0.034512
  0
VERTEX
  8
0
 10
314.710486
 20
271.231511
 42
0.032890
  0
VERTEX
  8
0
 10
313.291300
 20
272.134571
 42
0.024001
  0
VERTEX
  8
0
 10
311.610165
 20
272.952778
 42
-0.014615
  0
VERTEX
  8
0
 10
309.878395
 20
273.755796
 42
-0.017679
  0
VERTEX
  8
0
 10
308.305320
 20
274.612659
 42
-0.016469
  0
VERTEX
  8
0
 10
307.045231
 20
275.415118
 42
-0.104687
  0
VERTEX
  8
0
 10
306.524075
 20
275.961045
 42
-0.219603
  0
VERTEX
  8
0
 10
306.358059
 20
277.323756
 42
-0.140482
  0
VERTEX
  8
0
 10
307.261234
 20
278.671938
 42
-0.098660
  0
VERTEX
  8
0
 10
309.086734
 20
279.680438
 42
-0.072626
  0
VERTEX
  8
0
 10
311.372445
 20
280.056442
 42
0.045210
  0
VERTEX
  8
0
 10
314.804533
 20
280.429953
 42
0.043168
  0
VERTEX
  8
0
 10
318.169345
 20
281.415917
 42
0.044713
  0
VERTEX
  8
0
 10
320.778206
 20
282.710722
 42
0.260872
  0
VERTEX
  8
0
 10
321.500000
 20
284.000000
 42
0.316030
  0
VERTEX
  8
0
 10
320.645665
 20
285.216668
 42
0.067254
  0
VERTEX
  8
0
 10
317.971409
 20
285.792535
 42
0.041794
  0
VERTEX
  8
0
 10
313.748412
 20
285.768261
 42
0.016161
  0
VERTEX
  8
0
 10
307.932945
 20
285.057546
 42
-0.011452
  0
VERTEX
  8
0
 10
304.186429
 20
284.563831
 42
-0.036170
  0
VERTEX
  8
0
 10
301.657233
 20
284.473211
 42
-0.049309
  0
VERTEX
  8
0
 10
299.600130
 20
284.752685
 42
-0.040575
  0
VERTEX
  8
0
 10
297.492405
 20
285.438727
 42
-0.014087
  0
VERTEX
  8
0
 10
296.154195
 20
286.042687
 42
-0.021111
  0
VERTEX
  8
0
 10
295.025894
 20
286.650812
 42
-0.017024
  0
VERTEX
  8
0
 10
294.163370
 20
287.204393
 42
-0.246347
  0
VERTEX
  8
0
 10
294.000000
 20
287.515856
 42
-0.409313
  0
VERTEX
  8
0
 10
294.231942
 20
287.751719
 42
-0.003533
  0
VERTEX
  8
0
 10
297.010938
 20
287.778667
 42
-0.009422
  0
VERTEX
  8
0
 10
300.319630
 20
287.725021
 42
-0.005633
  0
VERTEX
  8
0
 10
304.250000
 20
287.542828
 42
0.012868
  0
VERTEX
  8
0
 10
312.279754
 20
287.286963
 42
0.044581
  0
VERTEX
  8
0
 10
317.455978
 20
287.717497
 42
0.084190
  0
VERTEX
  8
0
 10
320.466536
 20
288.782684
 42
0.272118
  0
VERTEX
  8
0
 10
321.500000
 20
290.540995
 42
0.064707
  0
VERTEX
  8
0
 10
321.385195
 20
291.424393
 42
0.157040
  0
VERTEX
  8
0
 10
321.034435
 20
291.971622
 42
0.152328
  0
VERTEX
  8
0
 10
320.421789
 20
292.221254
 42
0.059765
  0
VERTEX
  8
0
 10
319.500000
 20
292.189168
 42
-0.012351
  0
VERTEX
  8
0
 10
314.218864
 20
291.501511
 42
-0.022463
  0
VERTEX
  8
0
 10
309.875629
 20
291.241204
 42
-0.027587
  0
VERTEX
  8
0
 10
306.354830
 20
291.382872
 42
-0.055908
  0
VERTEX
  8
0
 10
303.644791
 20
291.952215
 42
-0.073611
  0
VERTEX
  8
0
 10
300.689089
 20
293.437772
 42
-0.049483
  0
VERTEX
  8
0
 10
297.822236
 20
295.909771
 42
-0.050859
  0
VERTEX
  8
0
 10
295.673779
 20
298.685437
 42
-0.140176
  0
VERTEX
  8
0
 10
295.000000
 20
301.041542
 42
-0.186633
  0
VERTEX
  8
0
 10
295.665932
 20
302.763464
 42
-0.099367
  0
VERTEX
  8
0
 10
297.532683
 20
304.137938
 42
-0.046338
  0
VERTEX
  8
0
 10
301.115923
 20
305.421517
 42
-0.009104
  0
VERTEX
  8
0
 10
307.776459
 20
307.003250
 42
0.010741
  0
VERTEX
  8
0
 10
312.052358
 20
308.033481
 42
0.030448
  0
VERTEX
  8
0
 10
314.964663
 20
308.994683
 42
0.044406
  0
VERTEX
  8
0
 10
316.973837
 20
310.011292
 42
0.087160
  0
VERTEX
  8
0
 10
318.303654
 20
311.203906
 42
-0.001221
  0
VERTEX
  8
0
 10
319.092468
 20
312.203053
 42
-0.000895
  0
VERTEX
  8
0
 10
319.972338
 20
313.307892
 42
-0.000904
  0
VERTEX
  8
0
 10
320.809201
 20
314.351006
 42
-0.002007
  0
VERTEX
  8
0
 10
321.451489
 20
315.142111
 42
-0.107744
  0
VERTEX
  8
0
 10
322.330251
 20
315.838564
 42
-0.031455
  0
VERTEX
  8
0
 10
323.933406
 20
316.502474
 42
-0.029034
  0
VERTEX
  8
0
 10
325.937304
 20
317.060705
 42
-0.023218
  0
VERTEX
  8
0
 10
328.147835
 20
317.433800
 42
0.002751
  0
VERTEX
  8
0
 10
336.250921
 20
318.462528
 42
0.036903
  0
VERTEX
  8
0
 10
339.182534
 20
319.073767
 42
0.133256
  0
VERTEX
  8
0
 10
340.500026
 20
319.871191
 42
0.192726
  0
VERTEX
  8
0
 10
341.000000
 20
321.120122
 42
-0.184613
  0
VERTEX
  8
0
 10
341.698168
 20
322.946569
 42
-0.158725
  0
VERTEX
  8
0
 10
343.486458
 20
323.984154
 42
-0.108221
  0
VERTEX
  8
0
 10
346.161359
 20
323.971623
 42
-0.062149
  0
VERTEX
  8
0
 10
349.210162
 20
322.877942
 42
0.027836
  0
VERTEX
  8
0
 10
350.851599
 20
322.158840
 42
0.021257
  0
VERTEX
  8
0
 10
352.716644
 20
321.551645
 42
0.021674
  0
VERTEX
  8
0
 10
354.517509
 20
321.132085
 42
0.046421
  0
SEQEND
  0
POLYLINE
  8
0
 66
1
 70
1
  0
VERTEX
  8
0
 10
576.500000
 20
412.022077
 42
0.004646
  0
VERTEX
  8
0
 10
573.499477
 20
411.191509
 42
0.003679
  0
VERTEX
  8
0
 10
570.270880
 20
410.239659
 42
0.003719
  0
VERTEX
  8
0
 10
567.288084
 20
409.312096
 42
0.009252
  0
VERTEX
  8
0
 10
565.124273
 20
408.577139
 42
-0.049531
  0
VERTEX
  8
0
 10
560.664946
 20
407.452941
 42
-0.036001
  0
VERTEX
  8
0
 10
555.559478
 20
407.064159
 42
-0.036021
  0
VERTEX
  8
0
 10
550.455260
 20
407.411670
 42
-0.049840
  0
VERTEX
  8
0
 10
546.000000
 20
408.500000
 42
0.002286
  0
VERTEX
  8
0
 10
544.346695
 20
409.074833
 42
0.003443
  0
VERTEX
  8
0
 10
542.899851
 20
409.559375
 42
0.001392
  0
VERTEX
  8
0
 10
541.656722
 20
409.962367
 42
0.077832
  0
VERTEX
  8
0
 10
541.416427
 20
410.000000
 42
0.249535
  0
VERTEX
  8
0
 10
541.221655
 20
409.896340
 42
0.002831
  0
VERTEX
  8
0
 10
540.376639
 20
408.625981
 42
0.007860
  0
VERTEX
  8
0
 10
539.417860
 20
407.115532
 42
0.004945
  0
VERTEX
  8
0
 10
538.343104
 20
405.322489
 42
-0.049354
  0
VERTEX
  8
0
 10
532.141779
 20
396.794278
 42
-0.020066
  0
VERTEX
  8
0
 10
522.164406
 20
386.452660
 42
-0.019938
  0
VERTEX
  8
0
 10
511.464839
 20
377.005272
 42
-0.053659
  0
VERTEX
  8
0
 10
502.966746
 20
371.483149
 42
-0.039915
  0
VERTEX
  8
0
 10
496.690246
 20
368.908769
 42
-0.016942
  0
VERTEX
  8
0
 10
487.933863
 20
366.432814
 42
-0.016829
  0
VERTEX
  8
0
 10
479.100733
 20
364.568277
 42
-0.043933
  0
VERTEX
  8
0
 10
472.640524
 20
364.007639
 42
-0.024754
  0
VERTEX
  8
0
 10
469.824179
 20
364.150669
 42
-0.013716
  0
VERTEX
  8
0
 10
466.409591
 20
364.588999
 42
-0.013652
  0
VERTEX
  8
0
 10
462.967154
 20
365.223970
 42
-0.021373
  0
VERTEX
  8
0
 10
460.051701
 20
365.976007
 42
0.005028
  0
VERTEX
  8
0
 10
457.558873
 20
366.706696
 42
0.008019
  0
VERTEX
  8
0
 10
455.412329
 20
367.275511
 42
0.002882
  0
VERTEX
  8
0
 10
453.572785
 20
367.720294
 42
0.259839
  0
VERTEX
  8
0
 10
453.313155
 20
367.646489
 42
0.376114
  0
VERTEX
  8
0
 10
453.298651
 20
367.426719
 42
0.007642
  0
VERTEX
  8
0
 10
454.041636
 20
366.486731
 42
0.014022
  0
VERTEX
  8
0
 10
455.003139
 20
365.373055
 42
0.008469
  0
VERTEX
  8
0
 10
456.200668
 20
364.105956
 42
0.056493
  0
VERTEX
  8
0
 10
460.936782
 20
360.246060
 42
0.050556
  0
VERTEX
  8
0
 10
466.591767
 20
357.374063
 42
0.039578
  0
VERTEX
  8
0
 10
473.888550
 20
355.198334
 42
0.017625
  0
VERTEX
  8
0
 10
483.774239
 20
353.446154
 42
-0.012940
  0
VERTEX
  8
0
 10
488.144831
 20
352.713659
 42
-0.010550
  0
VERTEX
  8
0
 10
492.781910
 20
351.710606
 42
-0.010696
  0
VERTEX
  8
0
 10
497.013313
 20
350.605244
 42
-0.027269
  0
VERTEX
  8
0
 10
500.010997
 20
349.573661
 42
0.000000
  0
VERTEX
  8
0
 10
505.973516
 20
347.150873
 42
0.000000
  0
VERTEX
  8
0
 10
507.929827
 20
349.637919
 42
0.051039
  0
VERTEX
  8
0
 10
509.712007
 20
352.452156
 42
0.041417
  0
VERTEX
  8
0
 10
511.036659
 20
355.771063
 42
0.043129
  0
VERTEX
  8
0
 10
511.730313
 20
359.013398
 42
0.092881
  0
VERTEX
  8
0
 10
511.576027
 20
361.553107
 42
-0.033657
  0
VERTEX
  8
0
 10
511.406697
 20
362.491010
 42
-0.058464
  0
VERTEX
  8
0
 10
511.411016
 20
363.281225
 42
-0.087383
  0
VERTEX
  8
0
 10
511.573959
 20
363.814421
 42
-0.282119
  0
VERTEX
  8
0
 10
511.876685
 20
364.000000
 42
-0.181067
  0
VERTEX
  8
0
 10
512.474445
 20
363.776193
 42
-0.002722
  0
VERTEX
  8
0
 10
515.315014
 20
361.275001
 42
-0.006959
  0
VERTEX
  8
0
 10
518.587649
 20
358.278906
 42
-0.004495
  0
VERTEX
  8
0
 10
522.297036
 20
354.723408
 42
-0.017787
  0
VERTEX
  8
0
 10
528.699686
 20
348.014142
 42
-0.058372
  0
VERTEX
  8
0
 10
532.202485
 20
343.000652
 42
-0.088397
  0
VERTEX
  8
0
 10
533.657498
 20
338.563830
 42
-0.089427
  0
VERTEX
  8
0
 10
533.481621
 20
333.916321
 42
0.027256
  0
VERTEX
  8
0
 10
533.186017
 20
332.104239
 42
0.249819
  0
VERTEX
  8
0
 10
533.473945
 20
331.388377
 42
0.165066
  0
VERTEX
  8
0
 10
534.320589
 20
331.058448
 42
0.011102
  0
VERTEX
  8
0
 10
536.952663
 20
331.000000
 42
0.086641
  0
VERTEX
  8
0
 10
542.996857
 20
332.055272
 42
0.065144
  0
VERTEX
  8
0
 10
549.007618
 20
335.152553
 42
0.062482
  0
VERTEX
  8
0
 10
554.255440
 20
339.855628
 42
0.066208
  0
VERTEX
  8
0
 10
558.060115
 20
345.624180
 42
0.039614
  0
VERTEX
  8
0
 10
559.293888
 20
348.789602
 42
0.061955
  0
VERTEX
  8
0
 10
559.784192
 20
351.668119
 42
0.027871
  0
VERTEX
  8
0
 10
559.738711
 20
355.891961
 42
0.002584
  0
VERTEX
  8
0
 10
558.990806
 20
366.310607
 42
-0.002991
  0
VERTEX
  8
0
 10
558.540815
 20
372.651457
 42
-0.004226
  0
VERTEX
  8
0
 10
558.221578
 20
378.304346
 42
-0.002473
  0
VERTEX
  8
0
 10
558.016573
 20
383.067460
 42
-0.058488
  0
VERTEX
  8
0
 10
558.122261
 20
384.406315
 42
-0.234347
  0
VERTEX
  8
0
 10
558.624642
 20
385.058994
 42
-0.240672
  0
VERTEX
  8
0
 10
559.439253
 20
385.044367
 42
-0.056343
  0
VERTEX
  8
0
 10
560.939318
 20
384.011755
 42
-0.006290
  0
VERTEX
  8
0
 10
564.041144
 20
381.246855
 42
-0.055927
  0
VERTEX
  8
0
 10
569.076541
 20
375.487678
 42
-0.036423
  0
VERTEX
  8
0
 10
573.576640
 20
367.875404
 42
-0.034986
  0
VERTEX
  8
0
 10
577.126279
 20
359.267882
 42
-0.038243
  0
VERTEX
  8
0
 10
579.316110
 20
350.500000
 42
0.006236
  0
VERTEX
  8
0
 10
580.154262
 20
345.914105
 42
0.054118
  0
VERTEX
  8
0
 10
580.769206
 20
343.935783
 42
0.165777
  0
VERTEX
  8
0
 10
581.524675
 20
343.105189
 42
0.187518
  0
VERTEX
  8
0
 10
582.587687
 20
342.962501
 42
-0.044672
  0
VERTEX
  8
0
 10
585.102686
 20
343.337496
 42
-0.021918
  0
VERTEX
  8
0
 10
588.342820
 20
343.385779
 42
-0.021923
  0
VERTEX
  8
0
 10
591.585968
 20
343.149366
 42
-0.043177
  0
VERTEX
  8
0
 10
594.115595
 20
342.628924
 42
0.048154
  0
VERTEX
  8
0
 10
595.700428
 20
342.319238
 42
0.272702
  0
VERTEX
  8
0
 10
596.449512
 20
342.667979
 42
0.119756
  0
VERTEX
  8
0
 10
596.862108
 20
343.750175
 42
0.007488
  0
VERTEX
  8
0
 10
597.243501
 20
347.175325
 42
0.044021
  0
VERTEX
  8
0
 10
597.285854
 20
352.512742
 42
0.049833
  0
VERTEX
  8
0
 10
596.371118
 20
357.550113
 42
0.053486
  0
VERTEX
  8
0
 10
594.570605
 20
361.979555
 42
0.069316
  0
VERTEX
  8
0
 10
591.985401
 20
365.515062
 42
0.000000
  0
VERTEX
  8
0
 10
588.714138
 20
368.890149
 42
0.000000
  0
VERTEX
  8
0
 10
591.607069
 20
369.490541
 42
0.022347
  0
VERTEX
  8
0
 10
599.371239
 20
371.467438
 42
0.051927
  0
VERTEX
  8
0
 10
604.902461
 20
373.791459
 42
0.069801
  0
VERTEX
  8
0
 10
608.761311
 20
376.669965
 42
0.087082
  0
VERTEX
  8
0
 10
611.343713
 20
380.311891
 42
0.053717
  0
VERTEX
  8
0
 10
612.131976
 20
382.570879
 42
0.028848
  0
VERTEX
  8
0
 10
612.634073
 20
385.483223
 42
0.020594
  0
VERTEX
  8
0
 10
612.915496
 20
389.392658
 42
0.007670
  0
VERTEX
  8
0
 10
613.000000
 20
394.901129
 42
0.006751
  0
VERTEX
  8
0
 10
612.942540
 20
399.156794
 42
0.011219
  0
VERTEX
  8
0
 10
612.765261
 20
402.739707
 42
0.004961
  0
VERTEX
  8
0
 10
612.521996
 20
405.707072
 42
0.387598
  0
VERTEX
  8
0
 10
612.200888
 20
406.000000
 42
0.233137
  0
VERTEX
  8
0
 10
611.821809
 20
405.813086
 42
0.028241
  0
VERTEX
  8
0
 10
611.283001
 20
405.022371
 42
0.028815
  0
VERTEX
  8
0
 10
610.717496
 20
403.946834
 42
0.019871
  0
VERTEX
  8
0
 10
610.198321
 20
402.671902
 42
-0.061564
  0
VERTEX
  8
0
 10
608.386298
 20
399.104228
 42
-0.092192
  0
VERTEX
  8
0
 10
605.943003
 20
396.618480
 42
-0.082588
  0
VERTEX
  8
0
 10
602.560688
 20
395.004015
 42
-0.040816
  0
VERTEX
  8
0
 10
597.881127
 20
394.060511
 42
0.000000
  0
VERTEX
  8
0
 10
591.603269
 20
393.320292
 42
0.000000
  0
VERTEX
  8
0
 10
596.051634
 20
397.281509
 42
-0.011843
  0
VERTEX
  8
0
 10
598.182559
 20
399.090435
 42
-0.005956
  0
VERTEX
  8
0
 10
600.952252
 20
401.276880
 42
-0.005910
  0
VERTEX
  8
0
 10
603.870838
 20
403.470483
 42
-0.008720
  0
VERTEX
  8
0
 10
606.487947
 20
405.320211
 42
0.000000
  0
VERTEX
  8
0
 10
612.475893
 20
409.397695
 42
0.000000
  0
VERTEX
  8
0
 10
602.987947
 20
411.653419
 42
0.017844
  0
VERTEX
  8
0
 10
595.109959
 20
413.231747
 42
0.037049
  0
VERTEX
  8
0
 10
588.868837
 20
413.782268
 42
0.041045
  0
VERTEX
  8
0
 10
583.036498
 20
413.384308
 42
0.027652
  0
SEQEND
  0
POLYLINE
  8
0
 66
1
 70
1
  0
VERTEX
  8
0
 10
37.000000
 20
390.317525
 42
0.018614
  0
VERTEX
  8
0
 10
29.328735
 20
388.763917
 42
0.008991
  0
VERTEX
  8
0
 10
19.630224
 20
386.235489
 42
0.002380
  0
VERTEX
  8
0
 10
9.694595
 20
383.402461
 42
0.333686
  0
VERTEX
  8
0
 10
9.000000
 20
382.477557
 42
0.204070
  0
VERTEX
  8
0
 10
9.905154
 20
380.352156
 42
0.023050
  0
VERTEX
  8
0
 10
13.931140
 20
376.824784
 42
0.028519
  0
VERTEX
  8
0
 10
18.616597
 20
373.505421
 42
0.053588
  0
VERTEX
  8
0
 10
22.784718
 20
371.480300
 42
-0.011198
  0
VERTEX
  8
0
 10
24.783519
 20
370.710573
 42
-0.017356
  0
VERTEX
  8
0
 10
26.468011
 20
369.948822
 42
-0.011864
  0
VERTEX
  8
0
 10
27.791501
 20
369.254528
 42
-0.272441
  0
VERTEX
  8
0
 10
28.000000
 20
368.900281
 42
-0.306196
  0
VERTEX
  8
0
 10
27.416319
 20
368.036524
 42
-0.022327
  0
VERTEX
  8
0
 10
24.566039
 20
367.035886
 42
-0.029337
  0
VERTEX
  8
0
 10
21.302545
 20
366.256867
 42
-0.043945
  0
VERTEX
  8
0
 10
18.385573
 20
366.000000
 42
-0.055658
  0
VERTEX
  8
0
 10
16.687351
 20
366.189627
 42
-0.050785
  0
VERTEX
  8
0
 10
15.016680
 20
366.750485
 42
-0.044878
  0
VERTEX
  8
0
 10
13.318350
 20
367.711787
 42
-0.028951
  0
VERTEX
  8
0
 10
11.534796
 20
369.103592
 42
0.000000
  0
VERTEX
  8
0
 10
8.000000
 20
372.207184
 42
0.000000
  0
VERTEX
  8
0
 10
8.000000
 20
366.253631
 42
0.018807
  0
VERTEX
  8
0
 10
8.123727
 20
362.965349
 42
0.051413
  0
VERTEX
  8
0
 10
8.534999
 20
360.678678
 42
0.057696
  0
VERTEX
  8
0
 10
9.371801
 20
358.676921
 42
0.028931
  0
VERTEX
  8
0
 10
10.851146
 20
356.364185
 42
0.030730
  0
VERTEX
  8
0
 10
13.854852
 20
352.712579
 42
0.032076
  0
VERTEX
  8
0
 10
17.243304
 20
349.512137
 42
0.032817
  0
VERTEX
  8
0
 10
20.933311
 20
346.837884
 42
0.035860
  0
VERTEX
  8
0
 10
24.837004
 20
344.756556
 42
-0.016151
  0
VERTEX
  8
0
 10
27.180728
 20
343.623142
 42
-0.089422
  0
VERTEX
  8
0
 10
28.281490
 20
342.766883
 42
-0.159008
  0
VERTEX
  8
0
 10
28.696402
 20
341.827567
 42
-0.086836
  0
VERTEX
  8
0
 10
28.604012
 20
340.558394
 42
0.036977
  0
VERTEX
  8
0
 10
27.974036
 20
336.931593
 42
0.002770
  0
VERTEX
  8
0
 10
27.048353
 20
326.955335
 42
0.000677
  0
VERTEX
  8
0
 10
26.112321
 20
316.050965
 42
0.220911
  0
VERTEX
  8
0
 10
26.398598
 20
315.268069
 42
0.280749
  0
VERTEX
  8
0
 10
26.705719
 20
315.193564
 42
0.004100
  0
VERTEX
  8
0
 10
28.556582
 20
315.802022
 42
0.009815
  0
VERTEX
  8
0
 10
30.732645
 20
316.585126
 42
0.006150
  0
VERTEX
  8
0
 10
33.248413
 20
317.582295
 42
0.000000
  0
VERTEX
  8
0
 10
39.744649
 20
320.250101
 42
0.000000
  0
VERTEX
  8
0
 10
40.211565
 20
329.946521
 42
-0.011041
  0
VERTEX
  8
0
 10
40.597334
 20
335.432923
 42
-0.031981
  0
VERTEX
  8
0
 10
41.189261
 20
339.191117
 42
-0.035884
  0
VERTEX
  8
0
 10
42.213275
 20
342.599052
 42
-0.017070
  0
VERTEX
  8
0
 10
43.988600
 20
346.824337
 42
-0.040790
  0
VERTEX
  8
0
 10
47.525666
 20
353.097012
 42
-0.050938
  0
VERTEX
  8
0
 10
51.814282
 20
358.222210
 42
-0.055291
  0
VERTEX
  8
0
 10
56.711837
 20
362.037188
 42
-0.065753
  0
VERTEX
  8
0
 10
62.058050
 20
364.424598
 42
-0.022908
  0
VERTEX
  8
0
 10
68.174292
 20
365.939932
 42
-0.394040
  0
VERTEX
  8
0
 10
69.781645
 20
364.946345
 42
-0.165052
  0
VERTEX
  8
0
 10
69.615088
 20
362.207300
 42
-0.005696
  0
VERTEX
  8
0
 10
65.393585
 20
352.202438
 42
0.007434
  0
VERTEX
  8
0
 10
63.102899
 20
346.720437
 42
0.025087
  0
VERTEX
  8
0
 10
61.842008
 20
343.048529
 42
0.038593
  0
VERTEX
  8
0
 10
61.273497
 20
340.293006
 42
0.065003
  0
VERTEX
  8
0
 10
61.281769
 20
337.935925
 42
0.053456
  0
VERTEX
  8
0
 10
62.434074
 20
333.230119
 42
0.027243
  0
VERTEX
  8
0
 10
64.815467
 20
327.619933
 42
0.025960
  0
VERTEX
  8
0
 10
67.639298
 20
322.545511
 42
0.098392
  0
VERTEX
  8
0
 10
70.117821
 20
319.916104
 42
0.044431
  0
VERTEX
  8
0
 10
73.439848
 20
317.969794
 42
0.008827
  0
VERTEX
  8
0
 10
79.724101
 20
315.136877
 42
0.006184
  0
VERTEX
  8
0
 10
86.187232
 20
312.453734
 42
0.095571
  0
VERTEX
  8
0
 10
88.539351
 20
312.000000
 42
0.277476
  0
VERTEX
  8
0
 10
89.125682
 20
312.352527
 42
0.045295
  0
VERTEX
  8
0
 10
89.661256
 20
313.627793
 42
0.033928
  0
VERTEX
  8
0
 10
90.136834
 20
315.577542
 42
0.014275
  0
VERTEX
  8
0
 10
90.521264
 20
318.250000
 42
-0.058332
  0
VERTEX
  8
0
 10
92.290125
 20
325.775647
 42
-0.061654
  0
VERTEX
  8
0
 10
95.730093
 20
332.538653
 42
-0.066860
  0
VERTEX
  8
0
 10
100.390413
 20
337.775473
 42
-0.097470
  0
VERTEX
  8
0
 10
105.750000
 20
340.813873
 42
-0.012354
  0
VERTEX
  8
0
 10
107.745314
 20
341.423888
 42
-0.158960
  0
VERTEX
  8
0
 10
108.514367
 20
341.390576
 42
-0.271741
  0
VERTEX
  8
0
 10
108.900299
 20
340.914848
 42
-0.037741
  0
VERTEX
  8
0
 10
109.000000
 20
339.595864
 42
0.105911
  0
VERTEX
  8
0
 10
109.484015
 20
337.336496
 42
0.033276
  0
VERTEX
  8
0
 10
111.116149
 20
334.266220
 42
0.033881
  0
VERTEX
  8
0
 10
113.189291
 20
331.379805
 42
0.081172
  0
VERTEX
  8
0
 10
115.167748
 20
329.650827
 42
0.111288
  0
VERTEX
  8
0
 10
116.181980
 20
329.298256
 42
0.099429
  0
VERTEX
  8
0
 10
117.294394
 20
329.393392
 42
0.061828
  0
VERTEX
  8
0
 10
118.692337
 20
329.996038
 42
0.018152
  0
VERTEX
  8
0
 10
120.667748
 20
331.253370
 42
-0.057148
  0
VERTEX
  8
0
 10
124.728658
 20
333.413929
 42
-0.020953
  0
VERTEX
  8
0
 10
130.882468
 20
335.541561
 42
-0.016429
  0
VERTEX
  8
0
 10
139.130229
 20
337.719066
 42
-0.007554
  0
VERTEX
  8
0
 10
150.000000
 20
340.037688
 42
0.016560
  0
VERTEX
  8
0
 10
159.144091
 20
342.161057
 42
0.053861
  0
VERTEX
  8
0
 10
164.939231
 20
344.401466
 42
0.067999
  0
VERTEX
  8
0
 10
169.372662
 20
347.515337
 42
0.039021
  0
VERTEX
  8
0
 10
173.808036
 20
352.327301
 42
0.002538
  0
VERTEX
  8
0
 10
178.436284
 20
358.270859
 42
0.077941
  0
VERTEX
  8
0
 10
179.335459
 20
359.912986
 42
0.740511
  0
VERTEX
  8
0
 10
178.948694
 20
360.201793
 42
0.012324
  0
VERTEX
  8
0
 10
175.752548
 20
357.731244
 42
-0.031310
  0
VERTEX
  8
0
 10
170.195862
 20
353.763513
 42
-0.046167
  0
VERTEX
  8
0
 10
164.841790
 20
351.075931
 42
-0.049435
  0
VERTEX
  8
0
 10
159.377711
 20
349.539180
 42
-0.044053
  0
VERTEX
  8
0
 10
153.500000
 20
349.024599
 42
-0.013287
  0
VERTEX
  8
0
 10
143.026851
 20
349.310537
 42
-0.007200
  0
VERTEX
  8
0
 10
130.169755
 20
350.189631
 42
-0.006150
  0
VERTEX
  8
0
 10
118.057340
 20
351.343390
 42
-0.035897
  0
VERTEX
  8
0
 10
111.759525
 20
352.483095
 42
-0.060509
  0
VERTEX
  8
0
 10
100.508211
 20
356.868619
 42
-0.058654
  0
VERTEX
  8
0
 10
90.503804
 20
363.856545
 42
-0.059572
  0
VERTEX
  8
0
 10
82.529752
 20
372.858692
 42
-0.066527
  0
VERTEX
  8
0
 10
77.251391
 20
383.171847
 42
0.000000
  0
VERTEX
  8
0
 10
75.500000
 20
388.119954
 42
0.000000
  0
VERTEX
  8
0
 10
68.410902
 20
387.457567
 42
-0.012264
  0
VERTEX
  8
0
 10
64.424106
 20
387.183484
 42
-0.042994
  0
VERTEX
  8
0
 10
61.854104
 20
387.291031
 42
-0.055169
  0
VERTEX
  8
0
 10
59.688708
 20
387.816312
 42
-0.030894
  0
VERTEX
  8
0
 10
57.200740
 20
388.897590
 42
0.070202
  0
VERTEX
  8
0
 10
53.539373
 20
390.158128
 42
0.030315
  0
VERTEX
  8
0
 10
48.413525
 20
390.832367
 42
0.028680
  0
VERTEX
  8
0
 10
42.663839
 20
390.906148
 42
0.029529
  0
SEQEND
  0
POLYLINE
  8
0
 66
1
 70
1
  0
VERTEX
  8
0
 10
562.322063
 20
375.750000
 42
-0.024808
  0
VERTEX
  8
0
 10
562.592079
 20
374.310868
 42
-0.002391
  0
VERTEX
  8
0
 10
563.057206
 20
370.782812
 42
-0.003037
  0
VERTEX
  8
0
 10
563.566338
 20
366.568400
 42
-0.002394
  0
VERTEX
  8
0
 10
564.067954
 20
362.000000
 42
-0.016830
  0
VERTEX
  8
0
 10
564.719053
 20
352.834423
 42
-0.061791
  0
VERTEX
  8
0
 10
564.219479
 20
347.050842
 42
-0.082207
  0
VERTEX
  8
0
 10
562.418849
 20
342.457991
 42
-0.046059
  0
VERTEX
  8
0
 10
558.877301
 20
337.597946
 42
-0.039698
  0
VERTEX
  8
0
 10
554.349448
 20
333.210467
 42
-0.070034
  0
VERTEX
  8
0
 10
549.920281
 20
330.492118
 42
-0.063566
  0
VERTEX
  8
0
 10
544.617566
 20
328.946267
 42
-0.027453
  0
VERTEX
  8
0
 10
537.284531
 20
328.197123
 42
-0.013608
  0
VERTEX
  8
0
 10
529.537658
 20
328.044481
 42
-0.047441
  0
VERTEX
  8
0
 10
524.566873
 20
328.554890
 42
-0.069591
  0
VERTEX
  8
0
 10
520.861996
 20
329.849175
 42
-0.061448
  0
VERTEX
  8
0
 10
517.478619
 20
332.152916
 42
-0.030259
  0
VERTEX
  8
0
 10
515.382302
 20
334.231013
 42
-0.106302
  0
VERTEX
  8
0
 10
514.447647
 20
335.873103
 42
-0.067329
  0
VERTEX
  8
0
 10
514.058321
 20
338.125090
 42
-0.007479
  0
VERTEX
  8
0
 10
513.944444
 20
343.353592
 42
0.000000
  0
VERTEX
  8
0
 10
513.888889
 20
351.500000
 42
0.000000
  0
VERTEX
  8
0
 10
511.706847
 20
348.500000
 42
-0.023892
  0
VERTEX
  8
0
 10
510.480839
 20
346.973376
 42
-0.006677
  0
VERTEX
  8
0
 10
508.420091
 20
344.706244
 42
-0.006720
  0
VERTEX
  8
0
 10
506.017244
 20
342.201021
 42
-0.007019
  0
VERTEX
  8
0
 10
503.582032
 20
339.797854
 42
0.011426
  0
VERTEX
  8
0
 10
501.228476
 20
337.433965
 42
0.012725
  0
VERTEX
  8
0
 10
499.070745
 20
335.046553
 42
0.012114
  0
VERTEX
  8
0
 10
497.338410
 20
332.927106
 42
0.062991
  0
VERTEX
  8
0
 10
496.569629
 20
331.630483
 42
-0.228835
  0
VERTEX
  8
0
 10
495.461488
 20
330.675111
 42
-0.201454
  0
VERTEX
  8
0
 10
493.937549
 20
330.883670
 42
-0.037103
  0
VERTEX
  8
0
 10
491.046945
 20
332.894384
 42
-0.001923
  0
VERTEX
  8
0
 10
482.262357
 20
340.082630
 42
0.001712
  0
VERTEX
  8
0
 10
477.151897
 20
344.268025
 42
0.002761
  0
VERTEX
  8
0
 10
472.768386
 20
347.793022
 42
0.000482
  0
VERTEX
  8
0
 10
468.879649
 20
350.878834
 42
0.169037
  0
VERTEX
  8
0
 10
468.531487
 20
351.000000
 42
0.408263
  0
VERTEX
  8
0
 10
468.358814
 20
350.830807
 42
0.011605
  0
VERTEX
  8
0
 10
468.362052
 20
349.694741
 42
0.017310
  0
VERTEX
  8
0
 10
468.449183
 20
348.260461
 42
0.010232
  0
VERTEX
  8
0
 10
468.647301
 20
346.556565
 42
-0.029423
  0
VERTEX
  8
0
 10
468.841121
 20
344.057030
 42
-0.060316
  0
VERTEX
  8
0
 10
468.641495
 20
342.105304
 42
-0.055461
  0
VERTEX
  8
0
 10
467.966771
 20
340.155969
 42
-0.021518
  0
VERTEX
  8
0
 10
466.628171
 20
337.628495
 42
0.027343
  0
VERTEX
  8
0
 10
465.622093
 20
335.674193
 42
0.023146
  0
VERTEX
  8
0
 10
464.772025
 20
333.511213
 42
0.023787
  0
VERTEX
  8
0
 10
464.181900
 20
331.463745
 42
0.058329
  0
VERTEX
  8
0
 10
464.000000
 20
329.909788
 42
0.090372
  0
VERTEX
  8
0
 10
464.620650
 20
326.503962
 42
0.041443
  0
VERTEX
  8
0
 10
466.564087
 20
322.411439
 42
0.041418
  0
VERTEX
  8
0
 10
469.130648
 20
318.731209
 42
0.099428
  0
VERTEX
  8
0
 10
471.702586
 20
316.647847
 42
0.000000
  0
VERTEX
  8
0
 10
474.337526
 20
315.267262
 42
0.000000
  0
VERTEX
  8
0
 10
471.884507
 20
313.659982
 42
-0.053063
  0
VERTEX
  8
0
 10
470.270256
 20
312.831829
 42
-0.101196
  0
VERTEX
  8
0
 10
468.838006
 20
312.591451
 42
-0.056696
  0
VERTEX
  8
0
 10
466.926900
 20
312.877733
 42
-0.008009
  0
VERTEX
  8
0
 10
463.094192
 20
313.971481
 42
0.000000
  0
VERTEX
  8
0
 10
456.756896
 20
315.890260
 42
0.000000
  0
VERTEX
  8
0
 10
457.397182
 20
311.063546
 42
0.023908
  0
VERTEX
  8
0
 10
458.588365
 20
304.506044
 42
0.043970
  0
VERTEX
  8
0
 10
460.269870
 20
299.352390
 42
0.048234
  0
VERTEX
  8
0
 10
462.701605
 20
294.897542
 42
0.036119
  0
VERTEX
  8
0
 10
466.167699
 20
290.506889
 42
0.020137
  0
VERTEX
  8
0
 10
470.132873
 20
286.504551
 42
0.046835
  0
VERTEX
  8
0
 10
473.475220
 20
283.930864
 42
0.062453
  0
VERTEX
  8
0
 10
476.552337
 20
282.490296
 42
0.078436
  0
VERTEX
  8
0
 10
479.658548
 20
282.000000
 42
0.000000
  0
VERTEX
  8
0
 10
482.416416
 20
282.000000
 42
0.000000
  0
VERTEX
  8
0
 10
478.309597
 20
277.750000
 42
0.030045
  0
VERTEX
  8
0
 10
474.242264
 20
273.000630
 42
0.024813
  0
VERTEX
  8
0
 10
470.486371
 20
267.493019
 42
0.024840
  0
VERTEX
  8
0
 10
467.299167
 20
261.648042
 42
0.030341
  0
VERTEX
  8
0
 10
464.938388
 20
255.886570
 42
0.022881
  0
VERTEX
  8
0
 10
463.773762
 20
251.873765
 42
0.038307
  0
VERTEX
  8
0
 10
463.213874
 20
248.407393
 42
0.025999
  0
VERTEX
  8
0
 10
463.076908
 20
244.071082
 42
0.005490
  0
VERTEX
  8
0
 10
463.314642
 20
236.500000
 42
0.013650
  0
VERTEX
  8
0
 10
463.952732
 20
227.355875
 42
0.014812
  0
VERTEX
  8
0
 10
465.078892
 20
218.507311
 42
0.013988
  0
VERTEX
  8
0
 10
466.472999
 20
211.024100
 42
0.074652
  0
VERTEX
  8
0
 10
467.937574
 20
207.147106
 42
0.041787
  0
VERTEX
  8
0
 10
468.478034
 20
206.346409
 42
0.355104
  0
VERTEX
  8
0
 10
468.873002
 20
206.261771
 42
0.172837
  0
VERTEX
  8
0
 10
469.262361
 20
206.673751
 42
0.012890
  0
VERTEX
  8
0
 10
469.857655
 20
208.125655
 42
0.011084
  0
VERTEX
  8
0
 10
470.321703
 20
209.432675
 42
0.004346
  0
VERTEX
  8
0
 10
470.905836
 20
211.254339
 42
0.004299
  0
VERTEX
  8
0
 10
471.503737
 20
213.236151
 42
0.005345
  0
VERTEX
  8
0
 10
472.024074
 20
215.089403
 42
-0.074357
  0
VERTEX
  8
0
 10
474.004544
 20
219.627751
 42
-0.069526
  0
VERTEX
  8
0
 10
477.263150
 20
223.506366
 42
-0.064832
  0
VERTEX
  8
0
 10
481.684638
 20
226.555591
 42
-0.051917
  0
VERTEX
  8
0
 10
487.081234
 20
228.651914
 42
0.024979
  0
VERTEX
  8
0
 10
490.814171
 20
229.875388
 42
0.051061
  0
VERTEX
  8
0
 10
493.560708
 20
231.266043
 42
0.041199
  0
VERTEX
  8
0
 10
496.316119
 20
233.374159
 42
0.011444
  0
VERTEX
  8
0
 10
500.268776
 20
237.118361
 42
0.016248
  0
VERTEX
  8
0
 10
503.111372
 20
240.126600
 42
0.016452
  0
VERTEX
  8
0
 10
505.740368
 20
243.300949
 42
0.017319
  0
VERTEX
  8
0
 10
507.891530
 20
246.287774
 42
0.041904
  0
VERTEX
  8
0
 10
509.208269
 20
248.665327
 42
0.000000
  0
VERTEX
  8
0
 10
511.378987
 20
253.500000
 42
0.000000
  0
VERTEX
  8
0
 10
513.097811
 20
243.000000
 42
-0.000282
  0
VERTEX
  8
0
 10
513.843024
 20
238.431463
 42
-0.000209
  0
VERTEX
  8
0
 10
514.661716
 20
233.381250
 42
-0.000211
  0
VERTEX
  8
0
 10
515.430588
 20
228.612988
 42
-0.000477
  0
VERTEX
  8
0
 10
516.008075
 20
225.000000
 42
0.006571
  0
VERTEX
  8
0
 10
517.303889
 20
217.482014
 42
0.247722
  0
VERTEX
  8
0
 10
518.339758
 20
216.173161
 42
0.369037
  0
VERTEX
  8
0
 10
519.671064
 20
216.572516
 42
0.010927
  0
VERTEX
  8
0
 10
522.960136
 20
221.931743
 42
0.018371
  0
VERTEX
  8
0
 10
528.037502
 20
231.408410
 42
0.029203
  0
VERTEX
  8
0
 10
531.591751
 20
239.892282
 42
0.031443
  0
VERTEX
  8
0
 10
533.954655
 20
248.251865
 42
0.026587
  0
VERTEX
  8
0
 10
535.413539
 20
257.324012
 42
-0.022324
  0
VERTEX
  8
0
 10
535.795758
 20
259.837313
 42
-0.016537
  0
VERTEX
  8
0
 10
536.432838
 20
262.575064
 42
-0.016786
  0
VERTEX
  8
0
 10
537.208309
 20
265.124577
 42
-0.035741
  0
VERTEX
  8
0
 10
538.010986
 20
267.021535
 42
-0.073009
  0
VERTEX
  8
0
 10
540.080835
 20
269.936214
 42
-0.027640
  0
VERTEX
  8
0
 10
543.736115
 20
273.356977
 42
-0.024321
  0
VERTEX
  8
0
 10
547.589153
 20
276.276174
 42
-0.151068
  0
VERTEX
  8
0
 10
549.930175
 20
277.000000
 42
-0.392135
  0
VERTEX
  8
0
 10
550.870249
 20
276.128757
 42
-0.034951
  0
VERTEX
  8
0
 10
550.891699
 20
272.607378
 42
-0.031179
  0
VERTEX
  8
0
 10
550.280407
 20
267.786226
 42
-0.017865
  0
VERTEX
  8
0
 10
548.976464
 20
262.067629
 42
0.017195
  0
VERTEX
  8
0
 10
548.219234
 20
258.767110
 42
0.011878
  0
VERTEX
  8
0
 10
547.580586
 20
254.987323
 42
0.011992
  0
VERTEX
  8
0
 10
547.139714
 20
251.320115
 42
0.023921
  0
VERTEX
  8
0
 10
547.000000
 20
248.401406
 42
0.022655
  0
VERTEX
  8
0
 10
547.174135
 20
244.560166
 42
0.065397
  0
VERTEX
  8
0
 10
547.757556
 20
241.965941
 42
0.050114
  0
VERTEX
  8
0
 10
549.075982
 20
239.250220
 42
0.009350
  0
VERTEX
  8
0
 10
552.072339
 20
234.583777
 42
0.006739
  0
VERTEX
  8
0
 10
554.073641
 20
231.677137
 42
0.010430
  0
VERTEX
  8
0
 10
555.887156
 20
229.227734
 42
0.005061
  0
VERTEX
  8
0
 10
557.469879
 20
227.223016
 42
0.226869
  0
VERTEX
  8
0
 10
557.936091
 20
227.000000
 42
0.228236
  0
VERTEX
  8
0
 10
558.400963
 20
227.223862
 42
0.005109
  0
VERTEX
  8
0
 10
559.968515
 20
229.231124
 42
0.010500
  0
VERTEX
  8
0
 10
561.763875
 20
231.684249
 42
0.006782
  0
VERTEX
  8
0
 10
563.743637
 20
234.595317
 42
0.000000
  0
VERTEX
  8
0
 10
568.759771
 20
242.190634
 42
0.000000
  0
VERTEX
  8
0
 10
574.417853
 20
235.187736
 42
0.009496
  0
VERTEX
  8
0
 10
578.258614
 20
230.614552
 42
0.051716
  0
VERTEX
  8
0
 10
580.621877
 20
228.413400
 42
0.091394
  0
VERTEX
  8
0
 10
582.723829
 20
227.360777
 42
0.070615
  0
VERTEX
  8
0
 10
585.265625
 20
227.000000
 42
-0.130691
  0
VERTEX
  8
0
 10
586.403467
 20
226.697422
 42
-0.027044
  0
VERTEX
  8
0
 10
588.158673
 20
225.562727
 42
-0.025693
  0
VERTEX
  8
0
 10
590.175383
 20
223.934084
 42
-0.018271
  0
VERTEX
  8
0
 10
592.267266
 20
221.916762
 42
0.010899
  0
VERTEX
  8
0
 10
594.187538
 20
220.009514
 42
0.018063
  0
VERTEX
  8
0
 10
595.897903
 20
218.497026
 42
0.012384
  0
VERTEX
  8
0
 10
597.324890
 20
217.382225
 42
0.371792
  0
VERTEX
  8
0
 10
597.746606
 20
217.413272
 42
0.176718
  0
VERTEX
  8
0
 10
597.991056
 20
217.938536
 42
0.002228
  0
VERTEX
  8
0
 10
598.294901
 20
221.667906
 42
0.006202
  0
VERTEX
  8
0
 10
598.575966
 20
226.023880
 42
0.003984
  0
VERTEX
  8
0
 10
598.799029
 20
231.083018
 42
0.000000
  0
VERTEX
  8
0
 10
599.271704
 20
244.173015
 42
0.000000
  0
VERTEX
  8
0
 10
595.185218
 20
249.967647
 42
0.000000
  0
VERTEX
  8
0
 10
591.098732
 20
255.762279
 42
0.000000
  0
VERTEX
  8
0
 10
595.049238
 20
254.759534
 42
0.037774
  0
VERTEX
  8
0
 10
597.315659
 20
254.363333
 42
0.040085
  0
VERTEX
  8
0
 10
599.570785
 20
254.324034
 42
0.032122
  0
VERTEX
  8
0
 10
602.190563
 20
254.658346
 42
0.013739
  0
VERTEX
  8
0
 10
605.638459
 20
255.424380
 42
0.015859
  0
VERTEX
  8
0
 10
610.130262
 20
256.705403
 42
0.020217
  0
VERTEX
  8
0
 10
614.175878
 20
258.181989
 42
0.014030
  0
VERTEX
  8
0
 10
617.449865
 20
259.637974
 42
0.288716
  0
VERTEX
  8
0
 10
618.000000
 20
260.511285
 42
0.264985
  0
VERTEX
  8
0
 10
617.852209
 20
260.770570
 42
0.003389
  0
VERTEX
  8
0
 10
616.164062
 20
261.754906
 42
0.008769
  0
VERTEX
  8
0
 10
614.145847
 20
262.866848
 42
0.005507
  0
VERTEX
  8
0
 10
611.750000
 20
264.099036
 42
-0.012525
  0
VERTEX
  8
0
 10
603.861681
 20
268.297032
 42
-0.012637
  0
VERTEX
  8
0
 10
596.217192
 20
272.872915
 42
-0.012865
  0
VERTEX
  8
0
 10
589.725940
 20
277.222737
 42
-0.042359
  0
VERTEX
  8
0
 10
585.789069
 20
280.543936
 42
-0.066937
  0
VERTEX
  8
0
 10
582.761481
 20
284.512683
 42
-0.042322
  0
VERTEX
  8
0
 10
580.312463
 20
289.804936
 42
-0.030309
  0
VERTEX
  8
0
 10
578.154144
 20
297.084946
 42
-0.011574
  0
VERTEX
  8
0
 10
576.006237
 20
307.442888
 42
-0.008889
  0
VERTEX
  8
0
 10
574.570515
 20
316.143202
 42
-0.032415
  0
VERTEX
  8
0
 10
574.118183
 20
321.718118
 42
-0.040828
  0
VERTEX
  8
0
 10
574.439688
 20
326.622689
 42
-0.020856
  0
VERTEX
  8
0
 10
575.598452
 20
332.687947
 42
0.037046
  0
VERTEX
  8
0
 10
576.594438
 20
339.003177
 42
0.044054
  0
VERTEX
  8
0
 10
576.560144
 20
345.035291
 42
0.040186
  0
VERTEX
  8
0
 10
575.440599
 20
351.401947
 42
0.023890
  0
VERTEX
  8
0
 10
573.147529
 20
358.758372
 42
0.027283
  0
VERTEX
  8
0
 10
569.801494
 20
366.574523
 42
0.027061
  0
VERTEX
  8
0
 10
565.616156
 20
374.001928
 42
0.104878
  0
VERTEX
  8
0
 10
563.257573
 20
376.404066
 42
0.680994
  0
SEQEND
  0
POLYLINE
  8
0
 66
1
 70
1
  0
VERTEX
  8
0
 10
506.607142
 20
232.912090
 42
-0.080819
  0
VERTEX
  8
0
 10
504.337689
 20
230.189369
 42
-0.028305
  0
VERTEX
  8
0
 10
500.294303
 20
227.063807
 42
-0.022630
  0
VERTEX
  8
0
 10
494.655193
 20
223.558027
 42
-0.011232
  0
VERTEX
  8
0
 10
487.217793
 20
219.605312
 42
0.049199
  0
VERTEX
  8
0
 10
480.159155
 20
215.136943
 42
0.146018
  0
VERTEX
  8
0
 10
476.873432
 20
210.516301
 42
0.109401
  0
VERTEX
  8
0
 10
476.153373
 20
204.009406
 42
0.021560
  0
VERTEX
  8
0
 10
477.929517
 20
192.323507
 42
-0.001964
  0
VERTEX
  8
0
 10
483.330452
 20
164.243596
 42
-0.018770
  0
VERTEX
  8
0
 10
485.136317
 20
152.177130
 42
-0.043740
  0
VERTEX
  8
0
 10
485.321136
 20
144.346626
 42
-0.047631
  0
VERTEX
  8
0
 10
484.115846
 20
136.830925
 42
-0.018778
  0
VERTEX
  8
0
 10
482.058107
 20
129.979284
 42
-0.042027
  0
VERTEX
  8
0
 10
479.876526
 20
125.005059
 42
-0.052036
  0
VERTEX
  8
0
 10
477.239575
 20
121.161339
 42
-0.049190
  0
VERTEX
  8
0
 10
473.820116
 20
117.863991
 42
0.000000
  0
VERTEX
  8
0
 10
469.564572
 20
114.500000
 42
0.000000
  0
VERTEX
  8
0
 10
479.532286
 20
113.608295
 42
0.008985
  0
VERTEX
  8
0
 10
491.093786
 20
112.783105
 42
0.018749
  0
VERTEX
  8
0
 10
500.119159
 20
112.640575
 42
0.022288
  0
VERTEX
  8
0
 10
506.886106
 20
113.089682
 42
0.096087
  0
VERTEX
  8
0
 10
510.717998
 20
114.285210
 42
0.064983
  0
VERTEX
  8
0
 10
515.832855
 20
117.966121
 42
0.093207
  0
VERTEX
  8
0
 10
519.120738
 20
122.462845
 42
0.096443
  0
VERTEX
  8
0
 10
520.482433
 20
127.725939
 42
0.074218
  0
VERTEX
  8
0
 10
519.964071
 20
133.649771
 42
-0.010573
  0
VERTEX
  8
0
 10
519.508763
 20
135.741754
 42
-0.015800
  0
VERTEX
  8
0
 10
519.207800
 20
137.588391
 42
-0.010744
  0
VERTEX
  8
0
 10
519.042326
 20
139.107874
 42
-0.221621
  0
VERTEX
  8
0
 10
519.195672
 20
139.529006
 42
-0.284509
  0
VERTEX
  8
0
 10
519.593731
 20
139.622640
 42
-0.015569
  0
VERTEX
  8
0
 10
520.851885
 20
139.156986
 42
-0.020347
  0
VERTEX
  8
0
 10
522.385524
 20
138.460484
 42
-0.013079
  0
VERTEX
  8
0
 10
524.106732
 20
137.535444
 42
0.030205
  0
VERTEX
  8
0
 10
526.689233
 20
136.259445
 42
0.046504
  0
VERTEX
  8
0
 10
529.064291
 20
135.510210
 42
0.038529
  0
VERTEX
  8
0
 10
531.842265
 20
135.131141
 42
0.014238
  0
VERTEX
  8
0
 10
535.794484
 20
135.012045
 42
-0.017912
  0
VERTEX
  8
0
 10
539.059348
 20
134.889649
 42
-0.011327
  0
VERTEX
  8
0
 10
542.853109
 20
134.524542
 42
-0.011373
  0
VERTEX
  8
0
 10
546.569185
 20
133.995785
 42
-0.020507
  0
VERTEX
  8
0
 10
549.580525
 20
133.369374
 42
0.009018
  0
VERTEX
  8
0
 10
552.106830
 20
132.783014
 42
0.013731
  0
VERTEX
  8
0
 10
554.321567
 20
132.374125
 42
0.008268
  0
VERTEX
  8
0
 10
556.159365
 20
132.117821
 42
0.230831
  0
VERTEX
  8
0
 10
556.604442
 20
132.271109
 42
0.324691
  0
VERTEX
  8
0
 10
556.668413
 20
132.673925
 42
0.014021
  0
VERTEX
  8
0
 10
555.943949
 20
134.004944
 42
0.019338
  0
VERTEX
  8
0
 10
554.922533
 20
135.615594
 42
0.012035
  0
VERTEX
  8
0
 10
553.608382
 20
137.425955
 42
-0.031384
  0
VERTEX
  8
0
 10
552.117572
 20
139.656270
 42
-0.016873
  0
VERTEX
  8
0
 10
550.551854
 20
142.572473
 42
-0.016741
  0
VERTEX
  8
0
 10
549.150451
 20
145.664721
 42
-0.025147
  0
VERTEX
  8
0
 10
548.157986
 20
148.454865
 42
0.025047
  0
VERTEX
  8
0
 10
547.049717
 20
151.572559
 42
0.025903
  0
VERTEX
  8
0
 10
545.645980
 20
154.527984
 42
0.025957
  0
VERTEX
  8
0
 10
543.947208
 20
157.316744
 42
0.025385
  0
VERTEX
  8
0
 10
541.956835
 20
159.936141
 42
-0.008085
  0
VERTEX
  8
0
 10
540.345787
 20
161.910671
 42
-0.013291
  0
VERTEX
  8
0
 10
539.055448
 20
163.637881
 42
-0.006896
  0
VERTEX
  8
0
 10
538.055376
 20
165.095769
 42
-0.361092
  0
VERTEX
  8
0
 10
538.088829
 20
165.411423
 42
-0.088416
  0
VERTEX
  8
0
 10
538.428003
 20
165.641376
 42
-0.002213
  0
VERTEX
  8
0
 10
540.141719
 20
166.396410
 42
-0.004690
  0
VERTEX
  8
0
 10
542.171067
 20
167.257255
 42
-0.003171
  0
VERTEX
  8
0
 10
544.500000
 20
168.202263
 42
0.021971
  0
VERTEX
  8
0
 10
548.275639
 20
169.902251
 42
0.087258
  0
VERTEX
  8
0
 10
550.305664
 20
171.417087
 42
0.062507
  0
VERTEX
  8
0
 10
552.019379
 20
173.763571
 42
0.007777
  0
VERTEX
  8
0
 10
555.000000
 20
179.346406
 42
-0.013409
  0
VERTEX
  8
0
 10
559.408111
 20
187.383786
 42
-0.033257
  0
VERTEX
  8
0
 10
563.169085
 20
192.941099
 42
-0.042239
  0
VERTEX
  8
0
 10
567.023677
 20
197.113093
 42
-0.038916
  0
VERTEX
  8
0
 10
571.626176
 20
200.705080
 42
0.000000
  0
VERTEX
  8
0
 10
577.356893
 20
204.500000
 42
0.000000
  0
VERTEX
  8
0
 10
572.685800
 20
204.804491
 42
0.047083
  0
VERTEX
  8
0
 10
565.138078
 20
204.585527
 42
0.028009
  0
VERTEX
  8
0
 10
556.281551
 20
202.982118
 42
0.024873
  0
VERTEX
  8
0
 10
546.444900
 20
200.101913
 42
0.018537
  0
VERTEX
  8
0
 10
535.906849
 20
195.994610
 42
-0.006102
  0
VERTEX
  8
0
 10
530.362900
 20
193.673417
 42
-0.007148
  0
VERTEX
  8
0
 10
525.047494
 20
191.611683
 42
-0.006385
  0
VERTEX
  8
0
 10
520.514840
 20
189.993263
 42
-0.042930
  0
VERTEX
  8
0
 10
518.199380
 20
189.415891
 42
-0.131925
  0
VERTEX
  8
0
 10
515.366549
 20
189.710920
 42
-0.239354
  0
VERTEX
  8
0
 10
513.842270
 20
191.397748
 42
-0.043603
  0
VERTEX
  8
0
 10
513.031397
 20
195.910092
 42
-0.001380
  0
VERTEX
  8
0
 10
511.393249
 20
214.500000
 42
0.002646
  0
VERTEX
  8
0
 10
510.693280
 20
222.219679
 42
0.004160
  0
VERTEX
  8
0
 10
510.001759
 20
228.842430
 42
0.001182
  0
VERTEX
  8
0
 10
509.340160
 20
234.583991
 42
0.148767
  0
VERTEX
  8
0
 10
509.053039
 20
235.240188
 42
0.355720
  0
VERTEX
  8
0
 10
508.681765
 20
235.307538
 42
0.064252
  0
VERTEX
  8
0
 10
508.073273
 20
234.861637
 42
0.044608
  0
VERTEX
  8
0
 10
507.347677
 20
234.035858
 42
0.024552
  0
SEQEND
  0
POLYLINE
  8
0
 66
1
 70
1
  0
VERTEX
  8
0
 10
121.317181
 20
214.750000
 42
-0.027741
  0
VERTEX
  8
0
 10
122.390321
 20
208.769617
 42
-0.009964
  0
VERTEX
  8
0
 10
123.273003
 20
200.159400
 42
-0.009788
  0
VERTEX
  8
0
 10
123.810359
 20
191.594297
 42
-0.031691
  0
VERTEX
  8
0
 10
123.694871
 20
185.900420
 42
-0.030634
  0
VERTEX
  8
0
 10
122.945141
 20
180.762202
 42
-0.057090
  0
VERTEX
  8
0
 10
121.622548
 20
176.773766
 42
-0.073030
  0
VERTEX
  8
0
 10
119.734955
 20
173.893030
 42
-0.104734
  0
VERTEX
  8
0
 10
117.287676
 20
172.085212
 42
-0.119892
  0
VERTEX
  8
0
 10
111.369063
 20
170.953807
 42
-0.045690
  0
VERTEX
  8
0
 10
102.998355
 20
172.142638
 42
-0.041541
  0
VERTEX
  8
0
 10
93.675958
 20
175.184778
 42
-0.037902
  0
VERTEX
  8
0
 10
84.679666
 20
179.802607
 42
0.000000
  0
VERTEX
  8
0
 10
78.859331
 20
183.371098
 42
0.000000
  0
VERTEX
  8
0
 10
72.733604
 20
182.105850
 42
0.025153
  0
VERTEX
  8
0
 10
67.288957
 20
180.692512
 42
0.037805
  0
VERTEX
  8
0
 10
62.734071
 20
178.874044
 42
0.058484
  0
VERTEX
  8
0
 10
60.023213
 20
177.127829
 42
0.510507
  0
VERTEX
  8
0
 10
60.098733
 20
175.917818
 42
0.051652
  0
VERTEX
  8
0
 10
60.785945
 20
175.576298
 42
0.026438
  0
VERTEX
  8
0
 10
61.705241
 20
175.286740
 42
0.025959
  0
VERTEX
  8
0
 10
62.693330
 20
175.086063
 42
0.035308
  0
VERTEX
  8
0
 10
63.599962
 20
175.015313
 42
-0.132395
  0
VERTEX
  8
0
 10
66.913572
 20
174.096282
 42
-0.053725
  0
VERTEX
  8
0
 10
70.698427
 20
171.271490
 42
-0.047589
  0
VERTEX
  8
0
 10
74.375191
 20
167.139671
 42
-0.041415
  0
VERTEX
  8
0
 10
77.400733
 20
162.197119
 42
0.034223
  0
VERTEX
  8
0
 10
80.206106
 20
157.462858
 42
0.032700
  0
VERTEX
  8
0
 10
83.670339
 20
153.078831
 42
0.034352
  0
VERTEX
  8
0
 10
87.441652
 20
149.436444
 42
0.054841
  0
VERTEX
  8
0
 10
91.161526
 20
146.947079
 42
-0.003794
  0
VERTEX
  8
0
 10
92.083703
 20
146.457834
 42
-0.004941
  0
VERTEX
  8
0
 10
92.920018
 20
145.995241
 42
-0.003723
  0
VERTEX
  8
0
 10
93.613001
 20
145.596093
 42
-0.044637
  0
VERTEX
  8
0
 10
93.864068
 20
145.417144
 42
-0.324932
  0
VERTEX
  8
0
 10
93.925592
 20
145.159041
 42
-0.011571
  0
VERTEX
  8
0
 10
93.487751
 20
144.171907
 42
-0.017415
  0
VERTEX
  8
0
 10
92.872119
 20
142.976109
 42
-0.010827
  0
VERTEX
  8
0
 10
92.071748
 20
141.616090
 42
0.052659
  0
VERTEX
  8
0
 10
91.111847
 20
139.620561
 42
0.012647
  0
VERTEX
  8
0
 10
89.962321
 20
136.126485
 42
0.012851
  0
VERTEX
  8
0
 10
88.841546
 20
132.026580
 42
0.012419
  0
VERTEX
  8
0
 10
87.918840
 20
127.827669
 42
-0.008836
  0
VERTEX
  8
0
 10
86.819896
 20
122.650069
 42
-0.026670
  0
VERTEX
  8
0
 10
85.822782
 20
119.184394
 42
-0.039378
  0
VERTEX
  8
0
 10
84.756417
 20
116.745514
 42
-0.068376
  0
VERTEX
  8
0
 10
83.461159
 20
114.959459
 42
0.008047
  0
VERTEX
  8
0
 10
82.518102
 20
113.942862
 42
0.011716
  0
VERTEX
  8
0
 10
81.722679
 20
113.014374
 42
0.007359
  0
VERTEX
  8
0
 10
81.092550
 20
112.219363
 42
0.164794
  0
VERTEX
  8
0
 10
80.999024
 20
111.945281
 42
0.426605
  0
VERTEX
  8
0
 10
81.609896
 20
111.357039
 42
0.001824
  0
VERTEX
  8
0
 10
91.775554
 20
111.800324
 42
0.006369
  0
VERTEX
  8
0
 10
101.123980
 20
112.361580
 42
0.047628
  0
VERTEX
  8
0
 10
105.500000
 20
113.103248
 42
0.041319
  0
VERTEX
  8
0
 10
107.267573
 20
113.739794
 42
0.023792
  0
VERTEX
  8
0
 10
109.280259
 20
114.776981
 42
0.023648
  0
VERTEX
  8
0
 10
111.215558
 20
116.019344
 42
0.036204
  0
VERTEX
  8
0
 10
112.751947
 20
117.288309
 42
-0.035366
  0
VERTEX
  8
0
 10
115.179378
 20
119.300069
 42
-0.291557
  0
VERTEX
  8
0
 10
116.546606
 20
119.373896
 42
-0.167545
  0
VERTEX
  8
0
 10
117.698310
 20
118.074851
 42
-0.011915
  0
VERTEX
  8
0
 10
119.470177
 20
113.500000
 42
0.067783
  0
VERTEX
  8
0
 10
122.151711
 20
108.362378
 42
0.045647
  0
VERTEX
  8
0
 10
126.458836
 20
103.327308
 42
0.046381
  0
VERTEX
  8
0
 10
131.467643
 20
99.283216
 42
0.085171
  0
VERTEX
  8
0
 10
136.248494
 20
97.167647
 42
0.036312
  0
VERTEX
  8
0
 10
142.483535
 20
96.071132
 42
0.048134
  0
VERTEX
  8
0
 10
148.241724
 20
96.040623
 42
0.050100
  0
VERTEX
  8
0
 10
153.714386
 20
97.098860
 42
0.044636
  0
VERTEX
  8
0
 10
159.094842
 20
99.250000
 42
0.015719
  0
VERTEX
  8
0
 10
161.567886
 20
100.604205
 42
0.021490
  0
VERTEX
  8
0
 10
163.698184
 20
101.985937
 42
0.018994
  0
VERTEX
  8
0
 10
165.330093
 20
103.242967
 42
0.176168
  0
VERTEX
  8
0
 10
165.771316
 20
104.000000
 42
0.161827
  0
VERTEX
  8
0
 10
165.640496
 20
104.915529
 42
0.013219
  0
VERTEX
  8
0
 10
164.488022
 20
107.080168
 42
0.016670
  0
VERTEX
  8
0
 10
162.925171
 20
109.634910
 42
0.012037
  0
VERTEX
  8
0
 10
161.021660
 20
112.379295
 42
-0.060555
  0
VERTEX
  8
0
 10
155.599014
 20
122.084444
 42
-0.073947
  0
VERTEX
  8
0
 10
153.119917
 20
132.173863
 42
-0.057304
  0
VERTEX
  8
0
 10
153.380120
 20
144.463872
 42
-0.021864
  0
VERTEX
  8
0
 10
156.439802
 20
161.338133
 42
0.004302
  0
VERTEX
  8
0
 10
159.003478
 20
173.106572
 42
0.014920
  0
VERTEX
  8
0
 10
160.367918
 20
180.776594
 42
0.022061
  0
VERTEX
  8
0
 10
160.910990
 20
186.077268
 42
0.076118
  0
VERTEX
  8
0
 10
160.587882
 20
189.505872
 42
0.122319
  0
VERTEX
  8
0
 10
157.928016
 20
194.500623
 42
0.036141
  0
VERTEX
  8
0
 10
151.633541
 20
200.552887
 42
0.031983
  0
VERTEX
  8
0
 10
142.933962
 20
206.890408
 42
0.022538
  0
VERTEX
  8
0
 10
132.432603
 20
212.911142
 42
0.010651
  0
VERTEX
  8
0
 10
126.386599
 20
215.863135
 42
0.067341
  0
VERTEX
  8
0
 10
123.119470
 20
216.868149
 42
0.267645
  0
VERTEX
  8
0
 10
121.683301
 20
216.329075
 42
0.234593
  0
SEQEND
  0
ENDSEC
  0
EOF
